<svg width="50" height="45" viewBox="0 0 50 45" fill="none" xmlns="http://www.w3.org/2000/svg">
<path d="M12.3878 29.8253L12.3839 30.8253H12.3878V29.8253ZM6.71165 28.2017L6.14873 29.0282L6.1508 29.0296L6.71165 28.2017ZM3.06818 23.5355L2.1443 23.9182L2.14568 23.9215L3.06818 23.5355ZM1.81534 16.1847L2.81534 16.1876V16.1847H1.81534ZM3.08097 8.88494L2.16021 8.49479L2.15882 8.49811L3.08097 8.88494ZM6.72443 4.29545L7.27809 5.1282L7.27913 5.1275L6.72443 4.29545ZM18.0384 4.29545L17.4816 5.12612L17.4837 5.12751L18.0384 4.29545ZM21.6946 8.89773L20.7739 9.28788L20.7744 9.28928L21.6946 8.89773ZM22.9602 16.1847L21.9602 16.1817V16.1847H22.9602ZM21.6818 23.5483L20.7593 23.1623L20.7579 23.1656L21.6818 23.5483ZM18.0511 28.2145L18.6141 29.041L18.0511 28.2145ZM15.9801 22.973L16.8402 23.4832L15.9801 22.973ZM17.3097 16.1847H16.3097L16.3097 16.1875L17.3097 16.1847ZM16.696 11.2244L15.739 11.5146L15.7408 11.5202L16.696 11.2244ZM14.983 8.24574L14.3111 8.98647L14.3154 8.99031L14.983 8.24574ZM8.80824 9.4858L7.95075 8.9713H7.95075L8.80824 9.4858ZM7.45312 16.1847L6.45312 16.1818V16.1847H7.45312ZM8.05398 21.2216L7.09546 21.5067L7.09767 21.514L8.05398 21.2216ZM9.77983 24.2386L9.10757 24.979L9.11228 24.9832L9.77983 24.2386ZM12.3917 28.8253C10.3611 28.8174 8.66983 28.3204 7.2725 27.3738L6.1508 29.0296C7.92392 30.2308 10.0168 30.8161 12.3839 30.8253L12.3917 28.8253ZM7.27457 27.3752C5.8818 26.4266 4.78029 25.0367 3.99069 23.1495L2.14568 23.9215C3.06062 26.1082 4.38809 27.8291 6.14873 29.0282L7.27457 27.3752ZM3.99206 23.1528C3.21162 21.2687 2.8071 18.9567 2.81534 16.1876L0.815345 16.1817C0.806541 19.1399 1.23724 21.7284 2.14431 23.9182L3.99206 23.1528ZM2.81534 16.1847C2.81534 13.4233 3.22397 11.1291 4.00312 9.27178L2.15882 8.49811C1.25047 10.6635 0.815341 13.2358 0.815341 16.1847H2.81534ZM4.00172 9.27509C4.78965 7.41558 5.88839 6.05216 7.27809 5.1282L6.17077 3.46271C4.40706 4.63534 3.07683 6.33158 2.16021 8.49479L4.00172 9.27509ZM7.27913 5.1275C8.67651 4.19592 10.3645 3.71023 12.3878 3.71023V1.71023C10.0304 1.71023 7.9428 2.28135 6.16973 3.4634L7.27913 5.1275ZM12.3878 3.71023C14.4112 3.71023 16.0938 4.19596 17.4816 5.12612L18.5951 3.46479C16.8295 2.28132 14.745 1.71023 12.3878 1.71023V3.71023ZM17.4837 5.12751C18.8834 6.0607 19.9863 7.42931 20.7739 9.28788L22.6154 8.50758C21.6983 6.34342 20.3637 4.64385 18.5931 3.4634L17.4837 5.12751ZM20.7744 9.28928C21.5599 11.135 21.9685 13.4219 21.9602 16.1817L23.9602 16.1876C23.969 13.2372 23.5339 10.6661 22.6148 8.50617L20.7744 9.28928ZM21.9602 16.1847C21.9602 18.9623 21.5476 21.2784 20.7593 23.1623L22.6043 23.9343C23.5206 21.7443 23.9602 19.1513 23.9602 16.1847H21.9602ZM20.7579 23.1656C19.9768 25.0513 18.8801 26.44 17.4882 27.388L18.6141 29.041C20.3756 27.8412 21.6993 26.1191 22.6057 23.931L20.7579 23.1656ZM17.4882 27.388C16.1018 28.3323 14.4174 28.8253 12.3878 28.8253V30.8253C14.7559 30.8253 16.8471 30.2444 18.6141 29.041L17.4882 27.388ZM12.3878 26.2358C14.3063 26.2358 15.8013 25.2345 16.8402 23.4832L15.1201 22.4628C14.3692 23.7286 13.4693 24.2358 12.3878 24.2358V26.2358ZM16.8402 23.4832C17.8717 21.7443 18.3184 19.2653 18.3097 16.1818L16.3097 16.1875C16.318 19.1381 15.8783 21.1847 15.1201 22.4628L16.8402 23.4832ZM18.3097 16.1847C18.3097 14.1383 18.0999 12.3772 17.6513 10.9286L15.7408 11.5202C16.1104 12.7137 16.3097 14.2594 16.3097 16.1847H18.3097ZM17.653 10.9343C17.219 9.5029 16.5711 8.32649 15.6505 7.50117L14.3154 8.99031C14.8778 9.49453 15.3719 10.3039 15.7391 11.5146L17.653 10.9343ZM15.6548 7.50502C14.7363 6.67197 13.6312 6.24858 12.3878 6.24858V8.24858C13.1387 8.24858 13.7637 8.48996 14.3111 8.98646L15.6548 7.50502ZM12.3878 6.24858C10.4811 6.24858 8.99083 7.23782 7.95075 8.9713L9.66573 10.0003C10.4154 8.75082 11.3115 8.24858 12.3878 8.24858V6.24858ZM7.95075 8.9713C6.91859 10.6916 6.46185 13.1397 6.45313 16.1818L8.45312 16.1875C8.46145 13.2808 8.90811 11.263 9.66573 10.0003L7.95075 8.9713ZM6.45312 16.1847C6.45312 18.2547 6.65835 20.0372 7.09549 21.5067L9.01247 20.9365C8.64847 19.7128 8.45312 18.1374 8.45312 16.1847H6.45312ZM7.09767 21.514C7.53948 22.959 8.19008 24.1458 9.10758 24.979L10.4521 23.4983C9.88662 22.9848 9.38666 22.1603 9.01028 20.9292L7.09767 21.514ZM9.11228 24.9832C10.0375 25.8127 11.1446 26.2358 12.3878 26.2358V24.2358C11.6366 24.2358 11.0051 23.9941 10.4474 23.4941L9.11228 24.9832ZM26.511 24.6477H25.511V25.6477H26.511V24.6477ZM26.511 20.2884L25.6667 19.7525L25.511 19.9978V20.2884H26.511ZM37.4414 3.06818V2.06818H36.8917L36.5971 2.53228L37.4414 3.06818ZM41.1999 3.06818H42.1999V2.06818H41.1999V3.06818ZM41.1999 9.10227V10.1023H42.1999V9.10227H41.1999ZM38.9755 9.10227V8.10227H38.4245L38.1301 8.56809L38.9755 9.10227ZM32.0849 20.0071L31.2395 19.4729L31.0849 19.7176V20.0071H32.0849ZM32.0849 20.2116H31.0849V21.2116H32.0849V20.2116ZM47.6175 20.2116H48.6175V19.2116H47.6175V20.2116ZM47.6175 24.6477V25.6477H48.6175V24.6477H47.6175ZM39.0778 29.25H38.0778V30.25H39.0778V29.25ZM39.0778 23.3182L38.0792 23.2653L38.0778 23.2917V23.3182H39.0778ZM39.18 21.3878L40.1786 21.4407L40.18 21.4143V21.3878H39.18ZM39.18 3.06818V2.06818H38.18V3.06818H39.18ZM44.3704 3.06818H45.3704V2.06818H44.3704V3.06818ZM44.3704 29.25V30.25H45.3704V29.25H44.3704ZM27.511 24.6477V20.2884H25.511V24.6477H27.511ZM27.3553 20.8243L38.2857 3.60408L36.5971 2.53228L25.6667 19.7525L27.3553 20.8243ZM37.4414 4.06818H41.1999V2.06818H37.4414V4.06818ZM40.1999 3.06818V9.10227H42.1999V3.06818H40.1999ZM41.1999 8.10227H38.9755V10.1023H41.1999V8.10227ZM38.1301 8.56809L31.2395 19.4729L32.9302 20.5413L39.8209 9.63645L38.1301 8.56809ZM31.0849 20.0071V20.2116H33.0849V20.0071H31.0849ZM32.0849 21.2116H47.6175V19.2116H32.0849V21.2116ZM46.6175 20.2116V24.6477H48.6175V20.2116H46.6175ZM47.6175 23.6477H26.511V25.6477H47.6175V23.6477ZM40.0778 29.25V23.3182H38.0778V29.25H40.0778ZM40.0764 23.3711L40.1786 21.4407L38.1814 21.3349L38.0792 23.2653L40.0764 23.3711ZM40.18 21.3878V3.06818H38.18V21.3878H40.18ZM39.18 4.06818H44.3704V2.06818H39.18V4.06818ZM43.3704 3.06818V29.25H45.3704V3.06818H43.3704ZM44.3704 28.25H39.0778V30.25H44.3704V28.25Z" fill="#9E9E9E"/>
</svg>
