<svg width="50" height="44" viewBox="0 0 50 44" fill="none" xmlns="http://www.w3.org/2000/svg">
<mask id="path-1-outside-1_849_33783" maskUnits="userSpaceOnUse" x="0" y="1" width="40" height="30" fill="black">
<rect fill="white" y="1" width="40" height="30"/>
<path d="M12.3878 29.5753C10.1889 29.5668 8.29688 29.0256 6.71165 27.9517C5.13494 26.8778 3.92045 25.3224 3.06818 23.2855C2.22443 21.2486 1.80682 18.7983 1.81534 15.9347C1.81534 13.0795 2.23722 10.6463 3.08097 8.63494C3.93324 6.62358 5.14773 5.09375 6.72443 4.04545C8.30966 2.98864 10.1974 2.46023 12.3878 2.46023C14.5781 2.46023 16.4616 2.98864 18.0384 4.04545C19.6236 5.10227 20.8423 6.63636 21.6946 8.64773C22.5469 10.6506 22.9688 13.0795 22.9602 15.9347C22.9602 18.8068 22.5341 21.2614 21.6818 23.2983C20.8381 25.3352 19.6278 26.8906 18.0511 27.9645C16.4744 29.0384 14.5866 29.5753 12.3878 29.5753ZM12.3878 24.9858C13.8878 24.9858 15.0852 24.2315 15.9801 22.723C16.875 21.2145 17.3182 18.9517 17.3097 15.9347C17.3097 13.9489 17.1051 12.2955 16.696 10.9744C16.2955 9.65341 15.7244 8.66051 14.983 7.99574C14.25 7.33097 13.3849 6.99858 12.3878 6.99858C10.8963 6.99858 9.70313 7.74432 8.80824 9.2358C7.91335 10.7273 7.46165 12.9602 7.45312 15.9347C7.45312 17.946 7.65341 19.625 8.05398 20.9716C8.46307 22.3097 9.03835 23.3153 9.77983 23.9886C10.5213 24.6534 11.3906 24.9858 12.3878 24.9858ZM38.2979 2.81818V29H32.7624V8.07244H32.609L26.6133 11.831V6.92188L33.0948 2.81818H38.2979Z"/>
</mask>
<path d="M12.3878 29.5753L12.3839 30.5753H12.3878V29.5753ZM6.71165 27.9517L6.14873 28.7782L6.1508 28.7796L6.71165 27.9517ZM3.06818 23.2855L2.1443 23.6682L2.14568 23.6715L3.06818 23.2855ZM1.81534 15.9347L2.81534 15.9376V15.9347H1.81534ZM3.08097 8.63494L2.16021 8.24479L2.15882 8.24811L3.08097 8.63494ZM6.72443 4.04545L7.27809 4.8782L7.27913 4.8775L6.72443 4.04545ZM18.0384 4.04545L17.4816 4.87612L17.4837 4.87751L18.0384 4.04545ZM21.6946 8.64773L20.7739 9.03788L20.7744 9.03928L21.6946 8.64773ZM22.9602 15.9347L21.9602 15.9317V15.9347H22.9602ZM21.6818 23.2983L20.7593 22.9123L20.7579 22.9156L21.6818 23.2983ZM18.0511 27.9645L18.6141 28.791L18.0511 27.9645ZM15.9801 22.723L16.8402 23.2332L15.9801 22.723ZM17.3097 15.9347H16.3097L16.3097 15.9375L17.3097 15.9347ZM16.696 10.9744L15.739 11.2646L15.7408 11.2702L16.696 10.9744ZM14.983 7.99574L14.3111 8.73647L14.3154 8.74031L14.983 7.99574ZM8.80824 9.2358L7.95075 8.7213H7.95075L8.80824 9.2358ZM7.45312 15.9347L6.45312 15.9318V15.9347H7.45312ZM8.05398 20.9716L7.09546 21.2567L7.09767 21.264L8.05398 20.9716ZM9.77983 23.9886L9.10757 24.729L9.11228 24.7332L9.77983 23.9886ZM12.3917 28.5753C10.3611 28.5674 8.66983 28.0704 7.2725 27.1238L6.1508 28.7796C7.92392 29.9808 10.0168 30.5661 12.3839 30.5753L12.3917 28.5753ZM7.27457 27.1252C5.8818 26.1766 4.78029 24.7867 3.99069 22.8995L2.14568 23.6715C3.06062 25.8582 4.38809 27.5791 6.14873 28.7782L7.27457 27.1252ZM3.99206 22.9028C3.21162 21.0187 2.8071 18.7067 2.81534 15.9376L0.815345 15.9317C0.806541 18.8899 1.23724 21.4784 2.14431 23.6682L3.99206 22.9028ZM2.81534 15.9347C2.81534 13.1733 3.22397 10.8791 4.00312 9.02178L2.15882 8.24811C1.25047 10.4135 0.815341 12.9858 0.815341 15.9347H2.81534ZM4.00172 9.02509C4.78965 7.16558 5.88839 5.80216 7.27809 4.8782L6.17077 3.21271C4.40706 4.38534 3.07683 6.08158 2.16021 8.24479L4.00172 9.02509ZM7.27913 4.8775C8.67651 3.94592 10.3645 3.46023 12.3878 3.46023V1.46023C10.0304 1.46023 7.9428 2.03135 6.16973 3.2134L7.27913 4.8775ZM12.3878 3.46023C14.4112 3.46023 16.0938 3.94596 17.4816 4.87612L18.5951 3.21479C16.8295 2.03132 14.745 1.46023 12.3878 1.46023V3.46023ZM17.4837 4.87751C18.8834 5.8107 19.9863 7.17931 20.7739 9.03788L22.6154 8.25758C21.6983 6.09342 20.3637 4.39385 18.5931 3.2134L17.4837 4.87751ZM20.7744 9.03928C21.5599 10.885 21.9685 13.1719 21.9602 15.9317L23.9602 15.9376C23.969 12.9872 23.5339 10.4161 22.6148 8.25617L20.7744 9.03928ZM21.9602 15.9347C21.9602 18.7123 21.5476 21.0284 20.7593 22.9123L22.6043 23.6843C23.5206 21.4943 23.9602 18.9013 23.9602 15.9347H21.9602ZM20.7579 22.9156C19.9768 24.8013 18.8801 26.19 17.4882 27.138L18.6141 28.791C20.3756 27.5912 21.6993 25.8691 22.6057 23.681L20.7579 22.9156ZM17.4882 27.138C16.1018 28.0823 14.4174 28.5753 12.3878 28.5753V30.5753C14.7559 30.5753 16.8471 29.9944 18.6141 28.791L17.4882 27.138ZM12.3878 25.9858C14.3063 25.9858 15.8013 24.9845 16.8402 23.2332L15.1201 22.2128C14.3692 23.4786 13.4693 23.9858 12.3878 23.9858V25.9858ZM16.8402 23.2332C17.8717 21.4943 18.3184 19.0153 18.3097 15.9318L16.3097 15.9375C16.318 18.8881 15.8783 20.9347 15.1201 22.2128L16.8402 23.2332ZM18.3097 15.9347C18.3097 13.8883 18.0999 12.1272 17.6513 10.6786L15.7408 11.2702C16.1104 12.4637 16.3097 14.0094 16.3097 15.9347H18.3097ZM17.653 10.6843C17.219 9.2529 16.5711 8.07649 15.6505 7.25117L14.3154 8.74031C14.8778 9.24453 15.3719 10.0539 15.7391 11.2646L17.653 10.6843ZM15.6548 7.25502C14.7363 6.42197 13.6312 5.99858 12.3878 5.99858V7.99858C13.1387 7.99858 13.7637 8.23996 14.3111 8.73646L15.6548 7.25502ZM12.3878 5.99858C10.4811 5.99858 8.99083 6.98782 7.95075 8.7213L9.66573 9.75029C10.4154 8.50082 11.3115 7.99858 12.3878 7.99858V5.99858ZM7.95075 8.7213C6.91859 10.4416 6.46185 12.8897 6.45313 15.9318L8.45312 15.9375C8.46145 13.0308 8.90811 11.013 9.66573 9.75029L7.95075 8.7213ZM6.45312 15.9347C6.45312 18.0047 6.65835 19.7872 7.09549 21.2567L9.01247 20.6865C8.64847 19.4628 8.45312 17.8874 8.45312 15.9347H6.45312ZM7.09767 21.264C7.53948 22.709 8.19008 23.8958 9.10758 24.729L10.4521 23.2483C9.88662 22.7348 9.38666 21.9103 9.01028 20.6792L7.09767 21.264ZM9.11228 24.7332C10.0375 25.5627 11.1446 25.9858 12.3878 25.9858V23.9858C11.6366 23.9858 11.0051 23.7441 10.4474 23.2441L9.11228 24.7332ZM38.2979 2.81818H39.2979V1.81818H38.2979V2.81818ZM38.2979 29V30H39.2979V29H38.2979ZM32.7624 29H31.7624V30H32.7624V29ZM32.7624 8.07244H33.7624V7.07244H32.7624V8.07244ZM32.609 8.07244V7.07244H32.3215L32.0779 7.22515L32.609 8.07244ZM26.6133 11.831H25.6133V13.6381L27.1444 12.6783L26.6133 11.831ZM26.6133 6.92188L26.0783 6.07698L25.6133 6.37143V6.92188H26.6133ZM33.0948 2.81818V1.81818H32.8049L32.5599 1.97329L33.0948 2.81818ZM37.2979 2.81818V29H39.2979V2.81818H37.2979ZM38.2979 28H32.7624V30H38.2979V28ZM33.7624 29V8.07244H31.7624V29H33.7624ZM32.7624 7.07244H32.609V9.07244H32.7624V7.07244ZM32.0779 7.22515L26.0821 10.9837L27.1444 12.6783L33.1402 8.91973L32.0779 7.22515ZM27.6133 11.831V6.92188H25.6133V11.831H27.6133ZM27.1482 7.76677L33.6297 3.66308L32.5599 1.97329L26.0783 6.07698L27.1482 7.76677ZM33.0948 3.81818H38.2979V1.81818H33.0948V3.81818Z" fill="#9E9E9E" mask="url(#path-1-outside-1_849_33783)"/>
</svg>
