<svg width="50" height="45" viewBox="0 0 50 45" fill="none" xmlns="http://www.w3.org/2000/svg">
<path d="M12.3878 29.8253L12.3839 30.8253H12.3878V29.8253ZM6.71165 28.2017L6.14873 29.0282L6.1508 29.0296L6.71165 28.2017ZM3.06818 23.5355L2.1443 23.9182L2.14568 23.9215L3.06818 23.5355ZM1.81534 16.1847L2.81534 16.1876V16.1847H1.81534ZM3.08097 8.88494L2.16021 8.49479L2.15882 8.49811L3.08097 8.88494ZM6.72443 4.29545L7.27809 5.1282L7.27913 5.1275L6.72443 4.29545ZM18.0384 4.29545L17.4816 5.12612L17.4837 5.12751L18.0384 4.29545ZM21.6946 8.89773L20.7739 9.28788L20.7744 9.28928L21.6946 8.89773ZM22.9602 16.1847L21.9602 16.1817V16.1847H22.9602ZM21.6818 23.5483L20.7593 23.1623L20.7579 23.1656L21.6818 23.5483ZM18.0511 28.2145L18.6141 29.041L18.0511 28.2145ZM15.9801 22.973L16.8402 23.4832L15.9801 22.973ZM17.3097 16.1847H16.3097L16.3097 16.1875L17.3097 16.1847ZM16.696 11.2244L15.739 11.5146L15.7408 11.5202L16.696 11.2244ZM14.983 8.24574L14.3111 8.98647L14.3154 8.99031L14.983 8.24574ZM8.80824 9.4858L7.95075 8.9713H7.95075L8.80824 9.4858ZM7.45312 16.1847L6.45312 16.1818V16.1847H7.45312ZM8.05398 21.2216L7.09546 21.5067L7.09767 21.514L8.05398 21.2216ZM9.77983 24.2386L9.10757 24.979L9.11228 24.9832L9.77983 24.2386ZM12.3917 28.8253C10.3611 28.8174 8.66983 28.3204 7.2725 27.3738L6.1508 29.0296C7.92392 30.2308 10.0168 30.8161 12.3839 30.8253L12.3917 28.8253ZM7.27457 27.3752C5.8818 26.4266 4.78029 25.0367 3.99069 23.1495L2.14568 23.9215C3.06062 26.1082 4.38809 27.8291 6.14873 29.0282L7.27457 27.3752ZM3.99206 23.1528C3.21162 21.2687 2.8071 18.9567 2.81534 16.1876L0.815345 16.1817C0.806541 19.1399 1.23724 21.7284 2.14431 23.9182L3.99206 23.1528ZM2.81534 16.1847C2.81534 13.4233 3.22397 11.1291 4.00312 9.27178L2.15882 8.49811C1.25047 10.6635 0.815341 13.2358 0.815341 16.1847H2.81534ZM4.00172 9.27509C4.78965 7.41558 5.88839 6.05216 7.27809 5.1282L6.17077 3.46271C4.40706 4.63534 3.07683 6.33158 2.16021 8.49479L4.00172 9.27509ZM7.27913 5.1275C8.67651 4.19592 10.3645 3.71023 12.3878 3.71023V1.71023C10.0304 1.71023 7.9428 2.28135 6.16973 3.4634L7.27913 5.1275ZM12.3878 3.71023C14.4112 3.71023 16.0938 4.19596 17.4816 5.12612L18.5951 3.46479C16.8295 2.28132 14.745 1.71023 12.3878 1.71023V3.71023ZM17.4837 5.12751C18.8834 6.0607 19.9863 7.42931 20.7739 9.28788L22.6154 8.50758C21.6983 6.34342 20.3637 4.64385 18.5931 3.4634L17.4837 5.12751ZM20.7744 9.28928C21.5599 11.135 21.9685 13.4219 21.9602 16.1817L23.9602 16.1876C23.969 13.2372 23.5339 10.6661 22.6148 8.50617L20.7744 9.28928ZM21.9602 16.1847C21.9602 18.9623 21.5476 21.2784 20.7593 23.1623L22.6043 23.9343C23.5206 21.7443 23.9602 19.1513 23.9602 16.1847H21.9602ZM20.7579 23.1656C19.9768 25.0513 18.8801 26.44 17.4882 27.388L18.6141 29.041C20.3756 27.8412 21.6993 26.1191 22.6057 23.931L20.7579 23.1656ZM17.4882 27.388C16.1018 28.3323 14.4174 28.8253 12.3878 28.8253V30.8253C14.7559 30.8253 16.8471 30.2444 18.6141 29.041L17.4882 27.388ZM12.3878 26.2358C14.3063 26.2358 15.8013 25.2345 16.8402 23.4832L15.1201 22.4628C14.3692 23.7286 13.4693 24.2358 12.3878 24.2358V26.2358ZM16.8402 23.4832C17.8717 21.7443 18.3184 19.2653 18.3097 16.1818L16.3097 16.1875C16.318 19.1381 15.8783 21.1847 15.1201 22.4628L16.8402 23.4832ZM18.3097 16.1847C18.3097 14.1383 18.0999 12.3772 17.6513 10.9286L15.7408 11.5202C16.1104 12.7137 16.3097 14.2594 16.3097 16.1847H18.3097ZM17.653 10.9343C17.219 9.5029 16.5711 8.32649 15.6505 7.50117L14.3154 8.99031C14.8778 9.49453 15.3719 10.3039 15.7391 11.5146L17.653 10.9343ZM15.6548 7.50502C14.7363 6.67197 13.6312 6.24858 12.3878 6.24858V8.24858C13.1387 8.24858 13.7637 8.48996 14.3111 8.98646L15.6548 7.50502ZM12.3878 6.24858C10.4811 6.24858 8.99083 7.23782 7.95075 8.9713L9.66573 10.0003C10.4154 8.75082 11.3115 8.24858 12.3878 8.24858V6.24858ZM7.95075 8.9713C6.91859 10.6916 6.46185 13.1397 6.45313 16.1818L8.45312 16.1875C8.46145 13.2808 8.90811 11.263 9.66573 10.0003L7.95075 8.9713ZM6.45312 16.1847C6.45312 18.2547 6.65835 20.0372 7.09549 21.5067L9.01247 20.9365C8.64847 19.7128 8.45312 18.1374 8.45312 16.1847H6.45312ZM7.09767 21.514C7.53948 22.959 8.19008 24.1458 9.10758 24.979L10.4521 23.4983C9.88662 22.9848 9.38666 22.1603 9.01028 20.9292L7.09767 21.514ZM9.11228 24.9832C10.0375 25.8127 11.1446 26.2358 12.3878 26.2358V24.2358C11.6366 24.2358 11.0051 23.9941 10.4474 23.4941L9.11228 24.9832ZM31.484 28.6236L31.075 29.5361L31.0813 29.5389L31.484 28.6236ZM27.9684 25.8878L27.1607 26.4774L27.1656 26.484L27.9684 25.8878ZM26.6516 21.848V20.848H25.6347L25.6518 21.8648L26.6516 21.848ZM32.2255 21.848L33.2241 21.7948L33.1736 20.848H32.2255V21.848ZM32.8519 23.5355L32.067 24.1552L32.073 24.1628L32.0792 24.1702L32.8519 23.5355ZM34.4116 24.6477L34.0339 25.5737L34.4116 24.6477ZM38.8349 24.5966L38.4166 23.6883L38.8349 24.5966ZM40.3562 23.3565L41.1779 23.9264V23.9264L40.3562 23.3565ZM40.3178 19.6747L39.4998 20.2499L39.5049 20.2572L39.5102 20.2644L40.3178 19.6747ZM38.6559 18.3963L38.262 19.3155L38.2659 19.3171L38.6559 18.3963ZM33.6573 17.9361H32.6573V18.9361H33.6573V17.9361ZM33.6573 13.8707V12.8707H32.6573V13.8707H33.6573ZM38.3107 13.4361L37.9024 12.5232L37.8978 12.5253L38.3107 13.4361ZM39.8192 12.2344L40.6385 12.8079L40.6429 12.8015L39.8192 12.2344ZM39.8832 8.69318L39.0295 9.21405L39.0347 9.22257L39.0401 9.231L39.8832 8.69318ZM38.5792 7.51705L38.1265 8.40873L38.132 8.41147L38.5792 7.51705ZM34.5778 7.50426L34.9687 8.42477L34.9792 8.42013L34.5778 7.50426ZM33.082 8.64205L33.8787 9.24643V9.24643L33.082 8.64205ZM32.4812 10.3807V11.3807H33.4435L33.4804 10.4191L32.4812 10.3807ZM27.1758 10.3807L26.1759 10.3637L26.1587 11.3807H27.1758V10.3807ZM28.467 6.39205L29.2762 6.9795L29.2762 6.9795L28.467 6.39205ZM31.842 3.6946L32.2583 4.60384L32.2607 4.60272L31.842 3.6946ZM41.4045 3.6946L41.8403 2.79459L41.4045 3.6946ZM44.5621 6.35369L43.732 6.91133L43.737 6.9186L44.5621 6.35369ZM45.6871 10.0866L44.6871 10.0805L44.6872 10.0925L45.6871 10.0866ZM44.3192 13.7557L43.5903 13.0711L43.5871 13.0745L44.3192 13.7557ZM40.7525 15.6222L40.5751 14.638L39.7525 14.7863V15.6222H40.7525ZM40.7525 15.8267H39.7525V16.7066L40.6252 16.8186L40.7525 15.8267ZM45.1502 17.8338L44.4149 18.5116L44.4205 18.5176L45.1502 17.8338ZM46.6587 21.8991L45.6587 21.8939L45.6588 21.9049L46.6587 21.8991ZM45.3675 25.875L44.5675 25.275L44.5647 25.2788L45.3675 25.875ZM41.8008 28.6108L41.3994 27.6949L41.8008 28.6108ZM36.5849 28.608C34.7909 28.608 33.2314 28.2999 31.8868 27.7083L31.0813 29.5389C32.7196 30.2597 34.5606 30.608 36.5849 30.608V28.608ZM31.8931 27.7111C30.5463 27.1073 29.5177 26.2967 28.7712 25.2916L27.1656 26.484C28.1407 27.797 29.4558 28.8103 31.075 29.5361L31.8931 27.7111ZM28.7761 25.2982C28.0524 24.3067 27.6738 23.1628 27.6515 21.8313L25.6518 21.8648C25.6806 23.5844 26.1799 25.1336 27.1607 26.4774L28.7761 25.2982ZM26.6516 22.848H32.2255V20.848H26.6516V22.848ZM31.2269 21.9013C31.2716 22.7393 31.5509 23.5014 32.067 24.1552L33.6368 22.9159C33.3859 22.5981 33.2476 22.2351 33.2241 21.7948L31.2269 21.9013ZM32.0792 24.1702C32.59 24.7921 33.253 25.2551 34.0339 25.5737L34.7893 23.7218C34.2747 23.5119 33.8979 23.2335 33.6246 22.9008L32.0792 24.1702ZM34.0339 25.5737C34.8189 25.8939 35.6786 26.044 36.5977 26.044V24.044C35.8974 24.044 35.2997 23.93 34.7893 23.7218L34.0339 25.5737ZM36.5977 26.044C37.5597 26.044 38.4524 25.8737 39.2532 25.5049L38.4166 23.6883C37.9219 23.9161 37.3231 24.044 36.5977 24.044V26.044ZM39.2532 25.5049C40.045 25.1402 40.6988 24.6173 41.1779 23.9264L39.5345 22.7866C39.2806 23.1526 38.9202 23.4564 38.4166 23.6883L39.2532 25.5049ZM41.1779 23.9264C41.6691 23.2181 41.9059 22.4067 41.9059 21.5284H39.9059C39.9059 22.0308 39.7762 22.4381 39.5345 22.7866L41.1779 23.9264ZM41.9059 21.5284C41.9059 20.6291 41.6492 19.8023 41.1255 19.085L39.5102 20.2644C39.7706 20.621 39.9059 21.03 39.9059 21.5284H41.9059ZM41.1359 19.0995C40.6267 18.3754 39.9111 17.8419 39.0459 17.4755L38.2659 19.3171C38.8495 19.5643 39.2419 19.8831 39.4998 20.2499L41.1359 19.0995ZM39.0498 17.4772C38.1808 17.1047 37.188 16.9361 36.0991 16.9361V18.9361C36.9874 18.9361 37.6992 19.0743 38.262 19.3155L39.0498 17.4772ZM36.0991 16.9361H33.6573V18.9361H36.0991V16.9361ZM34.6573 17.9361V13.8707H32.6573V17.9361H34.6573ZM33.6573 14.8707H36.0991V12.8707H33.6573V14.8707ZM36.0991 14.8707C37.05 14.8707 37.9324 14.7055 38.7236 14.3469L37.8978 12.5253C37.4106 12.7462 36.8186 12.8707 36.0991 12.8707V14.8707ZM38.7191 14.3489C39.5089 13.9956 40.1632 13.4868 40.6385 12.8078L39 11.6609C38.7594 12.0047 38.408 12.297 37.9024 12.5233L38.7191 14.3489ZM40.6429 12.8015C41.1265 12.0991 41.3562 11.292 41.3562 10.419H39.3562C39.3562 10.9267 39.2279 11.3298 38.9956 11.6673L40.6429 12.8015ZM41.3562 10.419C41.3562 9.59566 41.156 8.82902 40.7262 8.15537L39.0401 9.231C39.241 9.54598 39.3562 9.92991 39.3562 10.419H41.3562ZM40.7368 8.17232C40.3256 7.49835 39.7449 6.98187 39.0264 6.62262L38.132 8.41147C38.5385 8.61472 38.8271 8.88233 39.0295 9.21405L40.7368 8.17232ZM39.0319 6.62538C38.313 6.26039 37.5046 6.09517 36.636 6.09517V8.09517C37.2504 8.09517 37.7375 8.2112 38.1265 8.40871L39.0319 6.62538ZM36.636 6.09517C35.7623 6.09517 34.9376 6.25465 34.1763 6.58839L34.9792 8.42013C35.4622 8.20842 36.0097 8.09517 36.636 8.09517V6.09517ZM34.1869 6.58382C33.419 6.90991 32.775 7.39216 32.2853 8.03766L33.8787 9.24643C34.139 8.9033 34.4922 8.62702 34.9686 8.42471L34.1869 6.58382ZM32.2853 8.03766C31.7773 8.7074 31.5148 9.48812 31.4819 10.3422L33.4804 10.4191C33.4987 9.9437 33.6368 9.56532 33.8787 9.24643L32.2853 8.03766ZM32.4812 9.38068H27.1758V11.3807H32.4812V9.38068ZM28.1756 10.3976C28.198 9.08105 28.5692 7.95354 29.2762 6.9795L27.6577 5.80459C26.6943 7.13169 26.2047 8.66326 26.1759 10.3637L28.1756 10.3976ZM29.2762 6.9795C30.001 5.98113 30.9848 5.18686 32.2583 4.60384L31.4257 2.78536C29.8696 3.4978 28.6034 4.50182 27.6577 5.80459L29.2762 6.9795ZM32.2607 4.60272C33.5353 4.01504 34.9959 3.71023 36.6616 3.71023V1.71023C34.7477 1.71023 32.9953 2.06166 31.4233 2.78648L32.2607 4.60272ZM36.6616 3.71023C38.3472 3.71023 39.7739 4.01604 40.9686 4.59462L41.8403 2.79459C40.3248 2.06067 38.5895 1.71023 36.6616 1.71023V3.71023ZM40.9686 4.59462C42.1838 5.1831 43.0922 5.95885 43.7321 6.91131L45.3922 5.79607C44.5321 4.51558 43.3354 3.5186 41.8403 2.79459L40.9686 4.59462ZM43.737 6.9186C44.377 7.85346 44.6945 8.89738 44.6872 10.0805L46.6871 10.0928C46.6969 8.51455 46.2643 7.06984 45.3873 5.78878L43.737 6.9186ZM44.6872 10.0925C44.6943 11.3273 44.3187 12.2955 43.5903 13.0711L45.0482 14.4403C46.1607 13.2556 46.697 11.7778 46.6871 10.0808L44.6872 10.0925ZM43.5871 13.0745C42.839 13.8785 41.8534 14.4076 40.5751 14.638L40.9299 16.6063C42.5834 16.3083 43.9756 15.5931 45.0514 14.4369L43.5871 13.0745ZM39.7525 15.6222V15.8267H41.7525V15.6222H39.7525ZM40.6252 16.8186C42.3911 17.0452 43.6124 17.641 44.415 18.5116L45.8855 17.156C44.6767 15.8448 42.9661 15.1026 40.8798 14.8348L40.6252 16.8186ZM44.4205 18.5176C45.2421 19.3944 45.6661 20.4947 45.6587 21.8939L47.6587 21.9044C47.6684 20.0479 47.0868 18.438 45.8799 17.1501L44.4205 18.5176ZM45.6588 21.9049C45.6661 23.1849 45.3018 24.296 44.5675 25.275L46.1675 26.475C47.1719 25.1358 47.6684 23.5963 47.6587 21.8934L45.6588 21.9049ZM44.5647 25.2788C43.8221 26.2787 42.7809 27.0895 41.3994 27.6949L42.2021 29.5267C43.8548 28.8025 45.1914 27.7895 46.1704 26.4712L44.5647 25.2788ZM41.3994 27.6949C40.03 28.295 38.4319 28.608 36.5849 28.608V30.608C38.6583 30.608 40.5375 30.2562 42.2021 29.5267L41.3994 27.6949Z" fill="#9E9E9E"/>
</svg>
