<svg width="50" height="44" viewBox="0 0 50 44" fill="none" xmlns="http://www.w3.org/2000/svg">
<mask id="path-1-outside-1_849_33793" maskUnits="userSpaceOnUse" x="0" y="1" width="48" height="30" fill="black">
<rect fill="white" y="1" width="48" height="30"/>
<path d="M12.3878 29.5753C10.1889 29.5668 8.29688 29.0256 6.71165 27.9517C5.13494 26.8778 3.92045 25.3224 3.06818 23.2855C2.22443 21.2486 1.80682 18.7983 1.81534 15.9347C1.81534 13.0795 2.23722 10.6463 3.08097 8.63494C3.93324 6.62358 5.14773 5.09375 6.72443 4.04545C8.30966 2.98864 10.1974 2.46023 12.3878 2.46023C14.5781 2.46023 16.4616 2.98864 18.0384 4.04545C19.6236 5.10227 20.8423 6.63636 21.6946 8.64773C22.5469 10.6506 22.9688 13.0795 22.9602 15.9347C22.9602 18.8068 22.5341 21.2614 21.6818 23.2983C20.8381 25.3352 19.6278 26.8906 18.0511 27.9645C16.4744 29.0384 14.5866 29.5753 12.3878 29.5753ZM12.3878 24.9858C13.8878 24.9858 15.0852 24.2315 15.9801 22.723C16.875 21.2145 17.3182 18.9517 17.3097 15.9347C17.3097 13.9489 17.1051 12.2955 16.696 10.9744C16.2955 9.65341 15.7244 8.66051 14.983 7.99574C14.25 7.33097 13.3849 6.99858 12.3878 6.99858C10.8963 6.99858 9.70313 7.74432 8.80824 9.2358C7.91335 10.7273 7.46165 12.9602 7.45312 15.9347C7.45312 17.946 7.65341 19.625 8.05398 20.9716C8.46307 22.3097 9.03835 23.3153 9.77983 23.9886C10.5213 24.6534 11.3906 24.9858 12.3878 24.9858ZM36.5849 29.358C34.6758 29.358 32.9755 29.0298 31.484 28.3736C30.0011 27.7088 28.8292 26.7969 27.9684 25.6378C27.1161 24.4702 26.6772 23.1236 26.6516 21.598H32.2255C32.2596 22.2372 32.4684 22.7997 32.8519 23.2855C33.244 23.7628 33.7638 24.1335 34.4116 24.3977C35.0593 24.6619 35.788 24.794 36.5977 24.794C37.4414 24.794 38.1871 24.6449 38.8349 24.3466C39.4826 24.0483 39.9897 23.6349 40.3562 23.1065C40.7227 22.5781 40.9059 21.9687 40.9059 21.2784C40.9059 20.5795 40.7099 19.9616 40.3178 19.4247C39.9343 18.8793 39.3803 18.4531 38.6559 18.1463C37.94 17.8395 37.0877 17.6861 36.0991 17.6861H33.6573V13.6207H36.0991C36.9343 13.6207 37.6715 13.4759 38.3107 13.1861C38.9585 12.8963 39.4613 12.4957 39.8192 11.9844C40.1772 11.4645 40.3562 10.8594 40.3562 10.169C40.3562 9.51278 40.1985 8.9375 39.8832 8.44318C39.5763 7.94034 39.1417 7.5483 38.5792 7.26705C38.0252 6.9858 37.3775 6.84517 36.636 6.84517C35.886 6.84517 35.1999 6.98153 34.5778 7.25426C33.9556 7.51846 33.457 7.89773 33.082 8.39205C32.707 8.88636 32.5067 9.46591 32.4812 10.1307H27.1758C27.2013 8.62216 27.6317 7.29261 28.467 6.14205C29.3022 4.99148 30.4272 4.09233 31.842 3.4446C33.2653 2.78835 34.8718 2.46023 36.6616 2.46023C38.4684 2.46023 40.0494 2.78835 41.4045 3.4446C42.7596 4.10085 43.8121 4.98721 44.5621 6.10369C45.3207 7.21165 45.6957 8.45597 45.6871 9.83665C45.6957 11.3026 45.2397 12.5256 44.3192 13.5057C43.4073 14.4858 42.2184 15.108 40.7525 15.3722V15.5767C42.6786 15.8239 44.1445 16.4929 45.1502 17.5838C46.1644 18.6662 46.6673 20.0213 46.6587 21.6491C46.6673 23.1406 46.2369 24.4659 45.3675 25.625C44.5067 26.7841 43.3178 27.696 41.8008 28.3608C40.2837 29.0256 38.5451 29.358 36.5849 29.358Z"/>
</mask>
<path d="M12.3878 29.5753L12.3839 30.5753H12.3878V29.5753ZM6.71165 27.9517L6.14873 28.7782L6.1508 28.7796L6.71165 27.9517ZM3.06818 23.2855L2.1443 23.6682L2.14568 23.6715L3.06818 23.2855ZM1.81534 15.9347L2.81534 15.9376V15.9347H1.81534ZM3.08097 8.63494L2.16021 8.24479L2.15882 8.24811L3.08097 8.63494ZM6.72443 4.04545L7.27809 4.8782L7.27913 4.8775L6.72443 4.04545ZM18.0384 4.04545L17.4816 4.87612L17.4837 4.87751L18.0384 4.04545ZM21.6946 8.64773L20.7739 9.03788L20.7744 9.03928L21.6946 8.64773ZM22.9602 15.9347L21.9602 15.9317V15.9347H22.9602ZM21.6818 23.2983L20.7593 22.9123L20.7579 22.9156L21.6818 23.2983ZM18.0511 27.9645L18.6141 28.791L18.0511 27.9645ZM15.9801 22.723L16.8402 23.2332L15.9801 22.723ZM17.3097 15.9347H16.3097L16.3097 15.9375L17.3097 15.9347ZM16.696 10.9744L15.739 11.2646L15.7408 11.2702L16.696 10.9744ZM14.983 7.99574L14.3111 8.73647L14.3154 8.74031L14.983 7.99574ZM8.80824 9.2358L7.95075 8.7213H7.95075L8.80824 9.2358ZM7.45312 15.9347L6.45312 15.9318V15.9347H7.45312ZM8.05398 20.9716L7.09546 21.2567L7.09767 21.264L8.05398 20.9716ZM9.77983 23.9886L9.10757 24.729L9.11228 24.7332L9.77983 23.9886ZM12.3917 28.5753C10.3611 28.5674 8.66983 28.0704 7.2725 27.1238L6.1508 28.7796C7.92392 29.9808 10.0168 30.5661 12.3839 30.5753L12.3917 28.5753ZM7.27457 27.1252C5.8818 26.1766 4.78029 24.7867 3.99069 22.8995L2.14568 23.6715C3.06062 25.8582 4.38809 27.5791 6.14873 28.7782L7.27457 27.1252ZM3.99206 22.9028C3.21162 21.0187 2.8071 18.7067 2.81534 15.9376L0.815345 15.9317C0.806541 18.8899 1.23724 21.4784 2.14431 23.6682L3.99206 22.9028ZM2.81534 15.9347C2.81534 13.1733 3.22397 10.8791 4.00312 9.02178L2.15882 8.24811C1.25047 10.4135 0.815341 12.9858 0.815341 15.9347H2.81534ZM4.00172 9.02509C4.78965 7.16558 5.88839 5.80216 7.27809 4.8782L6.17077 3.21271C4.40706 4.38534 3.07683 6.08158 2.16021 8.24479L4.00172 9.02509ZM7.27913 4.8775C8.67651 3.94592 10.3645 3.46023 12.3878 3.46023V1.46023C10.0304 1.46023 7.9428 2.03135 6.16973 3.2134L7.27913 4.8775ZM12.3878 3.46023C14.4112 3.46023 16.0938 3.94596 17.4816 4.87612L18.5951 3.21479C16.8295 2.03132 14.745 1.46023 12.3878 1.46023V3.46023ZM17.4837 4.87751C18.8834 5.8107 19.9863 7.17931 20.7739 9.03788L22.6154 8.25758C21.6983 6.09342 20.3637 4.39385 18.5931 3.2134L17.4837 4.87751ZM20.7744 9.03928C21.5599 10.885 21.9685 13.1719 21.9602 15.9317L23.9602 15.9376C23.969 12.9872 23.5339 10.4161 22.6148 8.25617L20.7744 9.03928ZM21.9602 15.9347C21.9602 18.7123 21.5476 21.0284 20.7593 22.9123L22.6043 23.6843C23.5206 21.4943 23.9602 18.9013 23.9602 15.9347H21.9602ZM20.7579 22.9156C19.9768 24.8013 18.8801 26.19 17.4882 27.138L18.6141 28.791C20.3756 27.5912 21.6993 25.8691 22.6057 23.681L20.7579 22.9156ZM17.4882 27.138C16.1018 28.0823 14.4174 28.5753 12.3878 28.5753V30.5753C14.7559 30.5753 16.8471 29.9944 18.6141 28.791L17.4882 27.138ZM12.3878 25.9858C14.3063 25.9858 15.8013 24.9845 16.8402 23.2332L15.1201 22.2128C14.3692 23.4786 13.4693 23.9858 12.3878 23.9858V25.9858ZM16.8402 23.2332C17.8717 21.4943 18.3184 19.0153 18.3097 15.9318L16.3097 15.9375C16.318 18.8881 15.8783 20.9347 15.1201 22.2128L16.8402 23.2332ZM18.3097 15.9347C18.3097 13.8883 18.0999 12.1272 17.6513 10.6786L15.7408 11.2702C16.1104 12.4637 16.3097 14.0094 16.3097 15.9347H18.3097ZM17.653 10.6843C17.219 9.2529 16.5711 8.07649 15.6505 7.25117L14.3154 8.74031C14.8778 9.24453 15.3719 10.0539 15.7391 11.2646L17.653 10.6843ZM15.6548 7.25502C14.7363 6.42197 13.6312 5.99858 12.3878 5.99858V7.99858C13.1387 7.99858 13.7637 8.23996 14.3111 8.73646L15.6548 7.25502ZM12.3878 5.99858C10.4811 5.99858 8.99083 6.98782 7.95075 8.7213L9.66573 9.75029C10.4154 8.50082 11.3115 7.99858 12.3878 7.99858V5.99858ZM7.95075 8.7213C6.91859 10.4416 6.46185 12.8897 6.45313 15.9318L8.45312 15.9375C8.46145 13.0308 8.90811 11.013 9.66573 9.75029L7.95075 8.7213ZM6.45312 15.9347C6.45312 18.0047 6.65835 19.7872 7.09549 21.2567L9.01247 20.6865C8.64847 19.4628 8.45312 17.8874 8.45312 15.9347H6.45312ZM7.09767 21.264C7.53948 22.709 8.19008 23.8958 9.10758 24.729L10.4521 23.2483C9.88662 22.7348 9.38666 21.9103 9.01028 20.6792L7.09767 21.264ZM9.11228 24.7332C10.0375 25.5627 11.1446 25.9858 12.3878 25.9858V23.9858C11.6366 23.9858 11.0051 23.7441 10.4474 23.2441L9.11228 24.7332ZM31.484 28.3736L31.075 29.2861L31.0813 29.2889L31.484 28.3736ZM27.9684 25.6378L27.1607 26.2274L27.1656 26.234L27.9684 25.6378ZM26.6516 21.598V20.598H25.6347L25.6518 21.6148L26.6516 21.598ZM32.2255 21.598L33.2241 21.5448L33.1736 20.598H32.2255V21.598ZM32.8519 23.2855L32.067 23.9052L32.073 23.9128L32.0792 23.9202L32.8519 23.2855ZM34.4116 24.3977L34.0339 25.3237L34.4116 24.3977ZM38.8349 24.3466L38.4166 23.4383L38.8349 24.3466ZM40.3562 23.1065L41.1779 23.6764V23.6764L40.3562 23.1065ZM40.3178 19.4247L39.4998 19.9999L39.5049 20.0072L39.5102 20.0144L40.3178 19.4247ZM38.6559 18.1463L38.262 19.0655L38.2659 19.0671L38.6559 18.1463ZM33.6573 17.6861H32.6573V18.6861H33.6573V17.6861ZM33.6573 13.6207V12.6207H32.6573V13.6207H33.6573ZM38.3107 13.1861L37.9024 12.2732L37.8978 12.2753L38.3107 13.1861ZM39.8192 11.9844L40.6385 12.5579L40.6429 12.5515L39.8192 11.9844ZM39.8832 8.44318L39.0295 8.96405L39.0347 8.97257L39.0401 8.981L39.8832 8.44318ZM38.5792 7.26705L38.1265 8.15873L38.132 8.16147L38.5792 7.26705ZM34.5778 7.25426L34.9687 8.17477L34.9792 8.17013L34.5778 7.25426ZM33.082 8.39205L33.8787 8.99643V8.99643L33.082 8.39205ZM32.4812 10.1307V11.1307H33.4435L33.4804 10.1691L32.4812 10.1307ZM27.1758 10.1307L26.1759 10.1137L26.1587 11.1307H27.1758V10.1307ZM28.467 6.14205L29.2762 6.7295L29.2762 6.7295L28.467 6.14205ZM31.842 3.4446L32.2583 4.35384L32.2607 4.35272L31.842 3.4446ZM41.4045 3.4446L41.8403 2.54459L41.4045 3.4446ZM44.5621 6.10369L43.732 6.66133L43.737 6.6686L44.5621 6.10369ZM45.6871 9.83665L44.6871 9.83047L44.6872 9.84246L45.6871 9.83665ZM44.3192 13.5057L43.5903 12.8211L43.5871 12.8245L44.3192 13.5057ZM40.7525 15.3722L40.5751 14.388L39.7525 14.5363V15.3722H40.7525ZM40.7525 15.5767H39.7525V16.4566L40.6252 16.5686L40.7525 15.5767ZM45.1502 17.5838L44.4149 18.2616L44.4205 18.2676L45.1502 17.5838ZM46.6587 21.6491L45.6587 21.6439L45.6588 21.6549L46.6587 21.6491ZM45.3675 25.625L44.5675 25.025L44.5647 25.0288L45.3675 25.625ZM41.8008 28.3608L41.3994 27.4449L41.8008 28.3608ZM36.5849 28.358C34.7909 28.358 33.2314 28.0499 31.8868 27.4583L31.0813 29.2889C32.7196 30.0097 34.5606 30.358 36.5849 30.358V28.358ZM31.8931 27.4611C30.5463 26.8573 29.5177 26.0467 28.7712 25.0416L27.1656 26.234C28.1407 27.547 29.4558 28.5603 31.075 29.2861L31.8931 27.4611ZM28.7761 25.0482C28.0524 24.0567 27.6738 22.9128 27.6515 21.5813L25.6518 21.6148C25.6806 23.3344 26.1799 24.8836 27.1607 26.2274L28.7761 25.0482ZM26.6516 22.598H32.2255V20.598H26.6516V22.598ZM31.2269 21.6513C31.2716 22.4893 31.5509 23.2514 32.067 23.9052L33.6368 22.6659C33.3859 22.3481 33.2476 21.9851 33.2241 21.5448L31.2269 21.6513ZM32.0792 23.9202C32.59 24.5421 33.253 25.0051 34.0339 25.3237L34.7893 23.4718C34.2747 23.2619 33.8979 22.9835 33.6246 22.6508L32.0792 23.9202ZM34.0339 25.3237C34.8189 25.6439 35.6786 25.794 36.5977 25.794V23.794C35.8974 23.794 35.2997 23.68 34.7893 23.4718L34.0339 25.3237ZM36.5977 25.794C37.5597 25.794 38.4524 25.6237 39.2532 25.2549L38.4166 23.4383C37.9219 23.6661 37.3231 23.794 36.5977 23.794V25.794ZM39.2532 25.2549C40.045 24.8902 40.6988 24.3673 41.1779 23.6764L39.5345 22.5366C39.2806 22.9026 38.9202 23.2064 38.4166 23.4383L39.2532 25.2549ZM41.1779 23.6764C41.6691 22.9681 41.9059 22.1567 41.9059 21.2784H39.9059C39.9059 21.7808 39.7762 22.1881 39.5345 22.5366L41.1779 23.6764ZM41.9059 21.2784C41.9059 20.3791 41.6492 19.5523 41.1255 18.835L39.5102 20.0144C39.7706 20.371 39.9059 20.78 39.9059 21.2784H41.9059ZM41.1359 18.8495C40.6267 18.1254 39.9111 17.5919 39.0459 17.2255L38.2659 19.0671C38.8495 19.3143 39.2419 19.6331 39.4998 19.9999L41.1359 18.8495ZM39.0498 17.2272C38.1808 16.8547 37.188 16.6861 36.0991 16.6861V18.6861C36.9874 18.6861 37.6992 18.8243 38.262 19.0655L39.0498 17.2272ZM36.0991 16.6861H33.6573V18.6861H36.0991V16.6861ZM34.6573 17.6861V13.6207H32.6573V17.6861H34.6573ZM33.6573 14.6207H36.0991V12.6207H33.6573V14.6207ZM36.0991 14.6207C37.05 14.6207 37.9324 14.4555 38.7236 14.0969L37.8978 12.2753C37.4106 12.4962 36.8186 12.6207 36.0991 12.6207V14.6207ZM38.7191 14.0989C39.5089 13.7456 40.1632 13.2368 40.6385 12.5578L39 11.4109C38.7594 11.7547 38.408 12.047 37.9024 12.2733L38.7191 14.0989ZM40.6429 12.5515C41.1265 11.8491 41.3562 11.042 41.3562 10.169H39.3562C39.3562 10.6767 39.2279 11.0798 38.9956 11.4173L40.6429 12.5515ZM41.3562 10.169C41.3562 9.34566 41.156 8.57902 40.7262 7.90537L39.0401 8.981C39.241 9.29598 39.3562 9.67991 39.3562 10.169H41.3562ZM40.7368 7.92232C40.3256 7.24835 39.7449 6.73187 39.0264 6.37262L38.132 8.16147C38.5385 8.36472 38.8271 8.63233 39.0295 8.96405L40.7368 7.92232ZM39.0319 6.37538C38.313 6.01039 37.5046 5.84517 36.636 5.84517V7.84517C37.2504 7.84517 37.7375 7.9612 38.1265 8.15871L39.0319 6.37538ZM36.636 5.84517C35.7623 5.84517 34.9376 6.00465 34.1763 6.33839L34.9792 8.17013C35.4622 7.95842 36.0097 7.84517 36.636 7.84517V5.84517ZM34.1869 6.33382C33.419 6.65991 32.775 7.14216 32.2853 7.78766L33.8787 8.99643C34.139 8.6533 34.4922 8.37702 34.9686 8.17471L34.1869 6.33382ZM32.2853 7.78766C31.7773 8.4574 31.5148 9.23812 31.4819 10.0922L33.4804 10.1691C33.4987 9.6937 33.6368 9.31532 33.8787 8.99643L32.2853 7.78766ZM32.4812 9.13068H27.1758V11.1307H32.4812V9.13068ZM28.1756 10.1476C28.198 8.83105 28.5692 7.70354 29.2762 6.7295L27.6577 5.55459C26.6943 6.88169 26.2047 8.41326 26.1759 10.1137L28.1756 10.1476ZM29.2762 6.7295C30.001 5.73113 30.9848 4.93686 32.2583 4.35384L31.4257 2.53536C29.8696 3.2478 28.6034 4.25182 27.6577 5.55459L29.2762 6.7295ZM32.2607 4.35272C33.5353 3.76504 34.9959 3.46023 36.6616 3.46023V1.46023C34.7477 1.46023 32.9953 1.81166 31.4233 2.53648L32.2607 4.35272ZM36.6616 3.46023C38.3472 3.46023 39.7739 3.76604 40.9686 4.34462L41.8403 2.54459C40.3248 1.81067 38.5895 1.46023 36.6616 1.46023V3.46023ZM40.9686 4.34462C42.1838 4.9331 43.0922 5.70885 43.7321 6.66131L45.3922 5.54607C44.5321 4.26558 43.3354 3.2686 41.8403 2.54459L40.9686 4.34462ZM43.737 6.6686C44.377 7.60346 44.6945 8.64738 44.6872 9.83047L46.6871 9.84282C46.6969 8.26455 46.2643 6.81984 45.3873 5.53878L43.737 6.6686ZM44.6872 9.84246C44.6943 11.0773 44.3187 12.0455 43.5903 12.8211L45.0482 14.1903C46.1607 13.0056 46.697 11.5278 46.6871 9.83083L44.6872 9.84246ZM43.5871 12.8245C42.839 13.6285 41.8534 14.1576 40.5751 14.388L40.9299 16.3563C42.5834 16.0583 43.9756 15.3431 45.0514 14.1869L43.5871 12.8245ZM39.7525 15.3722V15.5767H41.7525V15.3722H39.7525ZM40.6252 16.5686C42.3911 16.7952 43.6124 17.391 44.415 18.2616L45.8855 16.906C44.6767 15.5948 42.9661 14.8526 40.8798 14.5848L40.6252 16.5686ZM44.4205 18.2676C45.2421 19.1444 45.6661 20.2447 45.6587 21.6439L47.6587 21.6544C47.6684 19.7979 47.0868 18.188 45.8799 16.9001L44.4205 18.2676ZM45.6588 21.6549C45.6661 22.9349 45.3018 24.046 44.5675 25.025L46.1675 26.225C47.1719 24.8858 47.6684 23.3463 47.6587 21.6434L45.6588 21.6549ZM44.5647 25.0288C43.8221 26.0287 42.7809 26.8395 41.3994 27.4449L42.2021 29.2767C43.8548 28.5525 45.1914 27.5395 46.1704 26.2212L44.5647 25.0288ZM41.3994 27.4449C40.03 28.045 38.4319 28.358 36.5849 28.358V30.358C38.6583 30.358 40.5375 30.0062 42.2021 29.2767L41.3994 27.4449Z" fill="#9E9E9E" mask="url(#path-1-outside-1_849_33793)"/>
</svg>
