<svg width="50" height="44" viewBox="0 0 50 44" fill="none" xmlns="http://www.w3.org/2000/svg">
<mask id="path-1-outside-1_849_33788" maskUnits="userSpaceOnUse" x="0" y="1" width="47" height="30" fill="black">
<rect fill="white" y="1" width="47" height="30"/>
<path d="M12.3878 29.5753C10.1889 29.5668 8.29688 29.0256 6.71165 27.9517C5.13494 26.8778 3.92045 25.3224 3.06818 23.2855C2.22443 21.2486 1.80682 18.7983 1.81534 15.9347C1.81534 13.0795 2.23722 10.6463 3.08097 8.63494C3.93324 6.62358 5.14773 5.09375 6.72443 4.04545C8.30966 2.98864 10.1974 2.46023 12.3878 2.46023C14.5781 2.46023 16.4616 2.98864 18.0384 4.04545C19.6236 5.10227 20.8423 6.63636 21.6946 8.64773C22.5469 10.6506 22.9688 13.0795 22.9602 15.9347C22.9602 18.8068 22.5341 21.2614 21.6818 23.2983C20.8381 25.3352 19.6278 26.8906 18.0511 27.9645C16.4744 29.0384 14.5866 29.5753 12.3878 29.5753ZM12.3878 24.9858C13.8878 24.9858 15.0852 24.2315 15.9801 22.723C16.875 21.2145 17.3182 18.9517 17.3097 15.9347C17.3097 13.9489 17.1051 12.2955 16.696 10.9744C16.2955 9.65341 15.7244 8.66051 14.983 7.99574C14.25 7.33097 13.3849 6.99858 12.3878 6.99858C10.8963 6.99858 9.70313 7.74432 8.80824 9.2358C7.91335 10.7273 7.46165 12.9602 7.45312 15.9347C7.45312 17.946 7.65341 19.625 8.05398 20.9716C8.46307 22.3097 9.03835 23.3153 9.77983 23.9886C10.5213 24.6534 11.3906 24.9858 12.3878 24.9858ZM26.9073 29V25.0114L36.2269 16.3821C37.0195 15.6151 37.6843 14.9247 38.2212 14.3111C38.7667 13.6974 39.18 13.0966 39.4613 12.5085C39.7425 11.9119 39.8832 11.2685 39.8832 10.5781C39.8832 9.81108 39.7085 9.15057 39.359 8.59659C39.0096 8.03409 38.5323 7.60369 37.9272 7.3054C37.3221 6.99858 36.636 6.84517 35.869 6.84517C35.0678 6.84517 34.369 7.0071 33.7724 7.33097C33.1758 7.65483 32.7156 8.11932 32.3917 8.72443C32.0678 9.32954 31.9059 10.0497 31.9059 10.8849H26.6516C26.6516 9.17187 27.0394 7.68466 27.815 6.4233C28.5906 5.16193 29.6772 4.18608 31.0749 3.49574C32.4727 2.8054 34.0835 2.46023 35.9073 2.46023C37.7823 2.46023 39.4144 2.79261 40.8036 3.45739C42.2014 4.11364 43.288 5.02557 44.0636 6.19318C44.8391 7.36079 45.2269 8.69886 45.2269 10.2074C45.2269 11.196 45.0309 12.1719 44.6389 13.1349C44.2553 14.098 43.5692 15.1676 42.5806 16.3438C41.592 17.5114 40.1985 18.9134 38.4002 20.5497L34.5778 24.2955V24.4744H45.5721V29H26.9073Z"/>
</mask>
<path d="M12.3878 29.5753L12.3839 30.5753H12.3878V29.5753ZM6.71165 27.9517L6.14873 28.7782L6.1508 28.7796L6.71165 27.9517ZM3.06818 23.2855L2.1443 23.6682L2.14568 23.6715L3.06818 23.2855ZM1.81534 15.9347L2.81534 15.9376V15.9347H1.81534ZM3.08097 8.63494L2.16021 8.24479L2.15882 8.24811L3.08097 8.63494ZM6.72443 4.04545L7.27809 4.8782L7.27913 4.8775L6.72443 4.04545ZM18.0384 4.04545L17.4816 4.87612L17.4837 4.87751L18.0384 4.04545ZM21.6946 8.64773L20.7739 9.03788L20.7744 9.03928L21.6946 8.64773ZM22.9602 15.9347L21.9602 15.9317V15.9347H22.9602ZM21.6818 23.2983L20.7593 22.9123L20.7579 22.9156L21.6818 23.2983ZM18.0511 27.9645L18.6141 28.791L18.0511 27.9645ZM15.9801 22.723L16.8402 23.2332L15.9801 22.723ZM17.3097 15.9347H16.3097L16.3097 15.9375L17.3097 15.9347ZM16.696 10.9744L15.739 11.2646L15.7408 11.2702L16.696 10.9744ZM14.983 7.99574L14.3111 8.73647L14.3154 8.74031L14.983 7.99574ZM8.80824 9.2358L7.95075 8.7213H7.95075L8.80824 9.2358ZM7.45312 15.9347L6.45312 15.9318V15.9347H7.45312ZM8.05398 20.9716L7.09546 21.2567L7.09767 21.264L8.05398 20.9716ZM9.77983 23.9886L9.10757 24.729L9.11228 24.7332L9.77983 23.9886ZM12.3917 28.5753C10.3611 28.5674 8.66983 28.0704 7.2725 27.1238L6.1508 28.7796C7.92392 29.9808 10.0168 30.5661 12.3839 30.5753L12.3917 28.5753ZM7.27457 27.1252C5.8818 26.1766 4.78029 24.7867 3.99069 22.8995L2.14568 23.6715C3.06062 25.8582 4.38809 27.5791 6.14873 28.7782L7.27457 27.1252ZM3.99206 22.9028C3.21162 21.0187 2.8071 18.7067 2.81534 15.9376L0.815345 15.9317C0.806541 18.8899 1.23724 21.4784 2.14431 23.6682L3.99206 22.9028ZM2.81534 15.9347C2.81534 13.1733 3.22397 10.8791 4.00312 9.02178L2.15882 8.24811C1.25047 10.4135 0.815341 12.9858 0.815341 15.9347H2.81534ZM4.00172 9.02509C4.78965 7.16558 5.88839 5.80216 7.27809 4.8782L6.17077 3.21271C4.40706 4.38534 3.07683 6.08158 2.16021 8.24479L4.00172 9.02509ZM7.27913 4.8775C8.67651 3.94592 10.3645 3.46023 12.3878 3.46023V1.46023C10.0304 1.46023 7.9428 2.03135 6.16973 3.2134L7.27913 4.8775ZM12.3878 3.46023C14.4112 3.46023 16.0938 3.94596 17.4816 4.87612L18.5951 3.21479C16.8295 2.03132 14.745 1.46023 12.3878 1.46023V3.46023ZM17.4837 4.87751C18.8834 5.8107 19.9863 7.17931 20.7739 9.03788L22.6154 8.25758C21.6983 6.09342 20.3637 4.39385 18.5931 3.2134L17.4837 4.87751ZM20.7744 9.03928C21.5599 10.885 21.9685 13.1719 21.9602 15.9317L23.9602 15.9376C23.969 12.9872 23.5339 10.4161 22.6148 8.25617L20.7744 9.03928ZM21.9602 15.9347C21.9602 18.7123 21.5476 21.0284 20.7593 22.9123L22.6043 23.6843C23.5206 21.4943 23.9602 18.9013 23.9602 15.9347H21.9602ZM20.7579 22.9156C19.9768 24.8013 18.8801 26.19 17.4882 27.138L18.6141 28.791C20.3756 27.5912 21.6993 25.8691 22.6057 23.681L20.7579 22.9156ZM17.4882 27.138C16.1018 28.0823 14.4174 28.5753 12.3878 28.5753V30.5753C14.7559 30.5753 16.8471 29.9944 18.6141 28.791L17.4882 27.138ZM12.3878 25.9858C14.3063 25.9858 15.8013 24.9845 16.8402 23.2332L15.1201 22.2128C14.3692 23.4786 13.4693 23.9858 12.3878 23.9858V25.9858ZM16.8402 23.2332C17.8717 21.4943 18.3184 19.0153 18.3097 15.9318L16.3097 15.9375C16.318 18.8881 15.8783 20.9347 15.1201 22.2128L16.8402 23.2332ZM18.3097 15.9347C18.3097 13.8883 18.0999 12.1272 17.6513 10.6786L15.7408 11.2702C16.1104 12.4637 16.3097 14.0094 16.3097 15.9347H18.3097ZM17.653 10.6843C17.219 9.2529 16.5711 8.07649 15.6505 7.25117L14.3154 8.74031C14.8778 9.24453 15.3719 10.0539 15.7391 11.2646L17.653 10.6843ZM15.6548 7.25502C14.7363 6.42197 13.6312 5.99858 12.3878 5.99858V7.99858C13.1387 7.99858 13.7637 8.23996 14.3111 8.73646L15.6548 7.25502ZM12.3878 5.99858C10.4811 5.99858 8.99083 6.98782 7.95075 8.7213L9.66573 9.75029C10.4154 8.50082 11.3115 7.99858 12.3878 7.99858V5.99858ZM7.95075 8.7213C6.91859 10.4416 6.46185 12.8897 6.45313 15.9318L8.45312 15.9375C8.46145 13.0308 8.90811 11.013 9.66573 9.75029L7.95075 8.7213ZM6.45312 15.9347C6.45312 18.0047 6.65835 19.7872 7.09549 21.2567L9.01247 20.6865C8.64847 19.4628 8.45312 17.8874 8.45312 15.9347H6.45312ZM7.09767 21.264C7.53948 22.709 8.19008 23.8958 9.10758 24.729L10.4521 23.2483C9.88662 22.7348 9.38666 21.9103 9.01028 20.6792L7.09767 21.264ZM9.11228 24.7332C10.0375 25.5627 11.1446 25.9858 12.3878 25.9858V23.9858C11.6366 23.9858 11.0051 23.7441 10.4474 23.2441L9.11228 24.7332ZM26.9073 29H25.9073V30H26.9073V29ZM26.9073 25.0114L26.2279 24.2776L25.9073 24.5744V25.0114H26.9073ZM36.2269 16.3821L36.9063 17.1159L36.9144 17.1084L36.9223 17.1007L36.2269 16.3821ZM38.2212 14.3111L37.4738 13.6467L37.4687 13.6526L38.2212 14.3111ZM39.4613 12.5085L40.3634 12.94L40.3658 12.9349L39.4613 12.5085ZM39.359 8.59659L38.5096 9.12429L38.5132 9.13009L39.359 8.59659ZM37.9272 7.3054L37.4749 8.19735L37.4851 8.20234L37.9272 7.3054ZM32.3917 8.72443L33.2734 9.19631L32.3917 8.72443ZM31.9059 10.8849V11.8849H32.9059V10.8849H31.9059ZM26.6516 10.8849H25.6516V11.8849H26.6516V10.8849ZM27.815 6.4233L28.6668 6.94707V6.94707L27.815 6.4233ZM31.0749 3.49574L30.6321 2.59913L30.6321 2.59913L31.0749 3.49574ZM40.8036 3.45739L40.372 4.35945L40.3786 4.36258L40.8036 3.45739ZM44.0636 6.19318L43.2306 6.74648L43.2306 6.74648L44.0636 6.19318ZM44.6389 13.1349L43.7126 12.7579L43.7098 12.765L44.6389 13.1349ZM42.5806 16.3438L43.3438 16.9899L43.3461 16.9872L42.5806 16.3438ZM38.4002 20.5497L37.7272 19.8101L37.7135 19.8225L37.7003 19.8355L38.4002 20.5497ZM34.5778 24.2955L33.8779 23.5812L33.5778 23.8753V24.2955H34.5778ZM34.5778 24.4744H33.5778V25.4744H34.5778V24.4744ZM45.5721 24.4744H46.5721V23.4744H45.5721V24.4744ZM45.5721 29V30H46.5721V29H45.5721ZM27.9073 29V25.0114H25.9073V29H27.9073ZM27.5867 25.7451L36.9063 17.1159L35.5475 15.6483L26.2279 24.2776L27.5867 25.7451ZM36.9223 17.1007C37.7284 16.3206 38.4136 15.6098 38.9738 14.9696L37.4687 13.6526C36.955 14.2396 36.3106 14.9095 35.5315 15.6635L36.9223 17.1007ZM38.9686 14.9754C39.561 14.3091 40.0329 13.6311 40.3634 12.94L38.5592 12.0771C38.3272 12.5621 37.9724 13.0858 37.4738 13.6467L38.9686 14.9754ZM40.3658 12.9349C40.7129 12.1987 40.8832 11.4089 40.8832 10.5781H38.8832C38.8832 11.1281 38.7722 11.6251 38.5568 12.0821L40.3658 12.9349ZM40.8832 10.5781C40.8832 9.6551 40.6712 8.80245 40.2048 8.06309L38.5132 9.13009C38.7457 9.49868 38.8832 9.96705 38.8832 10.5781H40.8832ZM40.2085 8.06891C39.7585 7.34457 39.1387 6.78773 38.3694 6.40846L37.4851 8.20234C37.9259 8.41965 38.2607 8.72361 38.5096 9.12427L40.2085 8.06891ZM38.3794 6.4135C37.6168 6.02681 36.7725 5.84517 35.869 5.84517V7.84517C36.4996 7.84517 37.0274 7.97035 37.475 8.1973L38.3794 6.4135ZM35.869 5.84517C34.9312 5.84517 34.0626 6.03555 33.2953 6.45211L34.2495 8.20982C34.6753 7.97866 35.2044 7.84517 35.869 7.84517V5.84517ZM33.2953 6.45211C32.525 6.87029 31.925 7.4772 31.51 8.25255L33.2734 9.19631C33.5061 8.76144 33.8266 8.43937 34.2495 8.20982L33.2953 6.45211ZM31.51 8.25255C31.0933 9.0311 30.9059 9.92045 30.9059 10.8849H32.9059C32.9059 10.179 33.0423 9.62799 33.2734 9.19631L31.51 8.25255ZM31.9059 9.88494H26.6516V11.8849H31.9059V9.88494ZM27.6516 10.8849C27.6516 9.32726 28.0025 8.0275 28.6668 6.94707L26.9631 5.89952C26.0763 7.34182 25.6516 9.01648 25.6516 10.8849H27.6516ZM28.6668 6.94707C29.3385 5.85463 30.2794 5.00397 31.5178 4.39234L30.6321 2.59913C29.075 3.36819 27.8426 4.46923 26.9631 5.89952L28.6668 6.94707ZM31.5178 4.39234C32.7562 3.78067 34.211 3.46023 35.9073 3.46023V1.46023C33.9559 1.46023 32.1891 1.83012 30.6321 2.59913L31.5178 4.39234ZM35.9073 3.46023C37.6648 3.46023 39.1436 3.77163 40.372 4.35943L41.2353 2.55535C39.6852 1.8136 37.8998 1.46023 35.9073 1.46023V3.46023ZM40.3786 4.36258C41.6281 4.94921 42.5664 5.7465 43.2306 6.74648L44.8965 5.63988C44.0096 4.30464 42.7746 3.27806 41.2286 2.55219L40.3786 4.36258ZM43.2306 6.74648C43.8889 7.7375 44.2269 8.88 44.2269 10.2074H46.2269C46.2269 8.51772 45.7894 6.98409 44.8965 5.63988L43.2306 6.74648ZM44.2269 10.2074C44.2269 11.0601 44.0585 11.9083 43.7127 12.7579L45.565 13.512C46.0033 12.4355 46.2269 11.3319 46.2269 10.2074H44.2269ZM43.7098 12.765C43.38 13.5932 42.7649 14.5705 41.8151 15.7003L43.3461 16.9872C44.3736 15.7648 45.1307 14.6028 45.5679 13.5049L43.7098 12.765ZM41.8174 15.6976C40.8681 16.8187 39.5097 18.1881 37.7272 19.8101L39.0732 21.2893C40.8873 19.6386 42.3158 18.204 43.3438 16.9899L41.8174 15.6976ZM37.7003 19.8355L33.8779 23.5812L35.2777 25.0097L39.1001 21.264L37.7003 19.8355ZM33.5778 24.2955V24.4744H35.5778V24.2955H33.5778ZM34.5778 25.4744H45.5721V23.4744H34.5778V25.4744ZM44.5721 24.4744V29H46.5721V24.4744H44.5721ZM45.5721 28H26.9073V30H45.5721V28Z" fill="#9E9E9E" mask="url(#path-1-outside-1_849_33788)"/>
</svg>
