<svg width="45" height="28" viewBox="0 0 45 28" fill="none" xmlns="http://www.w3.org/2000/svg">
<path d="M11.3878 27.8253L11.3839 28.8253H11.3878V27.8253ZM5.71165 26.2017L5.14873 27.0282L5.1508 27.0296L5.71165 26.2017ZM2.06818 21.5355L1.1443 21.9182L1.14568 21.9215L2.06818 21.5355ZM0.815341 14.1847L1.81534 14.1876V14.1847H0.815341ZM2.08097 6.88494L1.16021 6.49479L1.15882 6.49811L2.08097 6.88494ZM5.72443 2.29545L6.27809 3.1282L6.27913 3.1275L5.72443 2.29545ZM17.0384 2.29545L16.4816 3.12612L16.4837 3.12751L17.0384 2.29545ZM20.6946 6.89773L19.7739 7.28788L19.7744 7.28928L20.6946 6.89773ZM21.9602 14.1847L20.9602 14.1817V14.1847H21.9602ZM20.6818 21.5483L19.7593 21.1623L19.7579 21.1656L20.6818 21.5483ZM17.0511 26.2145L17.6141 27.041L17.0511 26.2145ZM14.9801 20.973L15.8402 21.4832L14.9801 20.973ZM16.3097 14.1847H15.3097L15.3097 14.1875L16.3097 14.1847ZM15.696 9.22443L14.739 9.51461L14.7408 9.52025L15.696 9.22443ZM13.983 6.24574L13.3111 6.98647L13.3154 6.99031L13.983 6.24574ZM7.80824 7.4858L6.95075 6.9713H6.95075L7.80824 7.4858ZM6.45312 14.1847L5.45312 14.1818V14.1847H6.45312ZM7.05398 19.2216L6.09546 19.5067L6.09767 19.514L7.05398 19.2216ZM8.77983 22.2386L8.10757 22.979L8.11228 22.9832L8.77983 22.2386ZM11.3917 26.8253C9.36108 26.8174 7.66983 26.3204 6.2725 25.3738L5.1508 27.0296C6.92392 28.2308 9.01676 28.8161 11.3839 28.8253L11.3917 26.8253ZM6.27457 25.3752C4.8818 24.4266 3.78029 23.0367 2.99069 21.1495L1.14568 21.9215C2.06062 24.1082 3.38809 25.8291 5.14873 27.0282L6.27457 25.3752ZM2.99206 21.1528C2.21162 19.2687 1.8071 16.9567 1.81534 14.1876L-0.184655 14.1817C-0.193459 17.1399 0.237239 19.7284 1.14431 21.9182L2.99206 21.1528ZM1.81534 14.1847C1.81534 11.4233 2.22397 9.12914 3.00312 7.27178L1.15882 6.49811C0.250465 8.66347 -0.184659 11.2358 -0.184659 14.1847H1.81534ZM3.00172 7.27509C3.78965 5.41558 4.88839 4.05216 6.27809 3.1282L5.17077 1.46271C3.40706 2.63534 2.07683 4.33158 1.16021 6.49479L3.00172 7.27509ZM6.27913 3.1275C7.67651 2.19592 9.36449 1.71023 11.3878 1.71023V-0.289774C9.0304 -0.289774 6.9428 0.281355 5.16973 1.4634L6.27913 3.1275ZM11.3878 1.71023C13.4112 1.71023 15.0938 2.19596 16.4816 3.12612L17.5951 1.46479C15.8295 0.281316 13.745 -0.289774 11.3878 -0.289774V1.71023ZM16.4837 3.12751C17.8834 4.0607 18.9863 5.42931 19.7739 7.28788L21.6154 6.50758C20.6983 4.34342 19.3637 2.64385 17.5931 1.4634L16.4837 3.12751ZM19.7744 7.28928C20.5599 9.13503 20.9685 11.4219 20.9602 14.1817L22.9602 14.1876C22.969 11.2372 22.5339 8.66611 21.6148 6.50617L19.7744 7.28928ZM20.9602 14.1847C20.9602 16.9623 20.5476 19.2784 19.7593 21.1623L21.6043 21.9343C22.5206 19.7443 22.9602 17.1513 22.9602 14.1847H20.9602ZM19.7579 21.1656C18.9768 23.0513 17.8801 24.44 16.4882 25.388L17.6141 27.041C19.3756 25.8412 20.6993 24.1191 21.6057 21.931L19.7579 21.1656ZM16.4882 25.388C15.1018 26.3323 13.4174 26.8253 11.3878 26.8253V28.8253C13.7559 28.8253 15.8471 28.2444 17.6141 27.041L16.4882 25.388ZM11.3878 24.2358C13.3063 24.2358 14.8013 23.2345 15.8402 21.4832L14.1201 20.4628C13.3692 21.7286 12.4693 22.2358 11.3878 22.2358V24.2358ZM15.8402 21.4832C16.8717 19.7443 17.3184 17.2653 17.3097 14.1818L15.3097 14.1875C15.318 17.1381 14.8783 19.1847 14.1201 20.4628L15.8402 21.4832ZM17.3097 14.1847C17.3097 12.1383 17.0999 10.3772 16.6513 8.92861L14.7408 9.52025C15.1104 10.7137 15.3097 12.2594 15.3097 14.1847H17.3097ZM16.653 8.93425C16.219 7.5029 15.5711 6.32649 14.6505 5.50117L13.3154 6.99031C13.8778 7.49453 14.3719 8.30392 14.7391 9.51461L16.653 8.93425ZM14.6548 5.50502C13.7363 4.67197 12.6312 4.24858 11.3878 4.24858V6.24858C12.1387 6.24858 12.7637 6.48996 13.3111 6.98646L14.6548 5.50502ZM11.3878 4.24858C9.4811 4.24858 7.99083 5.23782 6.95075 6.9713L8.66573 8.00029C9.41542 6.75082 10.3115 6.24858 11.3878 6.24858V4.24858ZM6.95075 6.9713C5.91859 8.69156 5.46185 11.1397 5.45313 14.1818L7.45312 14.1875C7.46145 11.2808 7.90811 9.26299 8.66573 8.00029L6.95075 6.9713ZM5.45312 14.1847C5.45312 16.2547 5.65835 18.0372 6.09549 19.5067L8.01247 18.9365C7.64847 17.7128 7.45312 16.1374 7.45312 14.1847H5.45312ZM6.09767 19.514C6.53948 20.959 7.19008 22.1458 8.10758 22.979L9.45208 21.4983C8.88662 20.9848 8.38666 20.1603 8.01028 18.9292L6.09767 19.514ZM8.11228 22.9832C9.03748 23.8127 10.1446 24.2358 11.3878 24.2358V22.2358C10.6366 22.2358 10.0051 21.9941 9.44738 21.4941L8.11228 22.9832ZM25.9073 27.25H24.9073V28.25H25.9073V27.25ZM25.9073 23.2614L25.2279 22.5276L24.9073 22.8244V23.2614H25.9073ZM35.2269 14.6321L35.9063 15.3659L35.9144 15.3584L35.9223 15.3507L35.2269 14.6321ZM37.2212 12.5611L36.4738 11.8967L36.4687 11.9026L37.2212 12.5611ZM38.4613 10.7585L39.3634 11.19L39.3658 11.1849L38.4613 10.7585ZM38.359 6.84659L37.5096 7.37429L37.5132 7.38009L38.359 6.84659ZM36.9272 5.5554L36.4749 6.44735L36.4851 6.45234L36.9272 5.5554ZM31.3917 6.97443L32.2734 7.44631L31.3917 6.97443ZM30.9059 9.13494V10.1349H31.9059V9.13494H30.9059ZM25.6516 9.13494H24.6516V10.1349H25.6516V9.13494ZM26.815 4.6733L27.6668 5.19707V5.19707L26.815 4.6733ZM30.0749 1.74574L29.6321 0.849133L29.6321 0.849134L30.0749 1.74574ZM39.8036 1.70739L39.372 2.60945L39.3786 2.61258L39.8036 1.70739ZM43.0636 4.44318L42.2306 4.99648L42.2306 4.99648L43.0636 4.44318ZM43.6389 11.3849L42.7126 11.0079L42.7098 11.015L43.6389 11.3849ZM41.5806 14.5938L42.3438 15.2399L42.3461 15.2372L41.5806 14.5938ZM37.4002 18.7997L36.7272 18.0601L36.7135 18.0725L36.7003 18.0855L37.4002 18.7997ZM33.5778 22.5455L32.8779 21.8312L32.5778 22.1253V22.5455H33.5778ZM33.5778 22.7244H32.5778V23.7244H33.5778V22.7244ZM44.5721 22.7244H45.5721V21.7244H44.5721V22.7244ZM44.5721 27.25V28.25H45.5721V27.25H44.5721ZM26.9073 27.25V23.2614H24.9073V27.25H26.9073ZM26.5867 23.9951L35.9063 15.3659L34.5475 13.8983L25.2279 22.5276L26.5867 23.9951ZM35.9223 15.3507C36.7284 14.5706 37.4136 13.8598 37.9738 13.2196L36.4687 11.9026C35.955 12.4896 35.3106 13.1595 34.5315 13.9135L35.9223 15.3507ZM37.9686 13.2254C38.561 12.5591 39.0329 11.8811 39.3634 11.19L37.5592 10.3271C37.3272 10.8121 36.9724 11.3358 36.4738 11.8967L37.9686 13.2254ZM39.3658 11.1849C39.7129 10.4487 39.8832 9.65885 39.8832 8.82812H37.8832C37.8832 9.37808 37.7722 9.87511 37.5568 10.3321L39.3658 11.1849ZM39.8832 8.82812C39.8832 7.9051 39.6712 7.05245 39.2048 6.31309L37.5132 7.38009C37.7457 7.74868 37.8832 8.21705 37.8832 8.82812H39.8832ZM39.2085 6.31891C38.7585 5.59457 38.1387 5.03773 37.3694 4.65846L36.4851 6.45234C36.9259 6.66965 37.2607 6.97361 37.5096 7.37427L39.2085 6.31891ZM37.3794 4.6635C36.6168 4.27681 35.7725 4.09517 34.869 4.09517V6.09517C35.4996 6.09517 36.0274 6.22035 36.475 6.4473L37.3794 4.6635ZM34.869 4.09517C33.9312 4.09517 33.0626 4.28555 32.2953 4.70211L33.2495 6.45982C33.6753 6.22866 34.2044 6.09517 34.869 6.09517V4.09517ZM32.2953 4.70211C31.525 5.12029 30.925 5.7272 30.51 6.50255L32.2734 7.44631C32.5061 7.01144 32.8266 6.68937 33.2495 6.45982L32.2953 4.70211ZM30.51 6.50255C30.0933 7.2811 29.9059 8.17045 29.9059 9.13494H31.9059C31.9059 8.42898 32.0423 7.87799 32.2734 7.44631L30.51 6.50255ZM30.9059 8.13494H25.6516V10.1349H30.9059V8.13494ZM26.6516 9.13494C26.6516 7.57726 27.0025 6.2775 27.6668 5.19707L25.9631 4.14952C25.0763 5.59182 24.6516 7.26648 24.6516 9.13494H26.6516ZM27.6668 5.19707C28.3385 4.10463 29.2794 3.25397 30.5178 2.64234L29.6321 0.849134C28.075 1.61819 26.8426 2.71923 25.9631 4.14952L27.6668 5.19707ZM30.5178 2.64234C31.7562 2.03067 33.211 1.71023 34.9073 1.71023V-0.289774C32.9559 -0.289774 31.1891 0.0801244 29.6321 0.849133L30.5178 2.64234ZM34.9073 1.71023C36.6648 1.71023 38.1436 2.02163 39.372 2.60943L40.2353 0.805346C38.6852 0.0635977 36.8998 -0.289774 34.9073 -0.289774V1.71023ZM39.3786 2.61258C40.6281 3.19921 41.5664 3.9965 42.2306 4.99648L43.8965 3.88988C43.0096 2.55464 41.7746 1.52806 40.2286 0.802192L39.3786 2.61258ZM42.2306 4.99648C42.8889 5.9875 43.2269 7.13 43.2269 8.45739H45.2269C45.2269 6.76772 44.7894 5.23409 43.8965 3.88988L42.2306 4.99648ZM43.2269 8.45739C43.2269 9.31013 43.0585 10.1583 42.7127 11.0079L44.565 11.762C45.0033 10.6855 45.2269 9.58191 45.2269 8.45739H43.2269ZM42.7098 11.015C42.38 11.8432 41.7649 12.8205 40.8151 13.9503L42.3461 15.2372C43.3736 14.0148 44.1307 12.8528 44.5679 11.7549L42.7098 11.015ZM40.8174 13.9476C39.8681 15.0687 38.5097 16.4381 36.7272 18.0601L38.0732 19.5393C39.8873 17.8886 41.3158 16.454 42.3438 15.2399L40.8174 13.9476ZM36.7003 18.0855L32.8779 21.8312L34.2777 23.2597L38.1001 19.514L36.7003 18.0855ZM32.5778 22.5455V22.7244H34.5778V22.5455H32.5778ZM33.5778 23.7244H44.5721V21.7244H33.5778V23.7244ZM43.5721 22.7244V27.25H45.5721V22.7244H43.5721ZM44.5721 26.25H25.9073V28.25H44.5721V26.25Z" fill="#9E9E9E"/>
</svg>
