<svg width="370" height="243" viewBox="0 0 370 243" fill="none" xmlns="http://www.w3.org/2000/svg">
<rect y="0.25" width="370" height="242" rx="8" fill="#EFF3F8"/>
<path d="M68 85.4062C77.6305 85.4062 85.4375 77.5992 85.4375 67.9688C85.4375 58.3383 77.6305 50.5312 68 50.5312C58.3695 50.5312 50.5625 58.3383 50.5625 67.9688C50.5625 77.5992 58.3695 85.4062 68 85.4062Z" fill="url(#paint0_linear_692_18501)"/>
<path d="M67.9998 84.0982C76.908 84.0982 84.1295 76.8767 84.1295 67.9686C84.1295 59.0604 76.908 51.8389 67.9998 51.8389C59.0916 51.8389 51.8701 59.0604 51.8701 67.9686C51.8701 76.8767 59.0916 84.0982 67.9998 84.0982Z" fill="url(#paint1_radial_692_18501)"/>
<path d="M68.0276 55.7624C67.9186 55.7624 67.8232 55.6806 67.8232 55.5716V52.7244C67.8232 52.6154 67.9186 52.5337 68.0276 52.5337C68.1366 52.5337 68.2319 52.6154 68.2319 52.7244V55.5716C68.2183 55.6806 68.1366 55.7624 68.0276 55.7624Z" fill="#F3F3F3"/>
<path d="M68.0275 55.7759C67.9049 55.7759 67.8096 55.6806 67.8096 55.5716V52.7244C67.8096 52.6154 67.9049 52.52 68.0275 52.52C68.1501 52.52 68.2455 52.6154 68.2455 52.7244V55.5716C68.2455 55.6806 68.1365 55.7759 68.0275 55.7759ZM68.0275 52.5473C67.9322 52.5473 67.8368 52.629 67.8368 52.7244V55.5716C67.8368 55.6669 67.9186 55.7487 68.0275 55.7487C68.1229 55.7487 68.2183 55.6669 68.2183 55.5716V52.7244C68.2046 52.629 68.1229 52.5473 68.0275 52.5473Z" fill="white"/>
<path d="M69.3899 54.2368C69.281 54.2232 69.1992 54.1414 69.1992 54.0324L69.2946 52.7655C69.3082 52.6565 69.4036 52.5748 69.5125 52.5884C69.6215 52.602 69.7033 52.6838 69.7033 52.7927L69.6079 54.0597C69.5943 54.1687 69.4989 54.2504 69.3899 54.2368Z" fill="#F3F3F3"/>
<path d="M69.3899 54.2502C69.2673 54.2366 69.1855 54.1412 69.1855 54.0322L69.2809 52.7653C69.2945 52.6563 69.3899 52.5609 69.5125 52.5745C69.6351 52.5882 69.7168 52.6835 69.7168 52.7925L69.6215 54.0595C69.6079 54.1821 69.5125 54.2638 69.3899 54.2502ZM69.5125 52.6018C69.4171 52.6018 69.3218 52.6699 69.3218 52.7653L69.2264 54.0322C69.2264 54.1276 69.2945 54.2093 69.4035 54.2229C69.4989 54.2229 69.5942 54.1548 69.5942 54.0595L69.6896 52.7925C69.6896 52.6972 69.6079 52.6154 69.5125 52.6018Z" fill="white"/>
<path d="M70.4113 56.0073C70.3023 55.9801 70.2342 55.8847 70.2478 55.7757L70.8064 52.983C70.8336 52.874 70.929 52.8059 71.038 52.8332C71.1469 52.8604 71.2151 52.9558 71.2014 53.0647L70.6429 55.8575C70.6293 55.9528 70.5203 56.0209 70.4113 56.0073Z" fill="#F3F3F3"/>
<path d="M70.4112 56.0211C70.2886 55.9939 70.2205 55.8849 70.2341 55.7759L70.7927 52.9832C70.8199 52.8742 70.9289 52.7925 71.0515 52.8197C71.1741 52.847 71.2422 52.956 71.2286 53.0649L70.6701 55.8577C70.6428 55.9667 70.5338 56.0348 70.4112 56.0211ZM71.0515 52.847C70.9562 52.8334 70.8608 52.8878 70.8336 52.9832L70.275 55.7759C70.2614 55.8713 70.3159 55.9667 70.4249 55.9939C70.5202 56.0075 70.6156 55.953 70.6428 55.8577L71.2014 53.0649C71.215 52.956 71.1469 52.8742 71.0515 52.847Z" fill="white"/>
<path d="M72.0465 54.7815C71.9375 54.7542 71.8694 54.6452 71.8966 54.5362L72.2372 53.3102C72.2645 53.2012 72.3734 53.1467 72.4824 53.1739C72.5914 53.2012 72.6595 53.3102 72.6323 53.4192L72.2917 54.6452C72.2645 54.7542 72.1555 54.8087 72.0465 54.7815Z" fill="#F3F3F3"/>
<path d="M72.0463 54.7951C71.9373 54.7678 71.8556 54.6452 71.8965 54.5362L72.237 53.3102C72.2643 53.2012 72.3869 53.1331 72.4959 53.1603C72.6048 53.1876 72.6866 53.3102 72.6457 53.4191L72.3051 54.6452C72.2779 54.7542 72.1689 54.8223 72.0463 54.7951ZM72.4959 53.2012C72.4005 53.1739 72.2915 53.2284 72.2643 53.3238L71.9237 54.5499C71.8964 54.6452 71.9509 54.7406 72.0599 54.7678C72.1553 54.7951 72.2643 54.7406 72.2915 54.6452L72.6321 53.4191C72.6457 53.3238 72.5912 53.2284 72.4959 53.2012Z" fill="white"/>
<path d="M72.7134 56.7024C72.6044 56.6615 72.5635 56.5389 72.6044 56.4435L73.6943 53.8143C73.7351 53.7189 73.8577 53.6644 73.9531 53.7189C74.0621 53.7598 74.1029 53.8824 74.0621 53.9778L72.9722 56.607C72.9314 56.7024 72.8088 56.7569 72.7134 56.7024Z" fill="#F3F3F3"/>
<path d="M72.7133 56.7157C72.6043 56.6748 72.5498 56.5522 72.5907 56.4432L73.6806 53.814C73.7214 53.705 73.844 53.6641 73.9666 53.705C74.0756 53.7459 74.1301 53.8685 74.0893 53.9775L72.9994 56.6067C72.9449 56.7157 72.8223 56.7702 72.7133 56.7157ZM73.953 53.7322C73.8577 53.6914 73.7487 53.7322 73.7078 53.8276L72.618 56.4569C72.5771 56.5522 72.6316 56.6476 72.7269 56.6884C72.8223 56.7293 72.9313 56.6884 72.9722 56.5931L74.062 53.9638C74.0893 53.8821 74.0484 53.7731 73.953 53.7322Z" fill="white"/>
<path d="M74.5525 55.8307C74.4572 55.7762 74.4163 55.6672 74.4572 55.5718L75.0294 54.4411C75.0838 54.3457 75.1928 54.3049 75.3018 54.3594C75.3972 54.4139 75.438 54.5228 75.3972 54.6182L74.825 55.7489C74.7705 55.8443 74.6615 55.8851 74.5525 55.8307Z" fill="#F3F3F3"/>
<path d="M74.553 55.8438C74.444 55.7893 74.4031 55.6667 74.4576 55.5577L75.0298 54.427C75.0843 54.318 75.2069 54.2772 75.3159 54.3316C75.4249 54.3861 75.4657 54.5087 75.4112 54.6177L74.8391 55.7484C74.7846 55.8574 74.662 55.8983 74.553 55.8438ZM75.3023 54.3589C75.2069 54.318 75.0979 54.3453 75.057 54.4406L74.4849 55.5713C74.444 55.6531 74.4849 55.7621 74.5666 55.8166C74.662 55.8574 74.771 55.8302 74.8118 55.7348L75.384 54.6041C75.4249 54.5224 75.384 54.4134 75.3023 54.3589Z" fill="white"/>
<path d="M74.8257 57.8465C74.7304 57.7784 74.7031 57.6557 74.7712 57.574L76.3515 55.2172C76.406 55.1219 76.5286 55.1082 76.624 55.1627C76.7193 55.2308 76.7466 55.3535 76.6785 55.4352L75.0982 57.792C75.0437 57.8873 74.9211 57.9146 74.8257 57.8465Z" fill="#F3F3F3"/>
<path d="M74.8254 57.8602C74.73 57.792 74.7028 57.6558 74.7573 57.5604L76.3375 55.2037C76.4057 55.1083 76.5283 55.0811 76.6372 55.1492C76.7326 55.2173 76.7599 55.3535 76.7054 55.4489L75.1251 57.8057C75.057 57.901 74.9207 57.9283 74.8254 57.8602ZM76.6236 55.1764C76.5419 55.1219 76.4193 55.1355 76.3648 55.2173L74.7845 57.5741C74.73 57.6558 74.7573 57.7648 74.839 57.8193C74.9207 57.8738 75.0433 57.8602 75.0978 57.7784L76.6781 55.4352C76.7326 55.3535 76.7054 55.2309 76.6236 55.1764Z" fill="white"/>
<path d="M76.8139 57.3427C76.7321 57.2746 76.7049 57.152 76.773 57.0702L77.5631 56.0757C77.6312 55.994 77.7538 55.9804 77.8356 56.0485C77.9173 56.1166 77.9446 56.2392 77.8764 56.321L77.0863 57.3154C77.0182 57.3972 76.8956 57.4108 76.8139 57.3427Z" fill="#F3F3F3"/>
<path d="M76.8002 57.3561C76.7049 57.2879 76.6913 57.1517 76.7594 57.0564L77.5495 56.0619C77.6176 55.9665 77.7539 55.9529 77.8492 56.0346C77.9446 56.1027 77.9582 56.239 77.8901 56.3343L77.0999 57.3288C77.0318 57.4242 76.8956 57.4378 76.8002 57.3561ZM77.822 56.0619C77.7402 55.9938 77.6312 56.0074 77.5631 56.0891L76.773 57.0836C76.7185 57.1653 76.7321 57.2743 76.8139 57.3424C76.8956 57.4106 77.0046 57.3969 77.0727 57.3152L77.8628 56.3207C77.9173 56.239 77.9037 56.1164 77.822 56.0619Z" fill="white"/>
<path d="M76.6785 59.386C76.5968 59.3043 76.5968 59.1817 76.6785 59.1136L78.6947 57.111C78.7764 57.0293 78.899 57.0429 78.9672 57.111C79.0353 57.1791 79.0489 57.3153 78.9672 57.3835L76.9646 59.386C76.8828 59.4678 76.7602 59.4678 76.6785 59.386Z" fill="#F3F3F3"/>
<path d="M76.6648 59.3997C76.5831 59.318 76.5831 59.1818 76.6648 59.1L78.681 57.0974C78.7628 57.0157 78.899 57.0157 78.9807 57.0974C79.0625 57.1792 79.0625 57.3154 78.9807 57.3971L76.9645 59.3997C76.8828 59.4815 76.7466 59.4815 76.6648 59.3997ZM78.9671 57.1111C78.899 57.0429 78.7764 57.0429 78.7083 57.1111L76.6921 59.1136C76.6239 59.1818 76.6239 59.3044 76.6921 59.3725C76.7602 59.4406 76.8828 59.4406 76.9509 59.3725L78.9671 57.3699C79.0352 57.3018 79.0352 57.1928 78.9671 57.1111Z" fill="white"/>
<path d="M78.7214 59.277C78.6533 59.1953 78.6533 59.0727 78.735 59.0046L79.7022 58.1872C79.784 58.1191 79.9066 58.1327 79.9747 58.2144C80.0428 58.2962 80.0428 58.4188 79.9611 58.4869L78.9938 59.3043C78.9121 59.3724 78.7895 59.3587 78.7214 59.277Z" fill="#F3F3F3"/>
<path d="M78.7082 59.2909C78.6265 59.1955 78.6401 59.0593 78.7219 58.9912L79.6891 58.1738C79.7708 58.092 79.9071 58.1057 79.9888 58.201C80.0705 58.2964 80.0569 58.4326 79.9752 58.5007L79.0079 59.3181C78.9262 59.3999 78.79 59.3862 78.7082 59.2909ZM79.9616 58.2147C79.8934 58.1329 79.7845 58.1329 79.7027 58.1874L78.7355 59.0048C78.6674 59.0729 78.6537 59.1819 78.7219 59.2636C78.79 59.3454 78.899 59.3454 78.9807 59.2909L79.9479 58.4735C80.0297 58.4054 80.0297 58.2964 79.9616 58.2147Z" fill="white"/>
<path d="M78.1765 61.2385C78.1084 61.1431 78.1356 61.0205 78.231 60.966L80.6014 59.3858C80.6968 59.3313 80.8194 59.3585 80.8739 59.4403C80.942 59.5356 80.9147 59.6582 80.8194 59.7127L78.449 61.293C78.3672 61.3475 78.2446 61.3202 78.1765 61.2385Z" fill="#F3F3F3"/>
<path d="M78.1628 61.2389C78.0947 61.1435 78.122 61.0073 78.2173 60.9392L80.5877 59.3589C80.6831 59.2908 80.8193 59.318 80.8874 59.427C80.9556 59.5224 80.9283 59.6586 80.833 59.7267L78.4625 61.307C78.3672 61.3751 78.231 61.3479 78.1628 61.2389ZM80.8602 59.4543C80.8057 59.3725 80.6967 59.3453 80.615 59.3998L78.2446 60.9801C78.1628 61.0345 78.1356 61.1435 78.2037 61.2389C78.2582 61.3206 78.3672 61.3479 78.4489 61.2934L80.8193 59.7131C80.9011 59.645 80.9147 59.536 80.8602 59.4543Z" fill="white"/>
<path d="M80.2065 61.5246C80.152 61.4292 80.1792 61.3066 80.2746 61.2521L81.3781 60.6255C81.4734 60.571 81.596 60.6119 81.6505 60.7072C81.705 60.8026 81.6778 60.9252 81.5824 60.9797L80.4789 61.6063C80.3836 61.6608 80.261 61.62 80.2065 61.5246Z" fill="#F3F3F3"/>
<path d="M80.1928 61.5382C80.1383 61.4292 80.1656 61.3066 80.2609 61.2521L81.3644 60.6255C81.4598 60.571 81.596 60.6119 81.6505 60.7072C81.705 60.8162 81.6777 60.9388 81.5824 60.9933L80.4789 61.62C80.3835 61.6745 80.2473 61.6336 80.1928 61.5382ZM81.6369 60.7208C81.5824 60.6255 81.4734 60.5982 81.3916 60.6527L80.2882 61.2794C80.2064 61.3339 80.1792 61.4429 80.2201 61.5246C80.2746 61.62 80.3835 61.6472 80.4653 61.5927L81.5687 60.9661C81.6505 60.9252 81.6777 60.8162 81.6369 60.7208Z" fill="white"/>
<path d="M79.2939 63.3365C79.253 63.2275 79.2939 63.1186 79.4029 63.0777L82.0321 61.9879C82.1275 61.947 82.2501 62.0015 82.2909 62.0968C82.3318 62.2058 82.2909 62.3148 82.182 62.3557L79.5527 63.4455C79.4573 63.4864 79.3347 63.4455 79.2939 63.3365Z" fill="#F3F3F3"/>
<path d="M79.2802 63.3504C79.2393 63.2415 79.2802 63.1188 79.3892 63.0644L82.0184 61.9745C82.1274 61.9336 82.25 61.9881 82.2909 62.0971C82.3318 62.2061 82.2909 62.3287 82.1819 62.3832L79.5527 63.473C79.4437 63.5139 79.3211 63.4594 79.2802 63.3504ZM82.2636 62.1107C82.2228 62.0154 82.1138 61.9745 82.0321 62.0018L79.4028 63.0916C79.3074 63.1325 79.2666 63.2415 79.3074 63.3368C79.3483 63.4322 79.4573 63.473 79.539 63.4458L82.1683 62.356C82.2636 62.3151 82.3045 62.2061 82.2636 62.1107Z" fill="white"/>
<path d="M81.2147 64.0181C81.1739 63.9091 81.2284 63.8001 81.3373 63.7592L82.5362 63.3642C82.6315 63.3233 82.7541 63.3914 82.7814 63.4868C82.8223 63.5957 82.7678 63.7047 82.6588 63.7456L81.46 64.1407C81.3646 64.1815 81.2556 64.127 81.2147 64.0181Z" fill="#F3F3F3"/>
<path d="M81.2009 64.0316C81.16 63.9226 81.2145 63.8 81.3371 63.7591L82.536 63.364C82.645 63.3232 82.7676 63.3913 82.8084 63.5003C82.8493 63.6093 82.7948 63.7319 82.6722 63.7727L81.4734 64.1678C81.3644 64.195 81.2418 64.1406 81.2009 64.0316ZM82.7812 63.5139C82.7539 63.4185 82.645 63.364 82.5496 63.3913L81.3508 63.7864C81.2554 63.8136 81.2145 63.9226 81.2418 64.0179C81.269 64.1133 81.378 64.1678 81.4734 64.1406L82.6722 63.7455C82.7676 63.7046 82.8084 63.6093 82.7812 63.5139Z" fill="white"/>
<path d="M79.9884 65.6387C79.9612 65.5297 80.0293 65.4208 80.1383 65.4071L82.931 64.8622C83.04 64.835 83.1354 64.9167 83.1626 65.0257C83.1898 65.1347 83.1217 65.2437 83.0127 65.2573L80.22 65.8022C80.111 65.8158 80.0021 65.7477 79.9884 65.6387Z" fill="#F3F3F3"/>
<path d="M79.9613 65.6391C79.9341 65.5165 80.0158 65.4075 80.1248 65.3803L82.9175 64.8353C83.0265 64.8081 83.1355 64.8898 83.1628 65.0124C83.19 65.135 83.1083 65.244 82.9993 65.2713L80.2066 65.8162C80.0976 65.8434 79.9886 65.7617 79.9613 65.6391ZM83.1355 65.0261C83.1219 64.9307 83.0265 64.8626 82.9312 64.8762L80.1384 65.4211C80.0431 65.4347 79.975 65.5437 80.0022 65.6391C80.0158 65.7344 80.1112 65.8026 80.2066 65.7889L82.9993 65.244C83.0946 65.2168 83.1628 65.1214 83.1355 65.0261Z" fill="white"/>
<path d="M81.7322 66.6882C81.7186 66.5792 81.7867 66.4838 81.8957 66.4702L83.149 66.3203C83.258 66.3067 83.3533 66.3884 83.367 66.4974C83.3806 66.6064 83.3125 66.7018 83.2035 66.7154L81.9502 66.8653C81.8548 66.8789 81.7458 66.7971 81.7322 66.6882Z" fill="#F3F3F3"/>
<path d="M81.7183 66.6881C81.7047 66.5654 81.7864 66.4565 81.8954 66.4428L83.1487 66.293C83.2577 66.2794 83.3667 66.3611 83.3803 66.4837C83.3939 66.6063 83.3122 66.7153 83.2032 66.7289L81.9499 66.8788C81.8409 66.8924 81.7319 66.8107 81.7183 66.6881ZM83.3667 66.4973C83.353 66.402 83.2577 66.3202 83.1623 66.3339L81.909 66.4837C81.8136 66.4973 81.7455 66.5927 81.7592 66.6881C81.7728 66.7834 81.8681 66.8652 81.9635 66.8515L83.2168 66.7017C83.3122 66.6881 83.3803 66.5927 83.3667 66.4973Z" fill="white"/>
<path d="M80.2061 68.009C80.2061 67.9 80.2878 67.8047 80.3968 67.8047H83.244C83.353 67.8047 83.4347 67.9 83.4347 68.009C83.4347 68.118 83.353 68.2134 83.244 68.2134H80.3968C80.2878 68.2134 80.2061 68.118 80.2061 68.009Z" fill="#F3F3F3"/>
<path d="M80.1924 68.0095C80.1924 67.8869 80.2877 67.7915 80.3967 67.7915H83.2439C83.3529 67.7915 83.4483 67.8869 83.4483 68.0095C83.4483 68.1321 83.3529 68.2274 83.2439 68.2274H80.3967C80.2877 68.2274 80.1924 68.1321 80.1924 68.0095ZM83.421 68.0231C83.421 67.9277 83.3393 67.8324 83.2439 67.8324H80.3967C80.3014 67.8324 80.2196 67.9141 80.2196 68.0231C80.2196 68.1185 80.3014 68.2138 80.3967 68.2138H83.2439C83.3393 68.2002 83.421 68.1185 83.421 68.0231Z" fill="white"/>
<path d="M81.7188 69.3851C81.7324 69.2761 81.8141 69.1943 81.9231 69.1943L83.19 69.2897C83.299 69.3033 83.3808 69.3987 83.3671 69.5077C83.3535 69.6167 83.2718 69.6984 83.1628 69.6984L81.8958 69.603C81.8005 69.5894 81.7188 69.494 81.7188 69.3851Z" fill="#F3F3F3"/>
<path d="M81.7051 69.3855C81.7187 69.2629 81.8141 69.1812 81.923 69.1812L83.19 69.2765C83.299 69.2901 83.3943 69.3855 83.3807 69.5081C83.3671 69.6307 83.2717 69.7125 83.1627 69.7125L81.8958 69.6171C81.7868 69.6035 81.7051 69.4945 81.7051 69.3855ZM83.3671 69.5081C83.3807 69.4127 83.299 69.3174 83.2036 69.3174L81.9367 69.222C81.8413 69.222 81.7596 69.2901 81.7459 69.3991C81.7323 69.4945 81.8141 69.5898 81.9094 69.5898L83.1764 69.6852C83.2717 69.6852 83.3535 69.6035 83.3671 69.5081Z" fill="white"/>
<path d="M79.9607 70.38C79.988 70.2711 80.0833 70.2029 80.1923 70.2166L82.985 70.7751C83.094 70.8024 83.1621 70.8977 83.1349 71.0067C83.1076 71.1157 83.0123 71.1838 82.9033 71.1702L80.1106 70.6116C80.0152 70.598 79.9471 70.489 79.9607 70.38Z" fill="#F3F3F3"/>
<path d="M79.948 70.38C79.9753 70.2574 80.0842 70.1893 80.1932 70.2029L82.986 70.7614C83.0949 70.7887 83.1767 70.8977 83.1494 71.0203C83.1222 71.1429 83.0132 71.211 82.9042 71.1974L80.1115 70.6388C80.0025 70.6116 79.9344 70.5026 79.948 70.38ZM83.1222 71.0203C83.1358 70.9249 83.0813 70.8296 82.986 70.8023L80.1932 70.2438C80.0979 70.2301 80.0025 70.2846 79.9753 70.3936C79.9616 70.489 80.0161 70.5843 80.1115 70.6116L82.9042 71.1701C83.0132 71.1838 83.0949 71.1156 83.1222 71.0203Z" fill="white"/>
<path d="M81.1876 72.0143C81.2149 71.9053 81.3238 71.8372 81.4328 71.8644L82.6589 72.205C82.7679 72.2322 82.8224 72.3412 82.7951 72.4502C82.7679 72.5592 82.6589 72.6273 82.5499 72.6001L81.3238 72.2595C81.2149 72.2322 81.1604 72.1232 81.1876 72.0143Z" fill="#F3F3F3"/>
<path d="M81.174 72.0146C81.2012 71.9056 81.3238 71.8238 81.4328 71.8647L82.6589 72.2053C82.7679 72.2325 82.836 72.3551 82.8087 72.4641C82.7815 72.5731 82.6589 72.6548 82.5499 72.614L81.3238 72.2734C81.2148 72.2462 81.1467 72.1372 81.174 72.0146ZM82.7679 72.4641C82.7951 72.3688 82.7406 72.2598 82.6453 72.2325L81.4192 71.892C81.3238 71.8647 81.2285 71.9192 81.2012 72.0282C81.174 72.1235 81.2285 72.2325 81.3238 72.2598L82.5499 72.6004C82.6453 72.614 82.7406 72.5595 82.7679 72.4641Z" fill="white"/>
<path d="M79.2665 72.6685C79.3074 72.5595 79.43 72.5186 79.5254 72.5595L82.1546 73.6493C82.25 73.6902 82.3045 73.8128 82.2636 73.9082C82.2227 74.0172 82.1001 74.058 82.0048 74.0172L79.3755 72.9273C79.2665 72.8864 79.2257 72.7638 79.2665 72.6685Z" fill="#F3F3F3"/>
<path d="M79.2529 72.6547C79.2937 72.5457 79.4163 72.4913 79.5253 72.5321L82.1546 73.622C82.2635 73.6628 82.3044 73.7854 82.2635 73.9081C82.2227 74.017 82.1001 74.0715 81.9911 74.0307L79.3618 72.9408C79.2528 72.8863 79.212 72.7637 79.2529 72.6547ZM82.2363 73.8944C82.2772 73.7991 82.2363 73.6901 82.1409 73.6492L79.5117 72.5594C79.4163 72.5185 79.321 72.573 79.2801 72.6684C79.2392 72.7637 79.2801 72.8727 79.3755 72.9136L82.0047 74.0034C82.1001 74.0307 82.2091 73.9898 82.2363 73.8944Z" fill="white"/>
<path d="M80.1523 74.5076C80.2068 74.4123 80.3158 74.3714 80.4112 74.4123L81.5419 74.9844C81.6372 75.0253 81.6781 75.1479 81.6236 75.2569C81.5691 75.3523 81.4601 75.3931 81.3648 75.3523L80.2341 74.7801C80.1387 74.7256 80.0978 74.603 80.1523 74.5076Z" fill="#F3F3F3"/>
<path d="M80.1383 74.4939C80.1928 74.3849 80.3154 74.3441 80.4244 74.3985L81.5551 74.9707C81.6641 75.0252 81.7049 75.1478 81.6504 75.2568C81.596 75.3658 81.4733 75.4066 81.3644 75.3522L80.2336 74.78C80.1247 74.7391 80.0838 74.6029 80.1383 74.4939ZM81.6096 75.2432C81.6504 75.1478 81.6232 75.0388 81.5278 74.998L80.3971 74.4258C80.3154 74.3849 80.2064 74.4258 80.1519 74.5075C80.111 74.6029 80.1383 74.7119 80.2336 74.7527L81.3644 75.3249C81.4597 75.3658 81.5687 75.3385 81.6096 75.2432Z" fill="white"/>
<path d="M78.1492 74.7666C78.2173 74.6713 78.3263 74.644 78.4216 74.7122L80.792 76.2924C80.8874 76.3469 80.901 76.4695 80.8465 76.5649C80.7784 76.6603 80.6694 76.6875 80.5741 76.6194L78.2037 75.0391C78.1083 74.971 78.0811 74.8484 78.1492 74.7666Z" fill="#F3F3F3"/>
<path d="M78.1354 74.7531C78.2035 74.6578 78.3397 74.6305 78.4351 74.685L80.8055 76.2653C80.9009 76.3334 80.9281 76.456 80.86 76.565C80.7919 76.6603 80.6556 76.6876 80.5603 76.6331L78.1899 75.0528C78.0809 74.9847 78.0673 74.8485 78.1354 74.7531ZM80.8191 76.5514C80.8736 76.4696 80.86 76.347 80.7783 76.2925L78.4078 74.7122C78.3261 74.6578 78.2171 74.685 78.1626 74.7667C78.1081 74.8485 78.1218 74.9711 78.2035 75.0256L80.5739 76.6058C80.6556 76.6603 80.7646 76.6331 80.8191 76.5514Z" fill="white"/>
<path d="M78.653 76.7416C78.7211 76.6598 78.8437 76.6326 78.9254 76.7007L79.9199 77.4772C80.0017 77.5453 80.0153 77.668 79.9472 77.7497C79.8791 77.8314 79.7565 77.8587 79.6747 77.7906L78.6802 77.014C78.5985 76.9459 78.5849 76.8233 78.653 76.7416Z" fill="#F3F3F3"/>
<path d="M78.6402 76.728C78.7083 76.6326 78.8446 76.619 78.9399 76.6871L79.9344 77.4636C80.0298 77.5317 80.0434 77.668 79.9753 77.7633C79.9072 77.8587 79.7709 77.8723 79.6756 77.8042L78.6811 77.0277C78.5857 76.9596 78.5721 76.8233 78.6402 76.728ZM79.948 77.7497C80.0162 77.668 80.0025 77.559 79.9208 77.4909L78.9263 76.7144C78.8446 76.6599 78.7356 76.6735 78.6675 76.7552C78.5994 76.837 78.613 76.9459 78.6947 77.0141L79.6892 77.7906C79.7709 77.8451 79.8799 77.8314 79.948 77.7497Z" fill="white"/>
<path d="M76.6234 76.6057C76.7051 76.524 76.8277 76.524 76.8958 76.6057L78.912 78.6083C78.9938 78.6901 78.9801 78.8127 78.912 78.8808C78.8303 78.9625 78.7077 78.9625 78.6396 78.8808L76.6234 76.8782C76.5552 76.8101 76.5552 76.6739 76.6234 76.6057Z" fill="#F3F3F3"/>
<path d="M76.6233 76.5916C76.705 76.5098 76.8412 76.5098 76.923 76.5916L78.9392 78.5942C79.0209 78.6759 79.0209 78.8121 78.9392 78.8939C78.8575 78.9756 78.7212 78.9756 78.6395 78.8939L76.6233 76.8913C76.5279 76.8095 76.5279 76.6733 76.6233 76.5916ZM78.912 78.8666C78.9801 78.7985 78.9801 78.6759 78.912 78.6078L76.8957 76.6052C76.8276 76.5371 76.705 76.5371 76.6369 76.6052C76.5688 76.6733 76.5688 76.7959 76.6369 76.864L78.6531 78.8666C78.7212 78.9484 78.8302 78.9484 78.912 78.8666Z" fill="white"/>
<path d="M76.7457 78.6354C76.8274 78.5673 76.95 78.5673 77.0181 78.6491L77.8491 79.6027C77.9172 79.6844 77.9036 79.807 77.8219 79.8751C77.7401 79.9433 77.6175 79.9432 77.5494 79.8615L76.7184 78.9079C76.6503 78.8398 76.6639 78.7172 76.7457 78.6354Z" fill="#F3F3F3"/>
<path d="M76.7326 78.6355C76.8279 78.5537 76.9505 78.5674 77.0323 78.6491L77.8633 79.6027C77.945 79.6845 77.9314 79.8207 77.836 79.9024C77.7407 79.9842 77.6181 79.9705 77.5363 79.8888L76.7053 78.9352C76.6372 78.8398 76.6372 78.7036 76.7326 78.6355ZM77.8224 79.8752C77.9042 79.8071 77.9042 79.6981 77.8497 79.6163L77.0187 78.6627C76.9506 78.5946 76.8416 78.581 76.7598 78.6491C76.6781 78.7172 76.6781 78.8262 76.7326 78.9079L77.5636 79.8616C77.6317 79.9433 77.7407 79.9433 77.8224 79.8752Z" fill="white"/>
<path d="M74.784 78.1179C74.8794 78.0498 75.002 78.077 75.0565 78.1724L76.6367 80.5292C76.6912 80.6246 76.664 80.7472 76.5823 80.8017C76.4869 80.8698 76.3643 80.8425 76.3098 80.7472L74.7295 78.3904C74.675 78.295 74.7023 78.1724 74.784 78.1179Z" fill="#F3F3F3"/>
<path d="M74.784 78.1042C74.8793 78.0361 75.0156 78.0634 75.0837 78.1587L76.6639 80.5155C76.7321 80.6109 76.7048 80.7471 76.5958 80.8152C76.5005 80.8833 76.3642 80.8561 76.2961 80.7607L74.7158 78.404C74.6477 78.295 74.675 78.1724 74.784 78.1042ZM76.5822 80.788C76.6639 80.7335 76.6912 80.6245 76.6367 80.5428L75.0564 78.186C75.0019 78.1042 74.8929 78.0906 74.7976 78.1451C74.7158 78.1996 74.6886 78.3086 74.7431 78.3903L76.3234 80.7471C76.3779 80.8152 76.5005 80.8425 76.5822 80.788Z" fill="white"/>
<path d="M74.4986 80.1337C74.5939 80.0792 74.7165 80.1065 74.771 80.2018L75.3977 81.3053C75.4522 81.4007 75.4113 81.5233 75.316 81.5778C75.2206 81.6323 75.098 81.605 75.0435 81.5097L74.4168 80.4062C74.376 80.3108 74.4032 80.1882 74.4986 80.1337Z" fill="#F3F3F3"/>
<path d="M74.4986 80.1205C74.6076 80.0661 74.7302 80.0933 74.7847 80.1887L75.4114 81.2921C75.4659 81.3875 75.4386 81.5237 75.3296 81.5782C75.2207 81.6327 75.098 81.6055 75.0436 81.5101L74.4169 80.4066C74.3624 80.3113 74.3896 80.1887 74.4986 80.1205ZM75.316 81.5646C75.3978 81.5101 75.4386 81.4011 75.3841 81.3194L74.7575 80.2159C74.703 80.1342 74.594 80.1069 74.5123 80.1478C74.4305 80.2023 74.3896 80.3113 74.4441 80.393L75.0708 81.4965C75.1117 81.5782 75.2343 81.6191 75.316 81.5646Z" fill="white"/>
<path d="M72.6862 79.2345C72.7952 79.1937 72.9042 79.2345 72.945 79.3299L74.0485 81.9591C74.0894 82.0545 74.0349 82.1771 73.9395 82.218C73.8441 82.2588 73.7215 82.218 73.6807 82.1226L72.5772 79.4934C72.5363 79.398 72.5908 79.2754 72.6862 79.2345Z" fill="#F3F3F3"/>
<path d="M72.687 79.2211C72.7959 79.1802 72.9185 79.2211 72.973 79.3301L74.0765 81.9593C74.1174 82.0683 74.0629 82.1909 73.9539 82.2318C73.8449 82.2727 73.7223 82.2318 73.6678 82.1228L72.5644 79.4936C72.5235 79.3982 72.578 79.2756 72.687 79.2211ZM73.9267 82.2046C74.022 82.1637 74.0629 82.0547 74.022 81.973L72.9186 79.3437C72.8777 79.2484 72.7687 79.2075 72.6733 79.2484C72.578 79.2892 72.5371 79.3982 72.578 79.4799L73.6814 82.1092C73.7359 82.2046 73.8313 82.2454 73.9267 82.2046Z" fill="white"/>
<path d="M72.019 81.1693C72.128 81.1285 72.237 81.183 72.2778 81.2919L72.6729 82.4908C72.7138 82.5861 72.6456 82.7087 72.5503 82.736C72.4413 82.7769 72.3323 82.7224 72.2914 82.6134L71.8964 81.4145C71.8555 81.3192 71.91 81.2102 72.019 81.1693Z" fill="#F3F3F3"/>
<path d="M72.0055 81.1557C72.1145 81.1148 72.2371 81.1693 72.2779 81.2783L72.673 82.4771C72.7139 82.5861 72.6458 82.7087 72.5368 82.7496C72.4278 82.7904 72.3052 82.7359 72.2643 82.6269L71.8692 81.4281C71.842 81.3191 71.8965 81.1965 72.0055 81.1557ZM72.5368 82.7223C72.6321 82.6951 72.6866 82.5861 72.6594 82.4907L72.2643 81.2919C72.2371 81.1965 72.1281 81.1557 72.0327 81.1829C71.9374 81.2102 71.8829 81.3191 71.9101 81.4145L72.3052 82.6133C72.3324 82.7087 72.4414 82.7632 72.5368 82.7223Z" fill="white"/>
<path d="M70.4113 79.9293C70.5203 79.9021 70.6293 79.9702 70.6429 80.0792L71.2151 82.8719C71.2423 82.9809 71.1606 83.0763 71.0516 83.1035C70.9426 83.1308 70.8336 83.0626 70.82 82.9537L70.2478 80.1609C70.2342 80.0656 70.3023 79.9566 70.4113 79.9293Z" fill="#F3F3F3"/>
<path d="M70.4116 79.9159C70.5342 79.8887 70.6432 79.9704 70.6705 80.0794L71.2426 82.8721C71.2699 82.9811 71.1881 83.1037 71.0792 83.1173C70.9565 83.1446 70.8476 83.0628 70.8203 82.9539L70.2482 80.1611C70.2209 80.0522 70.289 79.9432 70.4116 79.9159ZM71.0519 83.0901C71.1473 83.0765 71.2154 82.9811 71.2018 82.8721L70.6296 80.0794C70.616 79.984 70.507 79.9159 70.4116 79.9432C70.3163 79.9568 70.2482 80.0522 70.2618 80.1611L70.8339 82.9539C70.8612 83.0492 70.9565 83.1037 71.0519 83.0901Z" fill="white"/>
<path d="M69.3759 81.7005C69.4848 81.6868 69.5802 81.755 69.6074 81.8639L69.7709 83.1173C69.7845 83.2262 69.7028 83.3216 69.5938 83.3352C69.4848 83.3488 69.3895 83.2807 69.3622 83.1717L69.1988 81.9184C69.1851 81.8094 69.2669 81.7141 69.3759 81.7005Z" fill="#F3F3F3"/>
<path d="M69.3758 81.687C69.4984 81.6734 69.6074 81.7551 69.621 81.8641L69.7845 83.1175C69.7981 83.2264 69.7164 83.3354 69.5938 83.349C69.4712 83.3627 69.3622 83.2809 69.3486 83.1719L69.1851 81.9186C69.1715 81.8096 69.2532 81.7007 69.3758 81.687ZM69.5801 83.3218C69.6755 83.3082 69.7572 83.2128 69.7436 83.1175L69.5801 81.8641C69.5665 81.7688 69.4712 81.7007 69.3758 81.7143C69.2804 81.7279 69.1987 81.8233 69.2123 81.9186L69.3758 83.1719C69.3894 83.2673 69.4848 83.3354 69.5801 83.3218Z" fill="white"/>
<path d="M67.9729 80.1748C68.0819 80.1748 68.1772 80.2565 68.1772 80.3655V83.2127C68.1772 83.3217 68.0819 83.4035 67.9729 83.4035C67.8639 83.4035 67.7686 83.3217 67.7686 83.2127V80.3655C67.7822 80.2565 67.8639 80.1748 67.9729 80.1748Z" fill="#F3F3F3"/>
<path d="M67.9729 80.1611C68.0955 80.1611 68.1908 80.2565 68.1908 80.3655V83.2127C68.1908 83.3217 68.0955 83.417 67.9729 83.417C67.8502 83.417 67.7549 83.3217 67.7549 83.2127V80.3655C67.7549 80.2565 67.8639 80.1611 67.9729 80.1611ZM67.9729 83.3898C68.0682 83.3898 68.1636 83.3081 68.1636 83.2127V80.3655C68.1636 80.2701 68.0818 80.1884 67.9729 80.1884C67.8775 80.1884 67.7821 80.2701 67.7821 80.3655V83.2127C67.7958 83.3081 67.8775 83.3898 67.9729 83.3898Z" fill="white"/>
<path d="M66.6102 81.7007C66.7192 81.7143 66.8009 81.7961 66.8009 81.905L66.7056 83.172C66.6919 83.281 66.5966 83.3627 66.4876 83.3491C66.3786 83.3355 66.2969 83.2537 66.2969 83.1447L66.3922 81.8778C66.4059 81.7688 66.5012 81.6871 66.6102 81.7007Z" fill="#F3F3F3"/>
<path d="M66.6102 81.687C66.7328 81.7007 66.8145 81.796 66.8145 81.905L66.7191 83.1719C66.7055 83.2809 66.6102 83.3763 66.4875 83.3627C66.3649 83.349 66.2832 83.2537 66.2832 83.1447L66.3786 81.8777C66.3922 81.7551 66.4875 81.6734 66.6102 81.687ZM66.4875 83.3354C66.5829 83.3354 66.6783 83.2673 66.6783 83.1719L66.7736 81.905C66.7736 81.8096 66.7055 81.7279 66.5965 81.7143C66.5012 81.7143 66.4058 81.7824 66.4058 81.8777L66.3105 83.1447C66.3105 83.2401 66.3922 83.3218 66.4875 83.3354Z" fill="white"/>
<path d="M65.5887 79.9295C65.6977 79.9567 65.7658 80.0521 65.7522 80.1611L65.1937 82.9538C65.1664 83.0628 65.0711 83.1309 64.9621 83.1036C64.8531 83.0764 64.785 82.981 64.7986 82.872L65.3571 80.0793C65.3708 79.984 65.4798 79.9158 65.5887 79.9295Z" fill="#F3F3F3"/>
<path d="M65.5886 79.9158C65.7112 79.943 65.7794 80.052 65.7657 80.161L65.2072 82.9537C65.1799 83.0627 65.071 83.1445 64.9484 83.1172C64.8257 83.09 64.7576 82.981 64.7713 82.872L65.3298 80.0793C65.357 79.9703 65.466 79.9022 65.5886 79.9158ZM64.9484 83.09C65.0437 83.1036 65.1391 83.0491 65.1663 82.9537L65.7249 80.161C65.7385 80.0656 65.684 79.9703 65.575 79.943C65.4796 79.9294 65.3843 79.9839 65.357 80.0793L64.7985 82.872C64.7849 82.981 64.853 83.0627 64.9484 83.09Z" fill="white"/>
<path d="M63.9541 81.1554C64.0631 81.1826 64.1312 81.2916 64.104 81.4006L63.7634 82.6267C63.7361 82.7357 63.6272 82.7901 63.5182 82.7629C63.4092 82.7357 63.3411 82.6267 63.3683 82.5177L63.7089 81.2916C63.7361 81.1826 63.8451 81.1281 63.9541 81.1554Z" fill="#F3F3F3"/>
<path d="M63.9539 81.1418C64.0629 81.169 64.1446 81.2916 64.1037 81.4006L63.7631 82.6267C63.7359 82.7356 63.6133 82.8038 63.5043 82.7765C63.3953 82.7493 63.3136 82.6267 63.3545 82.5177L63.695 81.2916C63.7223 81.1826 63.8313 81.1145 63.9539 81.1418ZM63.5043 82.7356C63.5997 82.7629 63.7087 82.7084 63.7359 82.613L64.0765 81.387C64.1037 81.2916 64.0492 81.1962 63.9402 81.169C63.8449 81.1417 63.7359 81.1962 63.7087 81.2916L63.3681 82.5177C63.3545 82.613 63.409 82.7084 63.5043 82.7356Z" fill="white"/>
<path d="M63.2862 79.2345C63.3952 79.2754 63.4361 79.398 63.3952 79.4934L62.3054 82.1226C62.2645 82.218 62.1419 82.2725 62.0465 82.218C61.9512 82.1635 61.8967 82.0545 61.9376 81.9591L63.0274 79.3299C63.0683 79.2345 63.1909 79.18 63.2862 79.2345Z" fill="#F3F3F3"/>
<path d="M63.287 79.2211C63.3959 79.262 63.4504 79.3846 63.4096 79.4935L62.3197 82.1228C62.2789 82.2318 62.1562 82.2726 62.0336 82.2318C61.9247 82.1909 61.8702 82.0683 61.911 81.9593L63.0009 79.3301C63.0554 79.2211 63.178 79.1666 63.287 79.2211ZM62.0473 82.2045C62.1426 82.2454 62.2516 82.2045 62.2925 82.1092L63.3823 79.4799C63.4232 79.3846 63.3687 79.2892 63.2733 79.2483C63.178 79.2075 63.069 79.2483 63.0281 79.3437L61.9383 81.9729C61.911 82.0547 61.9519 82.1637 62.0473 82.2045Z" fill="white"/>
<path d="M61.4473 80.1064C61.5427 80.1609 61.5836 80.2699 61.5427 80.3653L60.9705 81.496C60.916 81.5913 60.807 81.6322 60.6981 81.5777C60.6027 81.5232 60.5618 81.4143 60.6027 81.3189L61.1749 80.1882C61.2294 80.0928 61.3383 80.0519 61.4473 80.1064Z" fill="#F3F3F3"/>
<path d="M61.4477 80.0934C61.5567 80.1479 61.5976 80.2705 61.5431 80.3795L60.9709 81.5102C60.9164 81.6191 60.7938 81.66 60.6848 81.6055C60.5758 81.551 60.535 81.4284 60.5895 81.3194L61.1616 80.1887C61.2161 80.0797 61.3387 80.0389 61.4477 80.0934ZM60.6984 81.5783C60.7938 81.6191 60.9028 81.5919 60.9437 81.4965L61.5158 80.3658C61.5567 80.2841 61.5158 80.1751 61.4341 80.1206C61.3387 80.0797 61.2297 80.107 61.1889 80.2024L60.6167 81.3331C60.5758 81.4148 60.6167 81.5238 60.6984 81.5783Z" fill="white"/>
<path d="M61.1748 78.0906C61.2701 78.1587 61.2974 78.2813 61.2292 78.363L59.649 80.7198C59.5945 80.8152 59.4719 80.8288 59.3765 80.7743C59.2811 80.7062 59.2539 80.5836 59.322 80.5019L60.9023 78.1451C60.9568 78.0497 61.0794 78.0225 61.1748 78.0906Z" fill="#F3F3F3"/>
<path d="M61.1753 78.0769C61.2707 78.145 61.2979 78.2812 61.2434 78.3766L59.6632 80.7334C59.5951 80.8288 59.4725 80.856 59.3635 80.7879C59.2681 80.7198 59.2409 80.5835 59.2954 80.4882L60.8756 78.1314C60.9437 78.036 61.08 78.0088 61.1753 78.0769ZM59.3771 80.7606C59.4588 80.8151 59.5814 80.8015 59.6359 80.7198L61.2162 78.363C61.2707 78.2812 61.2434 78.1723 61.1617 78.1178C61.08 78.0633 60.9574 78.0769 60.9029 78.1586L59.3226 80.5018C59.2681 80.5835 59.2954 80.7061 59.3771 80.7606Z" fill="white"/>
<path d="M59.1862 78.5944C59.2679 78.6625 59.2951 78.7851 59.227 78.8669L58.4369 79.8613C58.3688 79.9431 58.2462 79.9567 58.1644 79.8886C58.0827 79.8205 58.0555 79.6979 58.1236 79.6161L58.9137 78.6216C58.9818 78.5399 59.1044 78.5263 59.1862 78.5944Z" fill="#F3F3F3"/>
<path d="M59.1998 78.581C59.2952 78.6491 59.3088 78.7854 59.2407 78.8807L58.4505 79.8752C58.3824 79.9706 58.2462 79.9842 58.1508 79.9025C58.0555 79.8343 58.0418 79.6981 58.11 79.6027L58.9001 78.6083C58.9682 78.5129 59.1044 78.4993 59.1998 78.581ZM58.1781 79.8752C58.2598 79.9433 58.3688 79.9297 58.4369 79.848L59.227 78.8535C59.2815 78.7717 59.2679 78.6628 59.1862 78.5946C59.1044 78.5265 58.9955 78.5401 58.9273 78.6219L58.1372 79.6164C58.0827 79.6981 58.0963 79.8207 58.1781 79.8752Z" fill="white"/>
<path d="M59.3225 76.551C59.4043 76.6328 59.4043 76.7554 59.3225 76.8235L57.3063 78.8261C57.2246 78.9078 57.102 78.8942 57.0338 78.8261C56.9657 78.758 56.9521 78.6218 57.0338 78.5536L59.0364 76.551C59.1182 76.4693 59.2408 76.4693 59.3225 76.551Z" fill="#F3F3F3"/>
<path d="M59.3362 76.5374C59.4179 76.6191 59.4179 76.7553 59.3362 76.8371L57.32 78.8397C57.2383 78.9214 57.102 78.9214 57.0203 78.8397C56.9385 78.7579 56.9385 78.6217 57.0203 78.54L59.0365 76.5374C59.1182 76.4556 59.2545 76.4556 59.3362 76.5374ZM57.0339 78.8261C57.102 78.8942 57.2246 78.8942 57.2927 78.8261L59.309 76.8235C59.3771 76.7553 59.3771 76.6327 59.309 76.5646C59.2408 76.4965 59.1182 76.4965 59.0501 76.5646L57.0339 78.5672C56.9658 78.6353 56.9658 78.7443 57.0339 78.8261Z" fill="white"/>
<path d="M57.2784 76.6597C57.3465 76.7415 57.3465 76.8641 57.2648 76.9322L56.2975 77.7496C56.2158 77.8177 56.0932 77.8041 56.0251 77.7223C55.957 77.6406 55.957 77.518 56.0387 77.4499L57.0059 76.6325C57.0877 76.5644 57.2103 76.578 57.2784 76.6597Z" fill="#F3F3F3"/>
<path d="M57.2925 76.6463C57.3743 76.7417 57.3606 76.8779 57.2789 76.9461L56.3117 77.7634C56.2299 77.8452 56.0937 77.8316 56.0119 77.7362C55.9302 77.6408 55.9438 77.5046 56.0256 77.4365L56.9928 76.6191C57.0745 76.5374 57.2108 76.551 57.2925 76.6463ZM56.0392 77.7226C56.1073 77.8043 56.2163 77.8043 56.298 77.7498L57.2653 76.9324C57.3334 76.8643 57.347 76.7553 57.2789 76.6736C57.2108 76.5919 57.1018 76.5919 57.0201 76.6463L56.0528 77.4637C55.9711 77.5318 55.9711 77.6408 56.0392 77.7226Z" fill="white"/>
<path d="M57.8241 74.6981C57.8922 74.7934 57.8649 74.916 57.7696 74.9705L55.3992 76.5508C55.3038 76.6053 55.1812 76.5781 55.1267 76.4963C55.0586 76.401 55.0858 76.2784 55.1812 76.2239L57.5516 74.6436C57.6333 74.5891 57.756 74.6163 57.8241 74.6981Z" fill="#F3F3F3"/>
<path d="M57.8376 74.698C57.9058 74.7934 57.8785 74.9296 57.7831 74.9977L55.4127 76.578C55.3174 76.6461 55.1811 76.6189 55.113 76.5099C55.0449 76.4145 55.0722 76.2783 55.1675 76.2102L57.5379 74.6299C57.6333 74.5618 57.7695 74.589 57.8376 74.698ZM55.1403 76.4826C55.1948 76.5644 55.3038 76.5916 55.3855 76.5371L57.7559 74.9569C57.8376 74.9024 57.8649 74.7934 57.7968 74.698C57.7423 74.6163 57.6333 74.589 57.5516 74.6435L55.1811 76.2238C55.0994 76.2919 55.0858 76.4009 55.1403 76.4826Z" fill="white"/>
<path d="M55.7941 74.4123C55.8486 74.5077 55.8213 74.6303 55.726 74.6848L54.6225 75.3114C54.5271 75.3659 54.4045 75.325 54.35 75.2297C54.2955 75.1343 54.3228 75.0117 54.4182 74.9572L55.5216 74.3306C55.617 74.2761 55.7396 74.3169 55.7941 74.4123Z" fill="#F3F3F3"/>
<path d="M55.8077 74.3986C55.8622 74.5076 55.835 74.6302 55.7396 74.6847L54.6361 75.3114C54.5408 75.3659 54.4045 75.325 54.35 75.2296C54.2955 75.1206 54.3228 74.998 54.4182 74.9435L55.5216 74.3169C55.617 74.2624 55.7532 74.3033 55.8077 74.3986ZM54.3637 75.216C54.4182 75.3114 54.5271 75.3386 54.6089 75.2841L55.7123 74.6575C55.7941 74.603 55.8213 74.494 55.7805 74.4122C55.726 74.3169 55.617 74.2896 55.5352 74.3441L54.4318 74.9708C54.35 75.0117 54.3228 75.1206 54.3637 75.216Z" fill="white"/>
<path d="M56.707 72.6001C56.7478 72.7091 56.707 72.8181 56.598 72.859L53.9687 73.9488C53.8734 73.9897 53.7508 73.9352 53.7099 73.8398C53.669 73.7308 53.7099 73.6218 53.8189 73.581L56.4481 72.4911C56.5435 72.4503 56.6661 72.4911 56.707 72.6001Z" fill="#F3F3F3"/>
<path d="M56.7206 72.5864C56.7614 72.6954 56.7206 72.818 56.6116 72.8725L53.9823 73.9623C53.8734 74.0032 53.7508 73.9487 53.7099 73.8397C53.669 73.7307 53.7099 73.6081 53.8189 73.5536L56.4481 72.4638C56.5571 72.4229 56.6797 72.4774 56.7206 72.5864ZM53.7371 73.8261C53.778 73.9214 53.887 73.9623 53.9687 73.9351L56.598 72.8452C56.6933 72.8043 56.7342 72.6954 56.6933 72.6C56.6525 72.5046 56.5435 72.4638 56.4617 72.491L53.8325 73.5809C53.7371 73.6217 53.6963 73.7307 53.7371 73.8261Z" fill="white"/>
<path d="M54.7863 71.9194C54.8271 72.0284 54.7727 72.1373 54.6637 72.1782L53.4648 72.5733C53.3695 72.6142 53.2469 72.546 53.2196 72.4507C53.1788 72.3417 53.2332 72.2327 53.3422 72.1918L54.5411 71.7968C54.6364 71.7559 54.7454 71.8104 54.7863 71.9194Z" fill="#F3F3F3"/>
<path d="M54.7996 71.9054C54.8405 72.0144 54.786 72.137 54.6634 72.1778L53.4646 72.5729C53.3556 72.6138 53.233 72.5457 53.1921 72.4367C53.1513 72.3277 53.2058 72.2051 53.3284 72.1642L54.5272 71.7692C54.6362 71.7419 54.7588 71.7964 54.7996 71.9054ZM53.2194 72.4231C53.2466 72.5184 53.3556 72.5729 53.451 72.5457L54.6498 72.1506C54.7452 72.1234 54.786 72.0144 54.7588 71.919C54.7315 71.8236 54.6225 71.7692 54.5272 71.7964L53.3284 72.1915C53.233 72.2323 53.1921 72.3277 53.2194 72.4231Z" fill="white"/>
<path d="M56.0122 70.298C56.0395 70.407 55.9713 70.516 55.8624 70.5296L53.0696 71.0745C52.9606 71.1018 52.8653 71.02 52.838 70.9111C52.8108 70.8021 52.8789 70.6931 52.9879 70.6795L55.7806 70.1345C55.8896 70.1209 55.9986 70.189 56.0122 70.298Z" fill="#F3F3F3"/>
<path d="M56.0387 70.2981C56.066 70.4207 55.9842 70.5297 55.8753 70.5569L53.0825 71.1018C52.9735 71.1291 52.8646 71.0473 52.8373 70.9247C52.8101 70.8021 52.8918 70.6931 53.0008 70.6659L55.7935 70.121C55.9025 70.0937 56.0115 70.1755 56.0387 70.2981ZM52.8646 70.9111C52.8782 71.0065 52.9735 71.0746 53.0689 71.061L55.8616 70.516C55.957 70.5024 56.0251 70.3934 55.9979 70.2981C55.9842 70.2027 55.8889 70.1346 55.7935 70.1482L53.0008 70.6931C52.9054 70.7204 52.8373 70.8157 52.8646 70.9111Z" fill="white"/>
<path d="M54.2683 69.2489C54.282 69.3579 54.2138 69.4532 54.1049 69.4669L52.8515 69.6167C52.7425 69.6303 52.6472 69.5486 52.6336 69.4396C52.6199 69.3306 52.6881 69.2353 52.797 69.2217L54.0504 69.0718C54.1457 69.0582 54.2547 69.1399 54.2683 69.2489Z" fill="#F3F3F3"/>
<path d="M54.2817 69.2488C54.2953 69.3715 54.2135 69.4804 54.1046 69.4941L52.8512 69.6439C52.7423 69.6575 52.6333 69.5758 52.6196 69.4532C52.606 69.3306 52.6878 69.2216 52.7967 69.208L54.0501 69.0581C54.1591 69.0445 54.268 69.1262 54.2817 69.2488ZM52.6333 69.4396C52.6469 69.5349 52.7423 69.6167 52.8376 69.603L54.0909 69.4532C54.1863 69.4396 54.2544 69.3442 54.2408 69.2488C54.2272 69.1535 54.1318 69.0717 54.0364 69.0854L52.7831 69.2352C52.6878 69.2488 52.6196 69.3442 52.6333 69.4396Z" fill="white"/>
<path d="M55.7941 67.9275C55.7941 68.0365 55.7124 68.1318 55.6034 68.1318H52.7562C52.6472 68.1318 52.5654 68.0365 52.5654 67.9275C52.5654 67.8185 52.6472 67.7231 52.7562 67.7231H55.6034C55.7124 67.7231 55.7941 67.8185 55.7941 67.9275Z" fill="#F3F3F3"/>
<path d="M55.8077 67.9274C55.8077 68.05 55.7123 68.1454 55.6033 68.1454H52.7561C52.6471 68.1454 52.5518 68.05 52.5518 67.9274C52.5518 67.8048 52.6471 67.7095 52.7561 67.7095H55.6033C55.7123 67.7095 55.8077 67.8048 55.8077 67.9274ZM52.579 67.9138C52.579 68.0092 52.6607 68.1045 52.7561 68.1045H55.6033C55.6987 68.1045 55.7804 68.0228 55.7804 67.9138C55.7804 67.8185 55.6987 67.7231 55.6033 67.7231H52.7561C52.6607 67.7367 52.579 67.8185 52.579 67.9138Z" fill="white"/>
<path d="M54.2817 66.5516C54.2681 66.6606 54.1863 66.7423 54.0774 66.7423L52.8104 66.647C52.7014 66.6333 52.6197 66.538 52.6333 66.429C52.6469 66.32 52.7287 66.2383 52.8377 66.2383L54.1046 66.3336C54.2 66.3473 54.2817 66.4426 54.2817 66.5516Z" fill="#E2E2E2"/>
<path d="M54.2951 66.5516C54.2815 66.6742 54.1861 66.7559 54.0771 66.7559L52.8102 66.6605C52.7012 66.6469 52.6058 66.5516 52.6195 66.429C52.6331 66.3063 52.7284 66.2246 52.8374 66.2246L54.1044 66.32C54.2134 66.3336 54.2951 66.4426 54.2951 66.5516ZM52.6331 66.429C52.6195 66.5243 52.7012 66.6197 52.7966 66.6197L54.0635 66.715C54.1589 66.715 54.2406 66.6469 54.2542 66.5379C54.2679 66.4426 54.1861 66.3472 54.0908 66.3472L52.8238 66.2519C52.7284 66.2519 52.6467 66.3336 52.6331 66.429Z" fill="white"/>
<path d="M56.0396 65.5574C56.0123 65.6664 55.9169 65.7345 55.808 65.7209L53.0152 65.1487C52.9063 65.1215 52.8381 65.0261 52.8654 64.9172C52.8926 64.8082 52.988 64.7401 53.097 64.7537L55.8897 65.3122C55.9851 65.3395 56.0532 65.4485 56.0396 65.5574Z" fill="#F3F3F3"/>
<path d="M56.0524 65.5574C56.0252 65.68 55.9162 65.7481 55.8072 65.7345L53.0145 65.1759C52.9055 65.1487 52.8237 65.0397 52.851 64.9171C52.8782 64.7945 52.9872 64.7264 53.0962 64.74L55.8889 65.2985C55.9979 65.3258 56.066 65.4348 56.0524 65.5574ZM52.8782 64.9171C52.8646 65.0125 52.9191 65.1078 53.0145 65.1351L55.8072 65.6936C55.9025 65.7072 55.9979 65.6527 56.0252 65.5438C56.0388 65.4484 55.9843 65.353 55.8889 65.3258L53.0962 64.7672C52.9872 64.7536 52.9055 64.8217 52.8782 64.9171Z" fill="white"/>
<path d="M54.8127 63.9224C54.7855 64.0313 54.6765 64.0995 54.5675 64.0722L53.3414 63.7316C53.2324 63.7044 53.1779 63.5954 53.2052 63.4864C53.2324 63.3774 53.3414 63.3093 53.4504 63.3366L54.6765 63.6772C54.7855 63.7044 54.84 63.8134 54.8127 63.9224Z" fill="#F3F3F3"/>
<path d="M54.8263 63.9226C54.7991 64.0316 54.6765 64.1133 54.5675 64.0725L53.3414 63.7319C53.2324 63.7047 53.1643 63.582 53.1916 63.4731C53.2188 63.3641 53.3414 63.2823 53.4504 63.3232L54.6765 63.6638C54.7855 63.691 54.8536 63.8 54.8263 63.9226ZM53.2324 63.4731C53.2052 63.5684 53.2597 63.6774 53.355 63.7047L54.5811 64.0452C54.6765 64.0725 54.7718 64.018 54.7991 63.909C54.8263 63.8136 54.7718 63.7047 54.6765 63.6774L53.4504 63.3368C53.355 63.3232 53.2597 63.3777 53.2324 63.4731Z" fill="white"/>
<path d="M56.7335 63.2685C56.6926 63.3775 56.57 63.4184 56.4746 63.3775L53.8454 62.2877C53.75 62.2468 53.6955 62.1242 53.7364 62.0288C53.7773 61.9198 53.8999 61.879 53.9952 61.9198L56.6245 63.0097C56.7335 63.0506 56.7743 63.1732 56.7335 63.2685Z" fill="#F3F3F3"/>
<path d="M56.7479 63.2821C56.707 63.3911 56.5844 63.4456 56.4755 63.4047L53.8462 62.3148C53.7372 62.274 53.6964 62.1514 53.7372 62.0288C53.7781 61.9198 53.9007 61.8653 54.0097 61.9061L56.6389 62.996C56.7479 63.0505 56.7888 63.1731 56.7479 63.2821ZM53.7645 62.0424C53.7236 62.1377 53.7645 62.2467 53.8598 62.2876L56.4891 63.3774C56.5844 63.4183 56.6798 63.3638 56.7207 63.2685C56.7615 63.1731 56.7207 63.0641 56.6253 63.0232L53.9961 61.9334C53.9007 61.9061 53.7917 61.947 53.7645 62.0424Z" fill="white"/>
<path d="M55.8482 61.4293C55.7937 61.5246 55.6848 61.5655 55.5894 61.5246L54.4587 60.9525C54.3633 60.9116 54.3225 60.789 54.3769 60.68C54.4314 60.5846 54.5404 60.5438 54.6358 60.5846L55.7665 61.1568C55.8619 61.2113 55.9027 61.3339 55.8482 61.4293Z" fill="#F3F3F3"/>
<path d="M55.8624 61.4428C55.8079 61.5518 55.6853 61.5927 55.5763 61.5382L54.4456 60.966C54.3366 60.9115 54.2957 60.7889 54.3502 60.6799C54.4047 60.571 54.5273 60.5301 54.6363 60.5846L55.767 61.1567C55.876 61.1976 55.9169 61.3338 55.8624 61.4428ZM54.3911 60.6936C54.3502 60.7889 54.3774 60.8979 54.4728 60.9388L55.6035 61.5109C55.6853 61.5518 55.7942 61.5109 55.8487 61.4292C55.8896 61.3338 55.8624 61.2249 55.767 61.184L54.6227 60.6118C54.5409 60.571 54.4319 60.5982 54.3911 60.6936Z" fill="white"/>
<path d="M57.8514 61.1709C57.7832 61.2663 57.6743 61.2935 57.5789 61.2254L55.2221 59.6587C55.1267 59.6042 55.1131 59.4816 55.1676 59.3863C55.2221 59.2909 55.3447 59.2637 55.4401 59.3318L57.8105 60.9121C57.8922 60.9665 57.9195 61.0892 57.8514 61.1709Z" fill="#F3F3F3"/>
<path d="M57.865 61.1841C57.7969 61.2795 57.6607 61.3067 57.5653 61.2522L55.2085 59.672C55.1132 59.6038 55.0859 59.4812 55.154 59.3723C55.2222 59.2769 55.3584 59.2496 55.4538 59.3041L57.8105 60.8844C57.9195 60.9525 57.9332 61.0888 57.865 61.1841ZM55.1813 59.3859C55.1268 59.4676 55.1404 59.5902 55.2222 59.6447L57.5926 61.225C57.6743 61.2795 57.7833 61.2522 57.8378 61.1705C57.8923 61.0888 57.8787 60.9662 57.7969 60.9117L55.4265 59.3314C55.3448 59.2769 55.2358 59.3041 55.1813 59.3859Z" fill="white"/>
<path d="M57.3466 59.195C57.2785 59.2767 57.1559 59.304 57.0741 59.2359L56.0796 58.4594C55.9979 58.3912 55.9843 58.2686 56.0524 58.1869C56.1205 58.1052 56.2431 58.0779 56.3249 58.146L57.3193 58.9225C57.4011 58.9907 57.4147 59.1133 57.3466 59.195Z" fill="#F3F3F3"/>
<path d="M57.361 59.2086C57.2929 59.304 57.1567 59.3176 57.0613 59.2495L56.0668 58.473C55.9715 58.4049 55.9579 58.2686 56.026 58.1733C56.0941 58.0779 56.2303 58.0643 56.3257 58.1324L57.3202 58.9089C57.4155 58.977 57.4291 59.1133 57.361 59.2086ZM56.0532 58.1869C55.9851 58.2686 55.9987 58.3776 56.0805 58.4457L57.0749 59.2223C57.1567 59.2768 57.2657 59.2631 57.3338 59.1814C57.4019 59.0997 57.3883 58.9907 57.3065 58.9226L56.3121 58.146C56.2303 58.0915 56.1213 58.1052 56.0532 58.1869Z" fill="white"/>
<path d="M59.3772 59.3315C59.2954 59.4132 59.1728 59.4132 59.1047 59.3315L57.0749 57.3289C56.9931 57.2471 57.0068 57.1245 57.0749 57.0564C57.1566 56.9747 57.2792 56.9747 57.3473 57.0564L59.3635 59.059C59.4453 59.1271 59.4453 59.2634 59.3772 59.3315Z" fill="#F3F3F3"/>
<path d="M59.3772 59.345C59.2955 59.4268 59.1593 59.4268 59.0775 59.345L57.0613 57.3425C56.9796 57.2607 56.9796 57.1245 57.0613 57.0427C57.143 56.961 57.2793 56.961 57.361 57.0427L59.3772 59.0453C59.4726 59.1271 59.4726 59.2633 59.3772 59.345ZM57.0886 57.07C57.0204 57.1381 57.0204 57.2607 57.0886 57.3288L59.1048 59.3314C59.1729 59.3995 59.2955 59.3995 59.3636 59.3314C59.4317 59.2633 59.4317 59.1407 59.3636 59.0726L57.3474 57.0564C57.2793 56.9883 57.1703 56.9883 57.0886 57.07Z" fill="white"/>
<path d="M59.2545 57.3019C59.1728 57.37 59.0502 57.37 58.982 57.2883L58.151 56.3347C58.0829 56.2529 58.0965 56.1303 58.1783 56.0622C58.26 55.9941 58.3826 55.9941 58.4507 56.0758L59.2817 57.0294C59.3499 57.0975 59.3362 57.2202 59.2545 57.3019Z" fill="#F3F3F3"/>
<path d="M59.2674 57.3014C59.172 57.3831 59.0494 57.3695 58.9677 57.2877L58.1367 56.3341C58.0549 56.2524 58.0686 56.1161 58.1639 56.0344C58.2593 55.9527 58.3819 55.9663 58.4636 56.048L59.2946 57.0016C59.3628 57.097 59.3628 57.2332 59.2674 57.3014ZM58.1775 56.0617C58.0958 56.1298 58.0958 56.2388 58.1503 56.3205L58.9813 57.2741C59.0494 57.3422 59.1584 57.3558 59.2401 57.2877C59.3219 57.2196 59.3219 57.1106 59.2674 57.0289L58.4364 56.0753C58.3683 55.9935 58.2593 55.9935 58.1775 56.0617Z" fill="white"/>
<path d="M61.216 57.8192C61.1206 57.8873 60.998 57.8601 60.9435 57.7647L59.3496 55.408C59.2951 55.3126 59.3224 55.19 59.4041 55.1355C59.4995 55.0674 59.6221 55.0946 59.6766 55.19L61.2569 57.5468C61.325 57.6421 61.2977 57.7647 61.216 57.8192Z" fill="#F3F3F3"/>
<path d="M61.2159 57.8328C61.1206 57.9009 60.9844 57.8737 60.9162 57.7783L59.336 55.4215C59.2678 55.3262 59.2951 55.1899 59.4041 55.1218C59.4994 55.0537 59.6357 55.081 59.7038 55.1763L61.2841 57.5331C61.3522 57.6421 61.3249 57.7647 61.2159 57.8328ZM59.4177 55.1491C59.336 55.2036 59.3087 55.3125 59.3632 55.3943L60.9435 57.7511C60.998 57.8328 61.107 57.8464 61.2023 57.7919C61.2841 57.7374 61.3113 57.6285 61.2568 57.5467L59.6765 55.2036C59.622 55.1218 59.4994 55.0946 59.4177 55.1491Z" fill="white"/>
<path d="M61.5017 55.8029C61.4063 55.8574 61.2837 55.8301 61.2292 55.7348L60.6025 54.6313C60.548 54.5359 60.5889 54.4133 60.6843 54.3588C60.7796 54.3043 60.9022 54.3316 60.9567 54.4269L61.5834 55.5304C61.6243 55.6258 61.597 55.7484 61.5017 55.8029Z" fill="#F3F3F3"/>
<path d="M61.5015 55.8165C61.3925 55.871 61.2699 55.8437 61.2154 55.7484L60.5888 54.6449C60.5343 54.5496 60.5615 54.4133 60.6705 54.3588C60.7795 54.3043 60.9021 54.3316 60.9566 54.4269L61.5833 55.5304C61.6377 55.6258 61.6105 55.7484 61.5015 55.8165ZM60.6841 54.3725C60.6024 54.4269 60.5615 54.5359 60.616 54.6177L61.2427 55.7211C61.2972 55.8029 61.4062 55.8301 61.4879 55.7892C61.5696 55.7348 61.6105 55.6258 61.556 55.544L60.9293 54.4406C60.8885 54.3588 60.7659 54.318 60.6841 54.3725Z" fill="white"/>
<path d="M63.3135 56.7024C63.2045 56.7432 63.0956 56.7024 63.0547 56.607L61.9512 53.9777C61.9104 53.8824 61.9649 53.7598 62.0602 53.7189C62.1692 53.678 62.2782 53.7189 62.3191 53.8143L63.4225 56.4435C63.4634 56.5389 63.4089 56.6615 63.3135 56.7024Z" fill="#F3F3F3"/>
<path d="M63.3143 56.7157C63.2053 56.7566 63.0827 56.7157 63.0282 56.6067L61.9247 53.9775C61.8838 53.8685 61.9383 53.7459 62.0473 53.705C62.1563 53.6641 62.2789 53.705 62.3334 53.814L63.4369 56.4432C63.4777 56.5386 63.4232 56.6612 63.3143 56.7157ZM62.0746 53.7322C61.9792 53.7731 61.9383 53.8821 61.9792 53.9638L63.0827 56.5931C63.1235 56.6884 63.2325 56.7293 63.3279 56.6884C63.4232 56.6476 63.4641 56.5386 63.4232 56.4569L62.3198 53.8276C62.2653 53.7322 62.1699 53.6914 62.0746 53.7322Z" fill="white"/>
<path d="M63.9814 54.7677C63.8725 54.8086 63.7635 54.7541 63.7226 54.6451L63.3275 53.4463C63.2867 53.3509 63.3548 53.2283 63.4501 53.201C63.5455 53.1738 63.6681 53.2147 63.709 53.3237L64.104 54.5225C64.1449 54.6178 64.0904 54.7268 63.9814 54.7677Z" fill="#F3F3F3"/>
<path d="M63.9949 54.7813C63.886 54.8222 63.7634 54.7677 63.7225 54.6587L63.3274 53.4599C63.2865 53.3509 63.3547 53.2283 63.4636 53.1874C63.5726 53.1465 63.6952 53.201 63.7361 53.31L64.1312 54.5088C64.1584 54.6178 64.1039 54.7404 63.9949 54.7813ZM63.4636 53.2146C63.3683 53.2419 63.3138 53.3509 63.341 53.4462L63.7361 54.6451C63.7634 54.7404 63.8723 54.7813 63.9677 54.754C64.0631 54.7268 64.1176 54.6178 64.0903 54.5225L63.6952 53.3236C63.668 53.2283 63.559 53.1738 63.4636 53.2146Z" fill="white"/>
<path d="M65.5893 56.0073C65.4803 56.0346 65.3713 55.9665 65.3577 55.8575L64.7856 53.0647C64.7583 52.9558 64.84 52.8604 64.949 52.8332C65.058 52.8059 65.167 52.874 65.1806 52.983L65.7528 55.7757C65.7664 55.8711 65.6983 55.9801 65.5893 56.0073Z" fill="#F3F3F3"/>
<path d="M65.5892 56.0211C65.4666 56.0484 65.3576 55.9667 65.3304 55.8577L64.7582 53.0649C64.731 52.956 64.8127 52.8334 64.9217 52.8197C65.0443 52.7925 65.1533 52.8742 65.1805 52.9832L65.7527 55.7759C65.7799 55.8849 65.7118 55.9939 65.5892 56.0211ZM64.9489 52.847C64.8536 52.8606 64.7855 52.956 64.7991 53.0649L65.3712 55.8577C65.3849 55.953 65.4939 56.0211 65.5892 55.9939C65.6846 55.9803 65.7527 55.8849 65.7391 55.7759L65.1669 52.9832C65.1397 52.8878 65.0443 52.8334 64.9489 52.847Z" fill="white"/>
<path d="M66.6241 54.2366C66.5151 54.2502 66.4197 54.1821 66.3925 54.0731L66.229 52.8198C66.2154 52.7108 66.2971 52.6154 66.4061 52.6018C66.5151 52.5882 66.6105 52.6563 66.6377 52.7653L66.8012 54.0186C66.8148 54.1276 66.7331 54.223 66.6241 54.2366Z" fill="#F3F3F3"/>
<path d="M66.624 54.2499C66.5014 54.2635 66.3924 54.1818 66.3788 54.0728L66.2153 52.8195C66.2017 52.7105 66.2835 52.6015 66.4061 52.5879C66.5287 52.5743 66.6377 52.656 66.6513 52.765L66.8148 54.0183C66.8284 54.1273 66.7466 54.2363 66.624 54.2499ZM66.4197 52.6152C66.3243 52.6288 66.2426 52.7241 66.2562 52.8195L66.4197 54.0728C66.4333 54.1682 66.5287 54.2363 66.624 54.2227C66.7194 54.2091 66.8011 54.1137 66.7875 54.0183L66.624 52.765C66.6104 52.6696 66.5151 52.6015 66.4197 52.6152Z" fill="white"/>
<path d="M68.0955 84.0846C77.0037 84.0846 84.2252 76.8631 84.2252 67.9549C84.2252 59.0467 77.0037 51.8252 68.0955 51.8252C59.1873 51.8252 51.9658 59.0467 51.9658 67.9549C51.9658 76.8631 59.1873 84.0846 68.0955 84.0846Z" fill="url(#paint2_linear_692_18501)" fill-opacity="0.2"/>
<g filter="url(#filter0_d_692_18501)">
<path d="M79.266 57.7241L66.256 66.0614H66.2423V66.075L66.2287 66.0887L58.1094 79.4801L70.0432 69.8759L70.0568 69.8623V69.8486L79.266 57.7241Z" fill="black" fill-opacity="0.05"/>
</g>
<path d="M79.0213 56.9478L66.1611 66.0888L69.9756 69.876L79.0213 56.9478Z" fill="#CD151E"/>
<path d="M66.1748 66.0616L68.0957 67.9552L79.0213 56.9478L66.1748 66.0616Z" fill="#FA5153"/>
<path d="M66.1746 66.0615L69.9891 69.8487L57.1289 78.9898L66.1746 66.0615Z" fill="#ACACAC"/>
<path d="M57.1289 78.9898L68.0955 67.9551L66.1746 66.0615L57.1289 78.9898Z" fill="#EEEEEE"/>
<rect x="36.5" y="36.75" width="63" height="63" rx="31.5" stroke="#DFE7EF"/>
<path d="M318.592 62.3295C317.834 60.5057 316.297 58.5352 315.091 57.9134C315.951 59.5769 316.547 61.3632 316.858 63.2088L316.861 63.2385C314.889 58.3193 311.544 56.337 308.811 52.0179C308.673 51.8001 308.534 51.5803 308.4 51.3506C308.322 51.2179 308.261 51.0991 308.207 50.9902C308.095 50.7703 308.007 50.5386 307.948 50.299C307.948 50.2752 307.93 50.2574 307.908 50.2534C307.898 50.2515 307.887 50.2515 307.875 50.2534C307.873 50.2534 307.869 50.2574 307.867 50.2594C307.865 50.2594 307.859 50.2654 307.855 50.2654L307.861 50.2535C303.478 52.8199 301.991 57.5708 301.855 59.9472C300.104 60.068 298.431 60.7116 297.052 61.7988C296.908 61.6761 296.759 61.5632 296.603 61.4582C296.205 60.0661 296.189 58.5946 296.553 57.1926C294.943 57.9728 293.513 59.0779 292.353 60.4383H292.345C291.654 59.561 291.701 56.6718 291.741 56.0677C291.537 56.1509 291.341 56.2539 291.159 56.3766C290.549 56.8123 289.979 57.3014 289.454 57.8381C288.856 58.4441 288.311 59.0976 287.822 59.7947V59.7967V59.7927C286.701 61.3829 285.905 63.1791 285.481 65.0802L285.458 65.1951C285.424 65.3495 285.307 66.1179 285.285 66.2842C285.285 66.2982 285.283 66.31 285.281 66.3219C285.131 67.116 285.036 67.92 285 68.728V68.8171C285.008 78.4534 292.828 86.2599 302.465 86.25C310.952 86.2421 318.202 80.1307 319.644 71.7658C319.674 71.5401 319.697 71.3183 319.723 71.0905C320.084 68.1239 319.693 65.1098 318.592 62.3295ZM298.482 75.9859C298.563 76.0254 298.641 76.0671 298.724 76.1047L298.736 76.1126C298.65 76.073 298.565 76.0314 298.482 75.9859ZM316.864 63.2424V63.2266L316.867 63.2444L316.864 63.2424Z" fill="url(#paint3_linear_692_18501)"/>
<path d="M318.592 62.3297C317.834 60.5058 316.297 58.5354 315.091 57.9136C315.951 59.5771 316.547 61.3633 316.858 63.209V63.2248L316.862 63.2426C318.206 67.0905 318.012 71.3105 316.319 75.0197C314.319 79.311 309.479 83.7094 301.902 83.4955C293.716 83.2638 286.505 77.1881 285.156 69.2311C284.911 67.9756 285.156 67.3399 285.279 66.32C285.113 67.1122 285.018 67.9182 285 68.7281V68.8172C285.008 78.4536 292.828 86.26 302.465 86.2501C310.952 86.2422 318.202 80.1309 319.644 71.7659C319.674 71.5402 319.697 71.3184 319.723 71.0907C320.084 68.1241 319.694 65.11 318.592 62.3297Z" fill="url(#paint4_radial_692_18501)"/>
<path d="M318.592 62.3297C317.834 60.5058 316.297 58.5354 315.091 57.9136C315.951 59.5771 316.547 61.3633 316.858 63.209V63.2248L316.862 63.2426C318.206 67.0905 318.012 71.3105 316.319 75.0197C314.319 79.311 309.479 83.7094 301.902 83.4955C293.716 83.2638 286.505 77.1881 285.156 69.2311C284.911 67.9756 285.156 67.3399 285.279 66.32C285.113 67.1122 285.018 67.9182 285 68.7281V68.8172C285.008 78.4536 292.828 86.26 302.465 86.2501C310.952 86.2422 318.202 80.1309 319.644 71.7659C319.674 71.5402 319.697 71.3184 319.723 71.0907C320.084 68.1241 319.694 65.11 318.592 62.3297Z" fill="url(#paint5_radial_692_18501)"/>
<path d="M310.112 64.379C310.15 64.4048 310.186 64.4325 310.221 64.4582C309.784 63.682 309.237 62.9691 308.601 62.3453C303.177 56.9212 307.18 50.5861 307.855 50.2633L307.861 50.2534C303.478 52.8199 301.991 57.5707 301.854 59.9471C302.058 59.9333 302.26 59.9154 302.468 59.9154C305.633 59.9213 308.552 61.6264 310.112 64.379Z" fill="url(#paint6_radial_692_18501)"/>
<path d="M302.478 65.4625C302.448 65.8962 300.916 67.3933 300.379 67.3933C295.418 67.3933 294.612 70.3956 294.612 70.3956C294.832 72.9224 296.593 75.0037 298.721 76.1048C298.819 76.1543 298.918 76.1998 299.017 76.2454C299.187 76.3207 299.357 76.392 299.53 76.4554C300.26 76.7147 301.025 76.8613 301.799 76.893C310.495 77.3009 312.18 66.4943 305.904 63.3574C307.385 63.1653 308.885 63.5297 310.11 64.3792C308.552 61.6266 305.633 59.9215 302.466 59.9155C302.258 59.9155 302.056 59.9334 301.852 59.9472C300.102 60.068 298.428 60.7116 297.05 61.7988C297.316 62.0245 297.617 62.3256 298.248 62.9474C299.434 64.1139 302.472 65.3219 302.478 65.4625Z" fill="url(#paint7_radial_692_18501)"/>
<path d="M302.478 65.4625C302.448 65.8962 300.916 67.3933 300.379 67.3933C295.418 67.3933 294.612 70.3956 294.612 70.3956C294.832 72.9224 296.593 75.0037 298.721 76.1048C298.819 76.1543 298.918 76.1998 299.017 76.2454C299.187 76.3207 299.357 76.392 299.53 76.4554C300.26 76.7147 301.025 76.8613 301.799 76.893C310.495 77.3009 312.18 66.4943 305.904 63.3574C307.385 63.1653 308.885 63.5297 310.11 64.3792C308.552 61.6266 305.633 59.9215 302.466 59.9155C302.258 59.9155 302.056 59.9334 301.852 59.9472C300.102 60.068 298.428 60.7116 297.05 61.7988C297.316 62.0245 297.617 62.3256 298.248 62.9474C299.434 64.1139 302.472 65.3219 302.478 65.4625Z" fill="url(#paint8_radial_692_18501)"/>
<path d="M296.239 61.2165C296.38 61.3055 296.496 61.3848 296.599 61.4561C296.201 60.0638 296.185 58.5925 296.55 57.1904C294.94 57.9707 293.51 59.0757 292.35 60.4362C292.437 60.4343 294.968 60.3887 296.239 61.2165Z" fill="url(#paint9_radial_692_18501)"/>
<path d="M285.159 69.2311C286.505 77.188 293.716 83.2617 301.902 83.4954C309.479 83.7093 314.319 79.311 316.319 75.0196C318.012 71.3105 318.206 67.0923 316.862 63.2426V63.2267C316.862 63.2128 316.86 63.207 316.862 63.2109L316.866 63.2406C317.485 67.2824 315.43 71.1975 312.216 73.8453L312.206 73.867C305.944 78.9664 299.952 76.9445 298.74 76.1187C298.654 76.0791 298.571 76.0355 298.486 75.9919C294.836 74.2472 293.327 70.9203 293.65 68.0686C291.88 68.0944 290.26 67.0765 289.517 65.4684C291.466 64.2743 293.894 64.1773 295.932 65.211C297.997 66.1496 300.35 66.2408 302.482 65.4684C302.476 65.3259 299.439 64.1179 298.254 62.9515C297.623 62.3277 297.322 62.0286 297.056 61.8029C296.912 61.6801 296.763 61.5673 296.607 61.4622C296.504 61.3909 296.387 61.3157 296.246 61.2226C294.973 60.3948 292.442 60.4404 292.359 60.4424H292.351C291.66 59.5651 291.707 56.6758 291.747 56.0718C291.543 56.1549 291.347 56.2579 291.165 56.3807C290.555 56.8164 289.985 57.3055 289.46 57.8422C288.86 58.4461 288.313 59.0997 287.822 59.7948V59.7967V59.7928C286.701 61.383 285.905 63.1792 285.481 65.0803C285.473 65.116 284.854 67.8251 285.159 69.2311Z" fill="url(#paint10_radial_692_18501)"/>
<path d="M308.601 62.3453C309.239 62.9711 309.784 63.6841 310.221 64.4603C310.316 64.5336 310.407 64.6049 310.483 64.6742C314.439 68.32 312.366 73.4748 312.212 73.8431C315.426 71.1954 317.479 67.2803 316.861 63.2385C314.887 58.3174 311.542 56.3351 308.809 52.016C308.671 51.7981 308.532 51.5783 308.397 51.3486C308.32 51.2159 308.259 51.0971 308.205 50.9882C308.092 50.7683 308.005 50.5367 307.946 50.2971C307.946 50.2732 307.928 50.2554 307.906 50.2515C307.896 50.2495 307.885 50.2495 307.873 50.2515C307.871 50.2515 307.867 50.2554 307.865 50.2574C307.863 50.2574 307.857 50.2634 307.853 50.2634C307.18 50.5861 303.177 56.9212 308.601 62.3453Z" fill="url(#paint11_radial_692_18501)"/>
<path d="M310.481 64.6741C310.406 64.6049 310.315 64.5316 310.22 64.4603C310.184 64.4345 310.148 64.4068 310.111 64.381C308.883 63.5315 307.384 63.1671 305.904 63.3592C312.18 66.498 310.497 77.3027 301.799 76.8948C301.025 76.8631 300.26 76.7146 299.53 76.4571C299.359 76.3937 299.189 76.3224 299.017 76.2472C298.918 76.2017 298.819 76.1581 298.722 76.1066L298.734 76.1145C299.945 76.9423 305.936 78.9642 312.2 73.8629L312.21 73.8411C312.366 73.4748 314.438 68.3179 310.481 64.6741Z" fill="url(#paint12_radial_692_18501)"/>
<path d="M294.613 70.3957C294.613 70.3957 295.419 67.3935 300.38 67.3935C300.916 67.3935 302.451 65.8963 302.479 65.4627C300.346 66.2349 297.993 66.1439 295.928 65.2052C293.89 64.1714 291.462 64.2685 289.514 65.4627C290.256 67.0707 291.876 68.0885 293.647 68.0628C293.324 70.9165 294.831 74.2415 298.483 75.9862C298.564 76.0257 298.641 76.0674 298.724 76.105C296.593 75.0039 294.833 72.9226 294.613 70.3957Z" fill="url(#paint13_radial_692_18501)"/>
<path d="M318.592 62.3295C317.834 60.5057 316.297 58.5352 315.091 57.9134C315.951 59.5769 316.547 61.3632 316.858 63.2088L316.862 63.2385C314.889 58.3193 311.544 56.337 308.812 52.0179C308.673 51.8001 308.534 51.5803 308.4 51.3506C308.322 51.2179 308.261 51.0991 308.207 50.9902C308.095 50.7703 308.007 50.5386 307.948 50.299C307.948 50.2752 307.93 50.2574 307.908 50.2534C307.899 50.2515 307.887 50.2515 307.875 50.2534C307.873 50.2534 307.869 50.2574 307.867 50.2594C307.865 50.2594 307.859 50.2654 307.855 50.2654L307.861 50.2535C303.478 52.8199 301.991 57.5708 301.855 59.9472C302.059 59.9334 302.261 59.9155 302.468 59.9155C305.635 59.9215 308.552 61.6266 310.115 64.3792C308.887 63.5297 307.388 63.1653 305.908 63.3574C312.184 66.4962 310.501 77.301 301.803 76.893C301.029 76.8613 300.264 76.7128 299.534 76.4554C299.363 76.392 299.193 76.3207 299.021 76.2454C298.922 76.1998 298.823 76.1563 298.726 76.1048L298.738 76.1128C298.652 76.0731 298.569 76.0296 298.484 75.986C298.565 76.0255 298.643 76.0672 298.726 76.1048C296.595 75.0037 294.836 72.9224 294.616 70.3956C294.616 70.3956 295.423 67.3933 300.383 67.3933C300.92 67.3933 302.455 65.8962 302.482 65.4625C302.476 65.3199 299.439 64.1119 298.254 62.9455C297.623 62.3217 297.322 62.0226 297.056 61.7969C296.912 61.6741 296.763 61.5613 296.607 61.4563C296.209 60.0641 296.193 58.5927 296.557 57.1906C294.947 57.9709 293.517 59.0759 292.357 60.4364H292.349C291.658 59.5591 291.705 56.6699 291.745 56.0658C291.541 56.149 291.345 56.2519 291.163 56.3747C290.553 56.8104 289.982 57.2995 289.458 57.8362C288.86 58.4422 288.315 59.0956 287.826 59.7928V59.7948V59.7908C286.705 61.381 285.909 63.1771 285.485 65.0783L285.461 65.1931C285.428 65.3476 285.281 66.1259 285.259 66.2942C285.259 66.2803 285.259 66.306 285.259 66.2942C285.123 67.1001 285.038 67.9121 285 68.728V68.8171C285.008 78.4534 292.828 86.2599 302.465 86.25C310.952 86.2421 318.202 80.1307 319.644 71.7658C319.674 71.5401 319.697 71.3183 319.723 71.0905C320.084 68.1239 319.693 65.1098 318.592 62.3295Z" fill="url(#paint14_linear_692_18501)"/>
<rect x="270.5" y="36.75" width="63" height="63" rx="31.5" stroke="#DFE7EF"/>
<g clip-path="url(#clip0_692_18501)">
<path d="M192.205 119.742L189.774 119.194L191.667 121.944V130.46L198.143 124.96V115.612L195.174 116.709L192.205 119.733V119.742ZM191.667 135.677L195.174 132.105V128.532L191.667 131.557V135.677ZM187.083 118.911H186.966H187.092H187.083ZM195.999 107.992L200.295 107.645L198.672 114.516L190.617 117.568L195.981 108.001L195.999 107.992ZM174.131 116.718L171.162 115.622V124.969L177.638 130.469V121.954L179.53 119.203L177.1 119.752L174.131 116.727V116.718ZM177.638 131.557L174.131 128.532V132.105L177.638 135.677V131.557ZM173.305 108.001L178.669 117.568L170.624 114.516L169 107.645L173.297 107.992L173.305 108.001ZM190.859 122.484V134.855L189.236 137.322L187.352 139.25H181.952L180.069 137.322L178.445 134.855V122.484L180.14 119.907L184.652 127.737L189.164 119.907L190.859 122.484ZM189.496 103.25L189.245 103.88L184.652 115.201L180.06 103.88L179.809 103.25H189.496Z" fill="#1DA750"/>
</g>
<rect x="153.5" y="89.75" width="63" height="63" rx="31.5" stroke="#DFE7EF"/>
<g clip-path="url(#clip1_692_18501)">
<path d="M67.8858 156.253C67.8858 156.253 78.4589 155.778 84.0622 166.403H66.9864C66.9864 166.403 63.7613 166.297 61.0127 170.21C60.2202 171.849 59.3743 173.541 60.3256 176.871C58.9513 174.545 53.0303 164.236 53.0303 164.236C53.0303 164.236 57.2075 156.676 67.8858 156.253Z" fill="#E6322A"/>
<path d="M83.5118 183.232C83.5118 183.232 78.636 192.625 66.6318 192.163C68.1131 189.6 75.1714 177.377 75.1714 177.377C75.1714 177.377 76.8757 174.637 74.8636 170.3C73.8407 168.794 72.7989 167.215 69.4389 166.374C72.1414 166.347 84.0286 166.376 84.0286 166.376C84.0286 166.376 88.4865 173.773 83.5118 183.232Z" fill="#FEDA00"/>
<path d="M52.3348 183.303C52.3348 183.303 46.6384 174.383 53.0409 164.218C54.5205 166.783 61.5755 179.008 61.5755 179.008C61.5755 179.008 63.0954 181.854 67.8578 182.28C69.6731 182.147 71.5618 182.035 73.9705 179.546C72.6423 181.899 66.6736 192.18 66.6736 192.18C66.6736 192.18 58.0385 192.341 52.3348 183.303Z" fill="#65B54C"/>
<path d="M66.6318 192.25L69.034 182.228C69.034 182.228 71.6748 182.022 73.8876 179.593C72.5142 182.009 66.6318 192.25 66.6318 192.25Z" fill="#60AC48"/>
<path d="M59.8418 174.362C59.8418 169.944 63.4232 166.362 67.8415 166.362C72.2598 166.362 75.8413 169.944 75.8413 174.362C75.8413 178.78 72.2598 182.363 67.8415 182.363C63.4232 182.363 59.8418 178.781 59.8418 174.362Z" fill="white"/>
<path d="M61.1807 174.362C61.1807 170.683 64.163 167.701 67.8423 167.701C71.5216 167.701 74.5031 170.683 74.5031 174.362C74.5031 178.04 71.5208 181.023 67.8423 181.023C64.1638 181.023 61.1807 178.04 61.1807 174.362Z" fill="url(#paint15_linear_692_18501)"/>
<path d="M84.0284 166.375L74.1384 169.275C74.1384 169.275 72.6472 167.086 69.4395 166.374C72.2185 166.364 84.0292 166.375 84.0292 166.375H84.0284Z" fill="#F1CF00"/>
<path d="M60.134 176.511C58.744 174.104 53.0312 164.236 53.0312 164.236L60.3578 171.483C60.3578 171.483 59.6048 173.032 59.8904 175.244L60.134 176.511Z" fill="#DA3027"/>
</g>
<rect x="36.5" y="142.75" width="63" height="63" rx="31.5" stroke="#DFE7EF"/>
<g clip-path="url(#clip2_692_18501)">
<path d="M316.492 183.045C316.012 183.296 315.517 183.517 315.009 183.707C313.395 184.311 311.685 184.619 309.961 184.615C303.307 184.615 297.51 180.038 297.51 174.164C297.519 173.376 297.737 172.605 298.143 171.93C298.549 171.255 299.128 170.7 299.821 170.324C293.802 170.577 292.255 176.849 292.255 180.523C292.255 190.913 301.83 191.966 303.893 191.966C305.005 191.966 306.683 191.642 307.69 191.325L307.874 191.263C311.749 189.923 315.052 187.305 317.24 183.838C317.307 183.732 317.337 183.607 317.325 183.483C317.313 183.358 317.26 183.241 317.174 183.15C317.088 183.059 316.975 183 316.851 182.98C316.727 182.961 316.601 182.984 316.492 183.045Z" fill="url(#paint16_linear_692_18501)"/>
<path opacity="0.35" d="M316.492 183.045C316.012 183.296 315.517 183.517 315.009 183.707C313.395 184.311 311.685 184.619 309.961 184.615C303.307 184.615 297.51 180.038 297.51 174.164C297.519 173.376 297.737 172.605 298.143 171.93C298.549 171.255 299.128 170.7 299.821 170.324C293.802 170.577 292.255 176.849 292.255 180.523C292.255 190.913 301.83 191.966 303.893 191.966C305.005 191.966 306.683 191.642 307.69 191.325L307.874 191.263C311.749 189.923 315.052 187.305 317.24 183.838C317.307 183.732 317.337 183.607 317.325 183.483C317.313 183.358 317.26 183.241 317.174 183.15C317.088 183.059 316.975 183 316.851 182.98C316.727 182.961 316.601 182.984 316.492 183.045Z" fill="url(#paint17_radial_692_18501)"/>
<path d="M298.865 190.2C297.611 189.421 296.524 188.401 295.667 187.199C294.691 185.861 294.019 184.326 293.699 182.702C293.379 181.077 293.418 179.402 293.814 177.794C294.209 176.186 294.952 174.684 295.99 173.394C297.027 172.103 298.335 171.055 299.82 170.324C300.259 170.117 301.008 169.743 302.005 169.761C302.708 169.766 303.4 169.934 304.026 170.251C304.653 170.568 305.198 171.026 305.618 171.589C306.186 172.347 306.499 173.266 306.512 174.213C306.512 174.184 309.952 163.02 295.262 163.02C289.089 163.02 284.012 168.878 284.012 174.018C283.988 176.737 284.57 179.427 285.715 181.893C287.588 185.887 290.862 189.055 294.916 190.795C298.97 192.535 303.521 192.725 307.706 191.33C306.241 191.792 304.693 191.931 303.169 191.737C301.644 191.542 300.181 191.02 298.878 190.205L298.865 190.2Z" fill="url(#paint18_linear_692_18501)"/>
<path opacity="0.41" d="M298.865 190.2C297.611 189.421 296.524 188.401 295.667 187.199C294.691 185.861 294.019 184.326 293.699 182.702C293.379 181.077 293.418 179.402 293.814 177.794C294.209 176.186 294.952 174.684 295.99 173.394C297.027 172.103 298.335 171.055 299.82 170.324C300.259 170.117 301.008 169.743 302.005 169.761C302.708 169.766 303.4 169.934 304.026 170.251C304.653 170.568 305.198 171.026 305.618 171.589C306.186 172.347 306.499 173.266 306.512 174.213C306.512 174.184 309.952 163.02 295.262 163.02C289.089 163.02 284.012 168.878 284.012 174.018C283.988 176.737 284.57 179.427 285.715 181.893C287.588 185.887 290.862 189.055 294.916 190.795C298.97 192.535 303.521 192.725 307.706 191.33C306.241 191.792 304.693 191.931 303.169 191.737C301.644 191.542 300.181 191.02 298.878 190.205L298.865 190.2Z" fill="url(#paint19_radial_692_18501)"/>
<path d="M305.418 177.183C305.305 177.331 304.954 177.535 304.954 177.979C304.954 178.346 305.193 178.699 305.618 178.996C307.64 180.402 311.453 180.217 311.463 180.217C312.961 180.213 314.431 179.808 315.719 179.042C317.019 178.284 318.098 177.198 318.848 175.894C319.599 174.589 319.995 173.111 319.998 171.606C320.035 168.455 318.873 166.36 318.404 165.431C315.424 159.602 308.992 156.25 301.997 156.25C297.267 156.25 292.726 158.111 289.358 161.432C285.989 164.753 284.064 169.267 283.997 173.997C284.065 168.858 289.172 164.709 295.247 164.709C295.739 164.709 298.546 164.756 301.153 166.125C303.451 167.331 304.655 168.788 305.492 170.232C306.361 171.733 306.515 173.628 306.515 174.384C306.515 175.139 306.13 176.258 305.418 177.183Z" fill="url(#paint20_radial_692_18501)"/>
<path d="M305.418 177.183C305.305 177.331 304.954 177.535 304.954 177.979C304.954 178.346 305.193 178.699 305.618 178.996C307.64 180.402 311.453 180.217 311.463 180.217C312.961 180.213 314.431 179.808 315.719 179.042C317.019 178.284 318.098 177.198 318.848 175.894C319.599 174.589 319.995 173.111 319.998 171.606C320.035 168.455 318.873 166.36 318.404 165.431C315.424 159.602 308.992 156.25 301.997 156.25C297.267 156.25 292.726 158.111 289.358 161.432C285.989 164.753 284.064 169.267 283.997 173.997C284.065 168.858 289.172 164.709 295.247 164.709C295.739 164.709 298.546 164.756 301.153 166.125C303.451 167.331 304.655 168.788 305.492 170.232C306.361 171.733 306.515 173.628 306.515 174.384C306.515 175.139 306.13 176.258 305.418 177.183Z" fill="url(#paint21_radial_692_18501)"/>
</g>
<rect x="270.5" y="142.75" width="63" height="63" rx="31.5" stroke="#DFE7EF"/>
<path d="M68 100.25V142.25" stroke="#DFE7EF" stroke-linecap="round"/>
<path d="M302 100.25V142.25" stroke="#DFE7EF" stroke-linecap="round"/>
<path d="M270 68.25L100 68.25" stroke="#DFE7EF" stroke-linecap="round"/>
<path d="M270 174.25H100" stroke="#DFE7EF" stroke-linecap="round"/>
<path d="M302 121.25H217" stroke="#DFE7EF" stroke-linecap="round"/>
<path d="M153 121.25H68" stroke="#DFE7EF" stroke-linecap="round"/>
<path d="M185 89.25L185 68.25" stroke="#DFE7EF" stroke-linecap="round"/>
<path d="M185 174.25L185 153.25" stroke="#DFE7EF" stroke-linecap="round"/>
<circle cx="302" cy="121.25" r="3.5" fill="#EFF3F8" stroke="#DFE7EF"/>
<circle cx="68" cy="121.25" r="3.5" fill="#EFF3F8" stroke="#DFE7EF"/>
<circle cx="185" cy="173.25" r="3.5" fill="#EFF3F8" stroke="#DFE7EF"/>
<circle cx="185" cy="68.25" r="3.5" fill="#EFF3F8" stroke="#DFE7EF"/>
<defs>
<filter id="filter0_d_692_18501" x="54.1094" y="54.7241" width="29.1567" height="29.7559" filterUnits="userSpaceOnUse" color-interpolation-filters="sRGB">
<feFlood flood-opacity="0" result="BackgroundImageFix"/>
<feColorMatrix in="SourceAlpha" type="matrix" values="0 0 0 0 0 0 0 0 0 0 0 0 0 0 0 0 0 0 127 0" result="hardAlpha"/>
<feOffset dy="1"/>
<feGaussianBlur stdDeviation="2"/>
<feColorMatrix type="matrix" values="0 0 0 0 0 0 0 0 0 0 0 0 0 0 0 0 0 0 0.0509804 0"/>
<feBlend mode="normal" in2="BackgroundImageFix" result="effect1_dropShadow_692_18501"/>
<feBlend mode="normal" in="SourceGraphic" in2="effect1_dropShadow_692_18501" result="shape"/>
</filter>
<linearGradient id="paint0_linear_692_18501" x1="1794.31" y1="3538.03" x2="1794.31" y2="50.5312" gradientUnits="userSpaceOnUse">
<stop offset="0.25" stop-color="#DBDBDA"/>
<stop offset="1" stop-color="white"/>
</linearGradient>
<radialGradient id="paint1_radial_692_18501" cx="0" cy="0" r="1" gradientUnits="userSpaceOnUse" gradientTransform="translate(1891.47 1310.49) scale(1968.84)">
<stop stop-color="#2ABCE1"/>
<stop offset="0.113629" stop-color="#2ABBE1"/>
<stop offset="1" stop-color="#3375F8"/>
</radialGradient>
<linearGradient id="paint2_linear_692_18501" x1="1634.3" y1="1203.6" x2="881.448" y2="2554.25" gradientUnits="userSpaceOnUse">
<stop stop-opacity="0"/>
<stop offset="1"/>
</linearGradient>
<linearGradient id="paint3_linear_692_18501" x1="316.28" y1="55.8264" x2="287.315" y2="83.772" gradientUnits="userSpaceOnUse">
<stop offset="0.048" stop-color="#FFF44F"/>
<stop offset="0.111" stop-color="#FFE847"/>
<stop offset="0.225" stop-color="#FFC830"/>
<stop offset="0.368" stop-color="#FF980E"/>
<stop offset="0.401" stop-color="#FF8B16"/>
<stop offset="0.462" stop-color="#FF672A"/>
<stop offset="0.534" stop-color="#FF3647"/>
<stop offset="0.705" stop-color="#E31587"/>
</linearGradient>
<radialGradient id="paint4_radial_692_18501" cx="0" cy="0" r="1" gradientUnits="userSpaceOnUse" gradientTransform="translate(314.944 54.2471) scale(36.3742 36.3742)">
<stop offset="0.129" stop-color="#FFBD4F"/>
<stop offset="0.186" stop-color="#FFAC31"/>
<stop offset="0.247" stop-color="#FF9D17"/>
<stop offset="0.283" stop-color="#FF980E"/>
<stop offset="0.403" stop-color="#FF563B"/>
<stop offset="0.467" stop-color="#FF3750"/>
<stop offset="0.71" stop-color="#F5156C"/>
<stop offset="0.782" stop-color="#EB0878"/>
<stop offset="0.86" stop-color="#E50080"/>
</radialGradient>
<radialGradient id="paint5_radial_692_18501" cx="0" cy="0" r="1" gradientUnits="userSpaceOnUse" gradientTransform="translate(301.652 69.118) scale(36.3743)">
<stop offset="0.3" stop-color="#960E18"/>
<stop offset="0.351" stop-color="#B11927" stop-opacity="0.74"/>
<stop offset="0.435" stop-color="#DB293D" stop-opacity="0.343"/>
<stop offset="0.497" stop-color="#F5334B" stop-opacity="0.094"/>
<stop offset="0.53" stop-color="#FF3750" stop-opacity="0"/>
</radialGradient>
<radialGradient id="paint6_radial_692_18501" cx="0" cy="0" r="1" gradientUnits="userSpaceOnUse" gradientTransform="translate(306.038 45.9922) scale(26.3507 26.3507)">
<stop offset="0.132" stop-color="#FFF44F"/>
<stop offset="0.252" stop-color="#FFDC3E"/>
<stop offset="0.506" stop-color="#FF9D12"/>
<stop offset="0.526" stop-color="#FF980E"/>
</radialGradient>
<radialGradient id="paint7_radial_692_18501" cx="0" cy="0" r="1" gradientUnits="userSpaceOnUse" gradientTransform="translate(297.629 78.619) scale(17.3194)">
<stop offset="0.353" stop-color="#3A8EE6"/>
<stop offset="0.472" stop-color="#5C79F0"/>
<stop offset="0.669" stop-color="#9059FF"/>
<stop offset="1" stop-color="#C139E6"/>
</radialGradient>
<radialGradient id="paint8_radial_692_18501" cx="0" cy="0" r="1" gradientUnits="userSpaceOnUse" gradientTransform="translate(303.639 66.1366) rotate(-13.5992) scale(9.18361 10.75)">
<stop offset="0.206" stop-color="#9059FF" stop-opacity="0"/>
<stop offset="0.278" stop-color="#8C4FF3" stop-opacity="0.064"/>
<stop offset="0.747" stop-color="#7716A8" stop-opacity="0.45"/>
<stop offset="0.975" stop-color="#6E008B" stop-opacity="0.6"/>
</radialGradient>
<radialGradient id="paint9_radial_692_18501" cx="0" cy="0" r="1" gradientUnits="userSpaceOnUse" gradientTransform="translate(301.194 52.7586) scale(12.4597 12.4596)">
<stop stop-color="#FFE226"/>
<stop offset="0.121" stop-color="#FFDB27"/>
<stop offset="0.295" stop-color="#FFC82A"/>
<stop offset="0.502" stop-color="#FFA930"/>
<stop offset="0.732" stop-color="#FF7E37"/>
<stop offset="0.792" stop-color="#FF7139"/>
</radialGradient>
<radialGradient id="paint10_radial_692_18501" cx="0" cy="0" r="1" gradientUnits="userSpaceOnUse" gradientTransform="translate(310.987 44.856) scale(53.1591 53.1591)">
<stop offset="0.113" stop-color="#FFF44F"/>
<stop offset="0.456" stop-color="#FF980E"/>
<stop offset="0.622" stop-color="#FF5634"/>
<stop offset="0.716" stop-color="#FF3647"/>
<stop offset="0.904" stop-color="#E31587"/>
</radialGradient>
<radialGradient id="paint11_radial_692_18501" cx="0" cy="0" r="1" gradientUnits="userSpaceOnUse" gradientTransform="translate(306.505 47.8115) rotate(83.9727) scale(38.9617 25.5682)">
<stop stop-color="#FFF44F"/>
<stop offset="0.06" stop-color="#FFE847"/>
<stop offset="0.168" stop-color="#FFC830"/>
<stop offset="0.304" stop-color="#FF980E"/>
<stop offset="0.356" stop-color="#FF8B16"/>
<stop offset="0.455" stop-color="#FF672A"/>
<stop offset="0.57" stop-color="#FF3647"/>
<stop offset="0.737" stop-color="#E31587"/>
</radialGradient>
<radialGradient id="paint12_radial_692_18501" cx="0" cy="0" r="1" gradientUnits="userSpaceOnUse" gradientTransform="translate(300.9 57.3736) scale(33.1882 33.1882)">
<stop offset="0.137" stop-color="#FFF44F"/>
<stop offset="0.48" stop-color="#FF980E"/>
<stop offset="0.592" stop-color="#FF5634"/>
<stop offset="0.655" stop-color="#FF3647"/>
<stop offset="0.904" stop-color="#E31587"/>
</radialGradient>
<radialGradient id="paint13_radial_692_18501" cx="0" cy="0" r="1" gradientUnits="userSpaceOnUse" gradientTransform="translate(309.661 59.3163) scale(36.3244 36.3244)">
<stop offset="0.094" stop-color="#FFF44F"/>
<stop offset="0.231" stop-color="#FFE141"/>
<stop offset="0.509" stop-color="#FFAF1E"/>
<stop offset="0.626" stop-color="#FF980E"/>
</radialGradient>
<linearGradient id="paint14_linear_692_18501" x1="315.933" y1="55.6778" x2="291.286" y2="80.3236" gradientUnits="userSpaceOnUse">
<stop offset="0.167" stop-color="#FFF44F" stop-opacity="0.8"/>
<stop offset="0.266" stop-color="#FFF44F" stop-opacity="0.634"/>
<stop offset="0.489" stop-color="#FFF44F" stop-opacity="0.217"/>
<stop offset="0.6" stop-color="#FFF44F" stop-opacity="0"/>
</linearGradient>
<linearGradient id="paint15_linear_692_18501" x1="67.8415" y1="167.796" x2="67.8415" y2="180.625" gradientUnits="userSpaceOnUse">
<stop stop-color="#96C1E9"/>
<stop offset="1" stop-color="#146CB5"/>
</linearGradient>
<linearGradient id="paint16_linear_692_18501" x1="292.255" y1="181.148" x2="317.334" y2="181.148" gradientUnits="userSpaceOnUse">
<stop stop-color="#0C59A4"/>
<stop offset="1" stop-color="#114A8B"/>
</linearGradient>
<radialGradient id="paint17_radial_692_18501" cx="0" cy="0" r="1" gradientUnits="userSpaceOnUse" gradientTransform="translate(306.106 181.345) scale(13.4128 12.7422)">
<stop offset="0.72" stop-opacity="0"/>
<stop offset="0.95" stop-opacity="0.53"/>
<stop offset="1"/>
</radialGradient>
<linearGradient id="paint18_linear_692_18501" x1="305.476" y1="170.269" x2="289.812" y2="187.331" gradientUnits="userSpaceOnUse">
<stop stop-color="#1B9DE2"/>
<stop offset="0.16" stop-color="#1595DF"/>
<stop offset="0.67" stop-color="#0680D7"/>
<stop offset="1" stop-color="#0078D4"/>
</linearGradient>
<radialGradient id="paint19_radial_692_18501" cx="0" cy="0" r="1" gradientUnits="userSpaceOnUse" gradientTransform="translate(293.924 184.235) rotate(-81.3844) scale(20.1693 16.2948)">
<stop offset="0.76" stop-opacity="0"/>
<stop offset="0.95" stop-opacity="0.5"/>
<stop offset="1"/>
</radialGradient>
<radialGradient id="paint20_radial_692_18501" cx="0" cy="0" r="1" gradientUnits="userSpaceOnUse" gradientTransform="translate(287.634 162.912) rotate(92.2906) scale(28.4895 60.6767)">
<stop stop-color="#35C1F1"/>
<stop offset="0.11" stop-color="#34C1ED"/>
<stop offset="0.23" stop-color="#2FC2DF"/>
<stop offset="0.31" stop-color="#2BC3D2"/>
<stop offset="0.67" stop-color="#36C752"/>
</radialGradient>
<radialGradient id="paint21_radial_692_18501" cx="0" cy="0" r="1" gradientUnits="userSpaceOnUse" gradientTransform="translate(317.757 167.135) rotate(73.7398) scale(13.6884 11.1314)">
<stop stop-color="#66EB6E"/>
<stop offset="1" stop-color="#66EB6E" stop-opacity="0"/>
</radialGradient>
<clipPath id="clip0_692_18501">
<rect width="31.3044" height="36" fill="white" transform="translate(169 103.25)"/>
</clipPath>
<clipPath id="clip1_692_18501">
<rect width="35.865" height="36" fill="white" transform="translate(50 156.25)"/>
</clipPath>
<clipPath id="clip2_692_18501">
<rect width="36" height="36" fill="white" transform="translate(284 156.25)"/>
</clipPath>
</defs>
</svg>
