<svg width="370" height="243" viewBox="0 0 370 243" fill="none" xmlns="http://www.w3.org/2000/svg">
<g clip-path="url(#clip0_798_50200)">
<rect y="0.25" width="370" height="242" rx="8" fill="#EFF3F8"/>
<path opacity="0.34" d="M278.039 26.8281H334.513C337.546 26.8281 340.01 29.2925 340.01 32.3252V53.9864C340.01 57.0191 337.546 59.4835 334.513 59.4835H278.039C275.006 59.4835 272.542 57.0191 272.542 53.9864V32.3252C272.542 29.2925 275.006 26.8281 278.039 26.8281Z" fill="#ABC9FB"/>
<path opacity="0.34" d="M85.9745 148.573H37.5976C33.5256 148.573 30.2246 151.874 30.2246 155.946V204.323C30.2246 208.395 33.5256 211.696 37.5976 211.696H85.9745C90.0465 211.696 93.3475 208.395 93.3475 204.323V155.946C93.3475 151.874 90.0465 148.573 85.9745 148.573Z" fill="#ABC9FB"/>
<path d="M298.317 73.4298V42.3889C298.317 39.9798 296.361 38.0234 293.952 38.0234H197.65" stroke="#ABC9FB" stroke-width="4" stroke-miterlimit="10" stroke-linecap="round"/>
<path d="M54.1543 48.8369H286.086V189.441C286.086 190.704 285.06 191.73 283.798 191.73H56.4426C55.1803 191.73 54.1543 190.704 54.1543 189.441V48.8369Z" fill="url(#paint0_linear_798_50200)"/>
<path d="M56.5281 44.7598H283.798C284.784 44.7598 285.586 45.5619 285.586 46.5481V48.3364H54.6543V46.6336C54.6543 45.5978 55.496 44.7598 56.5281 44.7598Z" fill="#3B82F6" stroke="#3B82F6"/>
<path d="M315.18 105.306H253.682C252.646 105.306 251.806 106.146 251.806 107.182V214.492C251.806 215.528 252.646 216.368 253.682 216.368H315.18C316.216 216.368 317.056 215.528 317.056 214.492V107.182C317.056 106.146 316.216 105.306 315.18 105.306Z" fill="white"/>
<g filter="url(#filter0_d_798_50200)">
<path d="M315.18 137.971H253.682C252.646 137.971 251.806 138.811 251.806 139.847V173.639C251.806 174.675 252.646 175.515 253.682 175.515H315.18C316.216 175.515 317.056 174.675 317.056 173.639V139.847C317.056 138.811 316.216 137.971 315.18 137.971Z" fill="#D0E1FD"/>
</g>
<g filter="url(#filter1_d_798_50200)">
<path d="M241.189 142.849H126.189C125.062 141.718 124.428 141.089 123.297 139.958V74.9739C123.297 73.3796 124.589 72.082 126.189 72.082H241.189C242.783 72.082 244.081 73.3746 244.081 74.9739V139.958C244.081 141.552 242.788 142.849 241.189 142.849Z" fill="white"/>
<path d="M241.189 142.849H126.189C125.062 141.718 124.428 141.089 123.297 139.958V74.9739C123.297 73.3796 124.589 72.082 126.189 72.082H241.189C242.783 72.082 244.081 73.3746 244.081 74.9739V139.958C244.081 141.552 242.788 142.849 241.189 142.849Z" stroke="#EFF3F8" stroke-width="0.5" stroke-miterlimit="10"/>
</g>
<g filter="url(#filter2_d_798_50200)">
<path d="M69.7202 133.947H139.311C140.256 133.947 141.026 134.717 141.026 135.662V148.9C141.026 149.85 140.256 150.62 139.306 150.62H69.7151C68.7646 150.62 67.9951 149.85 67.9951 148.9V135.662C67.9951 134.712 68.7646 133.942 69.7151 133.942L69.7202 133.947Z" fill="#3B82F6"/>
<path d="M69.6034 134.447H69.7202H139.311C139.98 134.447 140.526 134.993 140.526 135.662V148.9C140.526 149.574 139.98 150.12 139.306 150.12H69.7151C69.0408 150.12 68.4951 149.574 68.4951 148.9V135.662C68.4951 135.026 68.9815 134.504 69.6034 134.447Z" stroke="#3B82F6"/>
</g>
<g filter="url(#filter3_d_798_50200)">
<path d="M69.7202 157.595H139.311C140.256 157.595 141.026 158.365 141.026 159.31V172.548C141.026 173.498 140.256 174.268 139.306 174.268H69.7151C68.7646 174.268 67.9951 173.498 67.9951 172.548V159.31C67.9951 158.36 68.7646 157.59 69.7151 157.59L69.7202 157.595Z" fill="white"/>
<path d="M69.7202 157.595H139.311C140.256 157.595 141.026 158.365 141.026 159.31V172.548C141.026 173.498 140.256 174.268 139.306 174.268H69.7151C68.7646 174.268 67.9951 173.498 67.9951 172.548V159.31C67.9951 158.36 68.7646 157.59 69.7151 157.59L69.7202 157.595Z" stroke="#EFF3F8" stroke-width="0.5" stroke-miterlimit="10"/>
</g>
<g filter="url(#filter4_d_798_50200)">
<path d="M164.678 117.467C164.678 119.021 163.416 120.283 161.862 120.283H135.77C133.919 120.283 132.415 118.784 132.415 116.928V111.411V84.771C132.415 83.2169 133.677 81.9546 135.231 81.9546H161.862C163.416 81.9546 164.678 83.2169 164.678 84.771V117.467Z" fill="#EAEAEA"/>
</g>
<g filter="url(#filter5_d_798_50200)">
<path d="M164.678 117.467C164.678 119.021 163.416 120.283 161.862 120.283H135.312C133.713 120.283 132.415 118.985 132.415 117.386V113.659V84.771C132.415 83.2169 133.677 81.9546 135.231 81.9546H161.862C163.416 81.9546 164.678 83.2169 164.678 84.771V117.467Z" fill="#ABC9FB"/>
</g>
<path d="M148.544 102.872C144.214 102.872 140.703 106.166 140.703 110.234V110.275H156.39V110.234C156.39 106.171 152.879 102.872 148.549 102.872H148.544Z" fill="#F7FBFE"/>
<path d="M149.148 100.452C151.164 100.181 152.608 98.4708 152.608 96.5597V95.4784C152.608 93.5673 151.164 91.8573 149.148 91.5857C146.633 91.2488 144.48 93.0694 144.48 95.3627V96.6804C144.48 98.9738 146.638 100.794 149.148 100.457V100.452Z" fill="#F7FBFE"/>
<g filter="url(#filter6_d_798_50200)">
<path d="M315.18 105.306H253.682C252.646 105.306 251.806 106.146 251.806 107.182V140.974C251.806 142.01 252.646 142.849 253.682 142.849H315.18C316.216 142.849 317.056 142.01 317.056 140.974V107.182C317.056 106.146 316.216 105.306 315.18 105.306Z" fill="#3B82F6"/>
<path d="M253.682 105.806H315.18C315.94 105.806 316.556 106.422 316.556 107.182V140.974C316.556 141.733 315.94 142.349 315.18 142.349H253.682C252.922 142.349 252.306 141.733 252.306 140.974V107.182C252.306 106.422 252.922 105.806 253.682 105.806Z" stroke="#3B82F6"/>
</g>
<path d="M58.4137 46.5481C58.4137 47.0561 58.0013 47.4635 57.4983 47.4635C56.9954 47.4635 56.583 47.0511 56.583 46.5481C56.583 46.0452 56.9954 45.6328 57.4983 45.6328C58.0013 45.6328 58.4137 46.0452 58.4137 46.5481Z" fill="#D4E3F8"/>
<path d="M63.2721 46.5481C63.2721 47.0561 62.8597 47.4635 62.3567 47.4635C61.8538 47.4635 61.4414 47.0511 61.4414 46.5481C61.4414 46.0452 61.8538 45.6328 62.3567 45.6328C62.8597 45.6328 63.2721 46.0452 63.2721 46.5481Z" fill="#D4E3F8"/>
<path d="M68.1305 46.5481C68.1305 47.0561 67.7181 47.4635 67.2151 47.4635C66.7122 47.4635 66.2998 47.0511 66.2998 46.5481C66.2998 46.0452 66.7122 45.6328 67.2151 45.6328C67.7181 45.6328 68.1305 46.0452 68.1305 46.5481Z" fill="#D4E3F8"/>
<path d="M171.645 91.2534H197.168" stroke="#ABC9FB" stroke-width="4" stroke-miterlimit="10" stroke-linecap="round"/>
<path d="M171.645 97.0771H205.758" stroke="#ABC9FB" stroke-width="4" stroke-miterlimit="10" stroke-linecap="round"/>
<path d="M171.645 107.754H224.498" stroke="#ABC9FB" stroke-width="4" stroke-miterlimit="10" stroke-linecap="round"/>
<path d="M171.645 112.809H224.498" stroke="#ABC9FB" stroke-width="4" stroke-miterlimit="10" stroke-linecap="round"/>
<path d="M171.645 117.864H198.913" stroke="#ABC9FB" stroke-width="4" stroke-miterlimit="10" stroke-linecap="round"/>
<path d="M171.645 85.168H184.002" stroke="#ABC9FB" stroke-width="4" stroke-miterlimit="10" stroke-linecap="round"/>
<path d="M272.884 115.239H290.798" stroke="#D0E1FD" stroke-width="4" stroke-miterlimit="10" stroke-linecap="round"/>
<path d="M272.884 122.531H309.975" stroke="#D0E1FD" stroke-width="4" stroke-miterlimit="10" stroke-linecap="round"/>
<path d="M272.884 127.531H309.975" stroke="#D0E1FD" stroke-width="4" stroke-miterlimit="10" stroke-linecap="round"/>
<path d="M272.884 132.531H292.02" stroke="#D0E1FD" stroke-width="4" stroke-miterlimit="10" stroke-linecap="round"/>
<path d="M272.884 151.877H290.798" stroke="#85B2F9" stroke-width="4" stroke-miterlimit="10" stroke-linecap="round"/>
<path d="M272.884 159.169H309.975" stroke="#85B2F9" stroke-width="4" stroke-miterlimit="10" stroke-linecap="round"/>
<path d="M272.884 164.169H309.975" stroke="#85B2F9" stroke-width="4" stroke-miterlimit="10" stroke-linecap="round"/>
<path d="M272.884 169.169H292.02" stroke="#85B2F9" stroke-width="4" stroke-miterlimit="10" stroke-linecap="round"/>
<path d="M74.8799 142.286H111.82" stroke="#D0E1FD" stroke-width="4" stroke-miterlimit="10" stroke-linecap="round"/>
<path d="M74.8799 165.929H111.82" stroke="#ABC9FB" stroke-width="4" stroke-miterlimit="10" stroke-linecap="round"/>
<path d="M130.026 142.286H134.9" stroke="#D0E1FD" stroke-width="4" stroke-miterlimit="10" stroke-linecap="round"/>
<path d="M130.026 165.929H134.9" stroke="#ABC9FB" stroke-width="4" stroke-miterlimit="10" stroke-linecap="round"/>
<g filter="url(#filter7_d_798_50200)">
<path d="M69.7192 72.5952H111.804C112.75 72.5952 113.519 73.3647 113.519 74.3102V120.132C113.519 121.083 112.75 121.852 111.799 121.852H69.7142C68.7636 121.852 67.9941 121.083 67.9941 120.132V74.3152C67.9941 73.3647 68.7636 72.5952 69.7142 72.5952H69.7192Z" fill="#3B82F6"/>
</g>
<path d="M90.1491 92.5227H91.9943V98.1903C91.9943 98.8267 91.8423 99.3835 91.5384 99.8608C91.2372 100.338 90.8153 100.71 90.2727 100.977C89.7301 101.241 89.098 101.374 88.3764 101.374C87.652 101.374 87.0185 101.241 86.4759 100.977C85.9332 100.71 85.5114 100.338 85.2102 99.8608C84.9091 99.3835 84.7585 98.8267 84.7585 98.1903V92.5227H86.6037V98.0327C86.6037 98.3651 86.6761 98.6605 86.821 98.919C86.9688 99.1776 87.1761 99.3807 87.4432 99.5284C87.7102 99.6761 88.0213 99.75 88.3764 99.75C88.7344 99.75 89.0455 99.6761 89.3097 99.5284C89.5767 99.3807 89.7827 99.1776 89.9276 98.919C90.0753 98.6605 90.1491 98.3651 90.1491 98.0327V92.5227ZM95.3576 92.5227V101.25H93.5124V92.5227H95.3576Z" fill="#F7FBFE"/>
<path d="M90.1491 92.5227V92.2727H89.8991V92.5227H90.1491ZM91.9943 92.5227H92.2443V92.2727H91.9943V92.5227ZM91.5384 99.8608L91.3275 99.7265L91.3269 99.7274L91.5384 99.8608ZM90.2727 100.977L90.3822 101.202L90.3831 101.202L90.2727 100.977ZM86.4759 100.977L86.3655 101.202L86.3664 101.202L86.4759 100.977ZM85.2102 99.8608L84.9988 99.9942L85.2102 99.8608ZM84.7585 92.5227V92.2727H84.5085V92.5227H84.7585ZM86.6037 92.5227H86.8537V92.2727H86.6037V92.5227ZM86.821 98.919L86.6029 99.0413L86.604 99.0431L86.821 98.919ZM87.4432 99.5284L87.3222 99.7472H87.3222L87.4432 99.5284ZM89.3097 99.5284L89.1886 99.3096L89.1877 99.3102L89.3097 99.5284ZM89.9276 98.919L89.7105 98.795L89.7095 98.7968L89.9276 98.919ZM90.1491 92.7727H91.9943V92.2727H90.1491V92.7727ZM91.7443 92.5227V98.1903H92.2443V92.5227H91.7443ZM91.7443 98.1903C91.7443 98.7852 91.6028 99.2942 91.3275 99.7265L91.7492 99.9951C92.0818 99.4728 92.2443 98.8682 92.2443 98.1903H91.7443ZM91.3269 99.7274C91.0522 100.163 90.6666 100.505 90.1623 100.753L90.3831 101.202C90.9641 100.916 91.4222 100.513 91.7498 99.9942L91.3269 99.7274ZM90.1633 100.753C89.6608 100.997 89.0674 101.124 88.3764 101.124V101.624C89.1286 101.624 89.7994 101.486 90.3822 101.202L90.1633 100.753ZM88.3764 101.124C87.6824 101.124 87.0877 100.997 86.5853 100.753L86.3664 101.202C86.9493 101.486 87.6216 101.624 88.3764 101.624V101.124ZM86.5862 100.753C86.082 100.505 85.6964 100.163 85.4217 99.7274L84.9988 99.9942C85.3263 100.513 85.7845 100.916 86.3655 101.202L86.5862 100.753ZM85.4217 99.7274C85.1488 99.295 85.0085 98.7857 85.0085 98.1903H84.5085C84.5085 98.8677 84.6693 99.4721 84.9988 99.9942L85.4217 99.7274ZM85.0085 98.1903V92.5227H84.5085V98.1903H85.0085ZM84.7585 92.7727H86.6037V92.2727H84.7585V92.7727ZM86.3537 92.5227V98.0327H86.8537V92.5227H86.3537ZM86.3537 98.0327C86.3537 98.4026 86.4347 98.741 86.6029 99.0413L87.0391 98.7968C86.9176 98.58 86.8537 98.3276 86.8537 98.0327H86.3537ZM86.604 99.0431C86.775 99.3424 87.0161 99.5778 87.3222 99.7472L87.5642 99.3097C87.3362 99.1835 87.1625 99.0127 87.0381 98.795L86.604 99.0431ZM87.3222 99.7472C87.6319 99.9185 87.9859 100 88.3764 100V99.5C88.0567 99.5 87.7885 99.4338 87.5642 99.3097L87.3222 99.7472ZM88.3764 100C88.7693 100 89.1239 99.9187 89.4317 99.7466L89.1877 99.3102C88.967 99.4336 88.6995 99.5 88.3764 99.5V100ZM89.4307 99.7472C89.7372 99.5776 89.9773 99.3416 90.1456 99.0413L89.7095 98.7968C89.588 99.0135 89.4163 99.1837 89.1886 99.3097L89.4307 99.7472ZM90.1446 99.0431C90.3164 98.7425 90.3991 98.4034 90.3991 98.0327H89.8991C89.8991 98.3267 89.8342 98.5785 89.7105 98.795L90.1446 99.0431ZM90.3991 98.0327V92.5227H89.8991V98.0327H90.3991ZM95.3576 92.5227H95.6076V92.2727H95.3576V92.5227ZM95.3576 101.25V101.5H95.6076V101.25H95.3576ZM93.5124 101.25H93.2624V101.5H93.5124V101.25ZM93.5124 92.5227V92.2727H93.2624V92.5227H93.5124ZM95.1076 92.5227V101.25H95.6076V92.5227H95.1076ZM95.3576 101H93.5124V101.5H95.3576V101ZM93.7624 101.25V92.5227H93.2624V101.25H93.7624ZM93.5124 92.7727H95.3576V92.2727H93.5124V92.7727Z" fill="#F4F4F4"/>
<g filter="url(#filter8_d_798_50200)">
<path d="M200.245 152.722H242.33C243.275 152.722 244.045 153.491 244.045 154.437V200.259C244.045 201.209 243.275 201.979 242.325 201.979H200.24C199.289 201.979 198.52 201.209 198.52 200.259V154.442C198.52 153.491 199.289 152.722 200.24 152.722H200.245Z" fill="#3B82F6"/>
<path d="M200.245 153.222H242.33C242.999 153.222 243.545 153.767 243.545 154.437V200.259C243.545 200.933 242.999 201.479 242.325 201.479H200.24C199.565 201.479 199.02 200.933 199.02 200.259V154.442C199.02 153.767 199.565 153.222 200.24 153.222H200.245Z" stroke="#3B82F6"/>
</g>
<path d="M216.459 175.578H214.592C214.558 175.337 214.489 175.122 214.384 174.935C214.278 174.744 214.143 174.582 213.979 174.449C213.814 174.315 213.624 174.213 213.408 174.142C213.195 174.071 212.963 174.036 212.713 174.036C212.261 174.036 211.868 174.148 211.533 174.372C211.197 174.594 210.938 174.918 210.753 175.344C210.568 175.767 210.476 176.281 210.476 176.886C210.476 177.509 210.568 178.031 210.753 178.455C210.94 178.878 211.202 179.197 211.537 179.413C211.872 179.629 212.26 179.737 212.7 179.737C212.947 179.737 213.176 179.705 213.386 179.639C213.599 179.574 213.788 179.479 213.953 179.354C214.118 179.226 214.254 179.071 214.362 178.889C214.473 178.707 214.55 178.5 214.592 178.267L216.459 178.276C216.411 178.676 216.29 179.062 216.097 179.435C215.906 179.804 215.649 180.135 215.325 180.428C215.004 180.717 214.621 180.947 214.175 181.118C213.732 181.286 213.23 181.369 212.67 181.369C211.892 181.369 211.196 181.193 210.582 180.841C209.972 180.489 209.489 179.979 209.134 179.311C208.781 178.643 208.605 177.835 208.605 176.886C208.605 175.935 208.784 175.125 209.142 174.457C209.5 173.79 209.986 173.281 210.599 172.932C211.213 172.58 211.903 172.403 212.67 172.403C213.176 172.403 213.645 172.474 214.077 172.616C214.511 172.759 214.896 172.966 215.232 173.239C215.567 173.509 215.839 173.839 216.05 174.232C216.263 174.624 216.399 175.072 216.459 175.578ZM222.516 175.033C222.482 174.689 222.336 174.422 222.077 174.232C221.819 174.041 221.468 173.946 221.025 173.946C220.724 173.946 220.469 173.989 220.262 174.074C220.055 174.156 219.896 174.271 219.785 174.419C219.677 174.567 219.623 174.734 219.623 174.922C219.617 175.078 219.65 175.214 219.721 175.331C219.795 175.447 219.896 175.548 220.023 175.634C220.151 175.716 220.299 175.788 220.467 175.851C220.634 175.911 220.813 175.962 221.004 176.004L221.788 176.192C222.168 176.277 222.518 176.391 222.836 176.533C223.154 176.675 223.43 176.849 223.663 177.057C223.896 177.264 224.076 177.509 224.204 177.79C224.335 178.071 224.401 178.393 224.404 178.757C224.401 179.291 224.265 179.754 223.995 180.146C223.728 180.536 223.342 180.838 222.836 181.054C222.333 181.267 221.727 181.374 221.016 181.374C220.312 181.374 219.698 181.266 219.175 181.05C218.656 180.834 218.249 180.514 217.957 180.091C217.667 179.665 217.515 179.138 217.501 178.51H219.286C219.306 178.803 219.39 179.047 219.538 179.243C219.688 179.436 219.888 179.582 220.138 179.682C220.391 179.778 220.677 179.827 220.995 179.827C221.308 179.827 221.579 179.781 221.809 179.69C222.042 179.599 222.222 179.473 222.35 179.311C222.478 179.149 222.542 178.963 222.542 178.753C222.542 178.557 222.484 178.392 222.367 178.259C222.254 178.125 222.086 178.011 221.864 177.918C221.646 177.824 221.377 177.739 221.059 177.662L220.109 177.423C219.373 177.244 218.792 176.964 218.366 176.584C217.94 176.203 217.728 175.69 217.731 175.045C217.728 174.517 217.869 174.055 218.153 173.661C218.44 173.266 218.833 172.957 219.333 172.736C219.833 172.514 220.401 172.403 221.038 172.403C221.685 172.403 222.251 172.514 222.734 172.736C223.219 172.957 223.597 173.266 223.867 173.661C224.137 174.055 224.276 174.513 224.285 175.033H222.516ZM230.38 175.033C230.346 174.689 230.199 174.422 229.941 174.232C229.682 174.041 229.331 173.946 228.888 173.946C228.587 173.946 228.333 173.989 228.125 174.074C227.918 174.156 227.759 174.271 227.648 174.419C227.54 174.567 227.486 174.734 227.486 174.922C227.48 175.078 227.513 175.214 227.584 175.331C227.658 175.447 227.759 175.548 227.887 175.634C228.015 175.716 228.162 175.788 228.33 175.851C228.498 175.911 228.676 175.962 228.867 176.004L229.651 176.192C230.032 176.277 230.381 176.391 230.699 176.533C231.017 176.675 231.293 176.849 231.526 177.057C231.759 177.264 231.939 177.509 232.067 177.79C232.198 178.071 232.265 178.393 232.267 178.757C232.265 179.291 232.128 179.754 231.858 180.146C231.591 180.536 231.205 180.838 230.699 181.054C230.196 181.267 229.59 181.374 228.88 181.374C228.175 181.374 227.561 181.266 227.039 181.05C226.519 180.834 226.113 180.514 225.82 180.091C225.53 179.665 225.378 179.138 225.364 178.51H227.15C227.169 178.803 227.253 179.047 227.401 179.243C227.551 179.436 227.752 179.582 228.002 179.682C228.255 179.778 228.54 179.827 228.858 179.827C229.171 179.827 229.442 179.781 229.672 179.69C229.905 179.599 230.086 179.473 230.213 179.311C230.341 179.149 230.405 178.963 230.405 178.753C230.405 178.557 230.347 178.392 230.23 178.259C230.117 178.125 229.949 178.011 229.728 177.918C229.509 177.824 229.24 177.739 228.922 177.662L227.972 177.423C227.236 177.244 226.655 176.964 226.229 176.584C225.803 176.203 225.591 175.69 225.594 175.045C225.591 174.517 225.732 174.055 226.016 173.661C226.303 173.266 226.696 172.957 227.196 172.736C227.696 172.514 228.265 172.403 228.901 172.403C229.549 172.403 230.114 172.514 230.597 172.736C231.083 172.957 231.461 173.266 231.73 173.661C232 174.055 232.14 174.513 232.148 175.033H230.38Z" fill="#F7FBFE"/>
<path d="M216.459 175.578V175.828H216.74L216.707 175.549L216.459 175.578ZM214.592 175.578L214.345 175.613L214.375 175.828H214.592V175.578ZM214.384 174.935L214.165 175.056L214.165 175.057L214.384 174.935ZM213.979 174.449L213.821 174.643L213.821 174.643L213.979 174.449ZM213.408 174.142L213.329 174.379L213.33 174.38L213.408 174.142ZM211.533 174.372L211.671 174.581L211.672 174.58L211.533 174.372ZM210.753 175.344L210.982 175.444L210.982 175.443L210.753 175.344ZM210.753 178.455L210.524 178.555L210.524 178.556L210.753 178.455ZM211.537 179.413L211.402 179.624L211.537 179.413ZM213.386 179.639L213.313 179.4L213.312 179.4L213.386 179.639ZM213.953 179.354L214.104 179.553L214.106 179.551L213.953 179.354ZM214.362 178.889L214.149 178.759L214.147 178.762L214.362 178.889ZM214.592 178.267L214.593 178.017L214.384 178.016L214.346 178.222L214.592 178.267ZM216.459 178.276L216.707 178.305L216.741 178.027L216.46 178.026L216.459 178.276ZM216.097 179.435L215.875 179.319L215.874 179.32L216.097 179.435ZM215.325 180.428L215.493 180.613L215.493 180.613L215.325 180.428ZM214.175 181.118L214.263 181.352L214.264 181.351L214.175 181.118ZM210.582 180.841L210.457 181.057L210.458 181.058L210.582 180.841ZM209.134 179.311L208.912 179.428L208.913 179.428L209.134 179.311ZM209.142 174.457L209.362 174.576L209.142 174.457ZM210.599 172.932L210.723 173.149L210.724 173.149L210.599 172.932ZM214.077 172.616L213.999 172.854L213.999 172.854L214.077 172.616ZM215.232 173.239L215.074 173.433L215.075 173.433L215.232 173.239ZM216.05 174.232L215.829 174.35L215.83 174.351L216.05 174.232ZM216.459 175.328H214.592V175.828H216.459V175.328ZM214.84 175.543C214.802 175.275 214.724 175.03 214.602 174.812L214.165 175.057C214.254 175.214 214.314 175.398 214.345 175.613L214.84 175.543ZM214.602 174.814C214.482 174.596 214.327 174.409 214.136 174.255L213.821 174.643C213.96 174.756 214.075 174.893 214.165 175.056L214.602 174.814ZM214.136 174.255C213.946 174.101 213.728 173.984 213.486 173.905L213.33 174.38C213.519 174.442 213.682 174.53 213.821 174.643L214.136 174.255ZM213.487 173.905C213.245 173.824 212.987 173.786 212.713 173.786V174.286C212.939 174.286 213.144 174.318 213.329 174.379L213.487 173.905ZM212.713 173.786C212.218 173.786 211.775 173.909 211.394 174.164L211.672 174.58C211.961 174.386 212.305 174.286 212.713 174.286V173.786ZM211.395 174.164C211.013 174.416 210.724 174.781 210.523 175.244L210.982 175.443C211.151 175.054 211.382 174.772 211.671 174.581L211.395 174.164ZM210.524 175.244C210.322 175.707 210.226 176.257 210.226 176.886H210.726C210.726 176.305 210.815 175.827 210.982 175.444L210.524 175.244ZM210.226 176.886C210.226 177.532 210.321 178.091 210.524 178.555L210.982 178.355C210.815 177.972 210.726 177.485 210.726 176.886H210.226ZM210.524 178.556C210.728 179.016 211.019 179.377 211.402 179.624L211.672 179.203C211.384 179.018 211.152 178.739 210.981 178.353L210.524 178.556ZM211.402 179.624C211.781 179.868 212.217 179.987 212.7 179.987V179.487C212.303 179.487 211.963 179.39 211.672 179.203L211.402 179.624ZM212.7 179.987C212.97 179.987 213.224 179.952 213.461 179.878L213.312 179.4C213.129 179.457 212.925 179.487 212.7 179.487V179.987ZM213.46 179.878C213.699 179.805 213.914 179.697 214.104 179.553L213.802 179.155C213.662 179.26 213.5 179.343 213.313 179.4L213.46 179.878ZM214.106 179.551C214.296 179.404 214.453 179.225 214.577 179.017L214.147 178.762C214.055 178.917 213.94 179.048 213.8 179.156L214.106 179.551ZM214.576 179.019C214.704 178.809 214.791 178.572 214.838 178.312L214.346 178.222C214.309 178.428 214.242 178.606 214.149 178.759L214.576 179.019ZM214.591 178.517L216.458 178.526L216.46 178.026L214.593 178.017L214.591 178.517ZM216.211 178.246C216.166 178.615 216.055 178.973 215.875 179.319L216.318 179.55C216.525 179.152 216.655 178.737 216.707 178.305L216.211 178.246ZM215.874 179.32C215.699 179.661 215.46 179.969 215.158 180.242L215.493 180.613C215.838 180.301 216.114 179.947 216.319 179.549L215.874 179.32ZM215.158 180.242C214.862 180.509 214.506 180.724 214.085 180.884L214.264 181.351C214.736 181.171 215.147 180.926 215.493 180.613L215.158 180.242ZM214.086 180.884C213.676 181.039 213.205 181.119 212.67 181.119V181.619C213.255 181.619 213.787 181.532 214.263 181.352L214.086 180.884ZM212.67 181.119C211.931 181.119 211.279 180.952 210.707 180.624L210.458 181.058C211.113 181.434 211.853 181.619 212.67 181.619V181.119ZM210.707 180.624C210.14 180.297 209.689 179.823 209.354 179.194L208.913 179.428C209.288 180.134 209.803 180.68 210.457 181.057L210.707 180.624ZM209.355 179.194C209.026 178.571 208.855 177.805 208.855 176.886H208.355C208.355 177.866 208.537 178.716 208.912 179.428L209.355 179.194ZM208.855 176.886C208.855 175.966 209.028 175.199 209.362 174.576L208.922 174.339C208.54 175.051 208.355 175.904 208.355 176.886H208.855ZM209.362 174.576C209.7 173.946 210.153 173.474 210.723 173.149L210.476 172.715C209.818 173.089 209.3 173.633 208.922 174.339L209.362 174.576ZM210.724 173.149C211.297 172.82 211.943 172.653 212.67 172.653V172.153C211.864 172.153 211.13 172.339 210.475 172.715L210.724 173.149ZM212.67 172.653C213.153 172.653 213.595 172.721 213.999 172.854L214.155 172.379C213.695 172.228 213.2 172.153 212.67 172.153V172.653ZM213.999 172.854C214.406 172.987 214.764 173.18 215.074 173.433L215.389 173.045C215.029 172.752 214.616 172.53 214.154 172.379L213.999 172.854ZM215.075 173.433C215.383 173.682 215.634 173.986 215.829 174.35L216.27 174.113C216.045 173.693 215.751 173.336 215.388 173.044L215.075 173.433ZM215.83 174.351C216.026 174.711 216.154 175.129 216.211 175.607L216.707 175.549C216.644 175.016 216.5 174.536 216.269 174.112L215.83 174.351ZM222.516 175.033L222.268 175.057L222.29 175.283H222.516V175.033ZM220.262 174.074L220.354 174.306L220.357 174.305L220.262 174.074ZM219.785 174.419L219.585 174.269L219.583 174.272L219.785 174.419ZM219.623 174.922L219.873 174.931V174.922H219.623ZM219.721 175.331L219.507 175.461L219.51 175.465L219.721 175.331ZM220.023 175.634L219.885 175.842L219.888 175.844L220.023 175.634ZM220.467 175.851L220.379 176.085L220.383 176.086L220.467 175.851ZM221.004 176.004L221.062 175.761L221.058 175.76L221.004 176.004ZM221.788 176.192L221.729 176.435L221.733 176.436L221.788 176.192ZM222.836 176.533L222.734 176.761L222.836 176.533ZM223.663 177.057L223.829 176.87L223.663 177.057ZM224.204 177.79L223.976 177.893L223.977 177.895L224.204 177.79ZM224.404 178.757L224.654 178.758L224.654 178.755L224.404 178.757ZM223.995 180.146L223.789 180.005L223.789 180.005L223.995 180.146ZM222.836 181.054L222.933 181.284L222.934 181.284L222.836 181.054ZM219.175 181.05L219.08 181.281L219.08 181.281L219.175 181.05ZM217.957 180.091L217.75 180.231L217.751 180.233L217.957 180.091ZM217.501 178.51V178.26H217.245L217.251 178.516L217.501 178.51ZM219.286 178.51L219.536 178.493L219.52 178.26H219.286V178.51ZM219.538 179.243L219.338 179.393L219.34 179.397L219.538 179.243ZM220.138 179.682L220.046 179.914L220.049 179.915L220.138 179.682ZM221.809 179.69L221.718 179.457L221.717 179.458L221.809 179.69ZM222.35 179.311L222.546 179.466L222.35 179.311ZM222.367 178.259L222.177 178.421L222.179 178.423L222.367 178.259ZM221.864 177.918L221.766 178.147L221.767 178.148L221.864 177.918ZM221.059 177.662L220.998 177.904L221 177.905L221.059 177.662ZM220.109 177.423L220.17 177.181L220.168 177.18L220.109 177.423ZM218.366 176.584L218.199 176.77L218.366 176.584ZM217.731 175.045L217.981 175.047L217.981 175.044L217.731 175.045ZM218.153 173.661L217.95 173.514L217.95 173.515L218.153 173.661ZM222.734 172.736L222.629 172.963L222.63 172.963L222.734 172.736ZM223.867 173.661L223.661 173.802V173.802L223.867 173.661ZM224.285 175.033V175.283H224.539L224.535 175.029L224.285 175.033ZM222.765 175.008C222.725 174.6 222.546 174.266 222.226 174.03L221.929 174.433C222.126 174.578 222.24 174.778 222.268 175.057L222.765 175.008ZM222.226 174.03C221.911 173.798 221.502 173.696 221.025 173.696V174.196C221.435 174.196 221.727 174.284 221.929 174.433L222.226 174.03ZM221.025 173.696C220.702 173.696 220.413 173.742 220.167 173.843L220.357 174.305C220.526 174.236 220.746 174.196 221.025 174.196V173.696ZM220.17 173.842C219.929 173.937 219.728 174.077 219.585 174.269L219.985 174.569C220.063 174.465 220.181 174.375 220.354 174.306L220.17 173.842ZM219.583 174.272C219.443 174.463 219.373 174.683 219.373 174.922H219.873C219.873 174.786 219.911 174.67 219.987 174.567L219.583 174.272ZM219.373 174.913C219.366 175.111 219.407 175.297 219.507 175.461L219.934 175.201C219.892 175.132 219.869 175.046 219.873 174.931L219.373 174.913ZM219.51 175.465C219.604 175.614 219.731 175.739 219.885 175.842L220.162 175.426C220.06 175.357 219.985 175.281 219.932 175.197L219.51 175.465ZM219.888 175.844C220.033 175.937 220.198 176.017 220.379 176.085L220.554 175.617C220.4 175.559 220.269 175.494 220.159 175.423L219.888 175.844ZM220.383 176.086C220.561 176.15 220.75 176.204 220.949 176.248L221.058 175.76C220.877 175.72 220.708 175.671 220.55 175.615L220.383 176.086ZM220.945 176.247L221.729 176.435L221.846 175.949L221.062 175.761L220.945 176.247ZM221.733 176.436C222.099 176.518 222.433 176.626 222.734 176.761L222.938 176.304C222.603 176.155 222.237 176.036 221.842 175.948L221.733 176.436ZM222.734 176.761C223.031 176.894 223.285 177.055 223.496 177.244L223.829 176.87C223.575 176.644 223.277 176.456 222.938 176.304L222.734 176.761ZM223.496 177.244C223.704 177.428 223.863 177.644 223.976 177.893L224.431 177.686C224.289 177.373 224.088 177.1 223.829 176.87L223.496 177.244ZM223.977 177.895C224.09 178.139 224.152 178.425 224.154 178.759L224.654 178.755C224.651 178.362 224.579 178.003 224.431 177.684L223.977 177.895ZM224.154 178.756C224.152 179.246 224.027 179.659 223.789 180.005L224.201 180.288C224.503 179.85 224.651 179.336 224.654 178.758L224.154 178.756ZM223.789 180.005C223.553 180.349 223.207 180.624 222.738 180.824L222.934 181.284C223.476 181.052 223.903 180.722 224.201 180.288L223.789 180.005ZM222.738 180.824C222.274 181.02 221.703 181.124 221.016 181.124V181.624C221.75 181.624 222.392 181.514 222.933 181.284L222.738 180.824ZM221.016 181.124C220.337 181.124 219.757 181.019 219.271 180.819L219.08 181.281C219.639 181.512 220.287 181.624 221.016 181.624V181.124ZM219.271 180.819C218.791 180.62 218.425 180.329 218.162 179.949L217.751 180.233C218.073 180.7 218.52 181.048 219.08 181.281L219.271 180.819ZM218.163 179.95C217.906 179.572 217.764 179.095 217.751 178.504L217.251 178.516C217.266 179.181 217.428 179.758 217.75 180.231L218.163 179.95ZM217.501 178.76H219.286V178.26H217.501V178.76ZM219.037 178.527C219.059 178.858 219.156 179.152 219.338 179.393L219.737 179.092C219.624 178.942 219.553 178.747 219.536 178.493L219.037 178.527ZM219.34 179.397C219.521 179.628 219.759 179.8 220.046 179.914L220.231 179.45C220.018 179.365 219.855 179.244 219.735 179.089L219.34 179.397ZM220.049 179.915C220.335 180.025 220.652 180.077 220.995 180.077V179.577C220.702 179.577 220.448 179.532 220.228 179.448L220.049 179.915ZM220.995 180.077C221.331 180.077 221.635 180.028 221.901 179.923L221.717 179.458C221.523 179.535 221.284 179.577 220.995 179.577V180.077ZM221.9 179.923C222.165 179.82 222.386 179.67 222.546 179.466L222.154 179.156C222.059 179.276 221.918 179.379 221.718 179.457L221.9 179.923ZM222.546 179.466C222.71 179.259 222.792 179.018 222.792 178.753H222.292C222.292 178.908 222.246 179.039 222.154 179.156L222.546 179.466ZM222.792 178.753C222.792 178.503 222.716 178.278 222.556 178.094L222.179 178.423C222.251 178.506 222.292 178.61 222.292 178.753H222.792ZM222.558 178.096C222.411 177.924 222.207 177.791 221.962 177.687L221.767 178.148C221.965 178.232 222.096 178.326 222.177 178.421L222.558 178.096ZM221.963 177.688C221.727 177.587 221.445 177.498 221.118 177.419L221 177.905C221.31 177.98 221.564 178.061 221.766 178.147L221.963 177.688ZM221.12 177.419L220.17 177.181L220.048 177.666L220.998 177.904L221.12 177.419ZM220.168 177.18C219.459 177.008 218.919 176.743 218.532 176.397L218.199 176.77C218.664 177.186 219.286 177.481 220.05 177.666L220.168 177.18ZM218.532 176.397C218.167 176.071 217.978 175.63 217.981 175.047L217.481 175.044C217.478 175.751 217.713 176.335 218.199 176.77L218.532 176.397ZM217.981 175.044C217.978 174.564 218.105 174.155 218.356 173.807L217.95 173.515C217.632 173.956 217.478 174.47 217.481 175.047L217.981 175.044ZM218.355 173.807C218.613 173.452 218.97 173.17 219.434 172.964L219.232 172.507C218.697 172.744 218.266 173.079 217.95 173.514L218.355 173.807ZM219.434 172.964C219.898 172.759 220.431 172.653 221.038 172.653V172.153C220.372 172.153 219.768 172.269 219.232 172.507L219.434 172.964ZM221.038 172.653C221.657 172.653 222.186 172.759 222.629 172.963L222.838 172.509C222.316 172.269 221.714 172.153 221.038 172.153V172.653ZM222.63 172.963C223.079 173.168 223.42 173.449 223.661 173.802L224.074 173.519C223.775 173.083 223.36 172.747 222.837 172.508L222.63 172.963ZM223.661 173.802C223.901 174.153 224.027 174.561 224.035 175.037L224.535 175.029C224.526 174.464 224.373 173.958 224.074 173.519L223.661 173.802ZM224.285 174.783H222.516V175.283H224.285V174.783ZM230.38 175.033L230.131 175.057L230.153 175.283H230.38V175.033ZM228.125 174.074L228.218 174.306L228.22 174.305L228.125 174.074ZM227.648 174.419L227.448 174.269L227.446 174.272L227.648 174.419ZM227.486 174.922L227.736 174.931V174.922H227.486ZM227.584 175.331L227.371 175.461L227.373 175.465L227.584 175.331ZM227.887 175.634L227.748 175.842L227.751 175.844L227.887 175.634ZM228.33 175.851L228.243 176.085L228.246 176.086L228.33 175.851ZM228.867 176.004L228.925 175.761L228.921 175.76L228.867 176.004ZM229.651 176.192L229.593 176.435L229.596 176.436L229.651 176.192ZM230.699 176.533L230.597 176.761L230.699 176.533ZM231.526 177.057L231.692 176.87L231.526 177.057ZM232.067 177.79L231.84 177.893L231.84 177.895L232.067 177.79ZM232.267 178.757L232.517 178.758L232.517 178.755L232.267 178.757ZM231.858 180.146L231.652 180.005L231.652 180.005L231.858 180.146ZM230.699 181.054L230.797 181.284L230.797 181.284L230.699 181.054ZM227.039 181.05L226.943 181.281L226.943 181.281L227.039 181.05ZM225.82 180.091L225.613 180.231L225.614 180.233L225.82 180.091ZM225.364 178.51V178.26H225.108L225.114 178.516L225.364 178.51ZM227.15 178.51L227.399 178.493L227.383 178.26H227.15V178.51ZM227.401 179.243L227.201 179.393L227.204 179.397L227.401 179.243ZM228.002 179.682L227.909 179.914L227.913 179.915L228.002 179.682ZM229.672 179.69L229.581 179.457L229.58 179.458L229.672 179.69ZM230.213 179.311L230.41 179.466H230.41L230.213 179.311ZM230.23 178.259L230.04 178.421L230.042 178.423L230.23 178.259ZM229.728 177.918L229.629 178.147L229.63 178.148L229.728 177.918ZM228.922 177.662L228.861 177.904L228.864 177.905L228.922 177.662ZM227.972 177.423L228.033 177.181L228.031 177.18L227.972 177.423ZM226.229 176.584L226.062 176.77L226.229 176.584ZM225.594 175.045L225.844 175.047L225.844 175.044L225.594 175.045ZM226.016 173.661L225.814 173.514L225.813 173.515L226.016 173.661ZM230.597 172.736L230.493 172.963L230.493 172.963L230.597 172.736ZM231.73 173.661L231.524 173.802V173.802L231.73 173.661ZM232.148 175.033V175.283H232.402L232.398 175.029L232.148 175.033ZM230.628 175.008C230.588 174.6 230.409 174.266 230.089 174.03L229.792 174.433C229.989 174.578 230.103 174.778 230.131 175.057L230.628 175.008ZM230.089 174.03C229.774 173.798 229.365 173.696 228.888 173.696V174.196C229.298 174.196 229.591 174.284 229.792 174.433L230.089 174.03ZM228.888 173.696C228.565 173.696 228.276 173.742 228.03 173.843L228.22 174.305C228.389 174.236 228.609 174.196 228.888 174.196V173.696ZM228.033 173.842C227.792 173.937 227.592 174.077 227.448 174.269L227.848 174.569C227.926 174.465 228.044 174.375 228.218 174.306L228.033 173.842ZM227.446 174.272C227.306 174.463 227.236 174.683 227.236 174.922H227.736C227.736 174.786 227.774 174.67 227.85 174.567L227.446 174.272ZM227.236 174.913C227.229 175.111 227.271 175.297 227.371 175.461L227.798 175.201C227.756 175.132 227.732 175.046 227.736 174.931L227.236 174.913ZM227.373 175.465C227.468 175.614 227.594 175.739 227.748 175.842L228.025 175.426C227.923 175.357 227.848 175.281 227.795 175.197L227.373 175.465ZM227.751 175.844C227.897 175.937 228.061 176.017 228.243 176.085L228.417 175.617C228.264 175.559 228.133 175.494 228.022 175.423L227.751 175.844ZM228.246 176.086C228.424 176.15 228.613 176.204 228.812 176.248L228.921 175.76C228.74 175.72 228.571 175.671 228.414 175.615L228.246 176.086ZM228.809 176.247L229.593 176.435L229.709 175.949L228.925 175.761L228.809 176.247ZM229.596 176.436C229.963 176.518 230.296 176.626 230.597 176.761L230.801 176.304C230.466 176.155 230.101 176.036 229.706 175.948L229.596 176.436ZM230.597 176.761C230.895 176.894 231.148 177.055 231.36 177.244L231.692 176.87C231.438 176.644 231.14 176.456 230.801 176.304L230.597 176.761ZM231.36 177.244C231.567 177.428 231.726 177.644 231.84 177.893L232.295 177.686C232.152 177.373 231.951 177.1 231.692 176.87L231.36 177.244ZM231.84 177.895C231.954 178.139 232.015 178.425 232.017 178.759L232.517 178.755C232.514 178.362 232.442 178.003 232.294 177.684L231.84 177.895ZM232.017 178.756C232.015 179.246 231.89 179.659 231.652 180.005L232.064 180.288C232.366 179.85 232.514 179.336 232.517 178.758L232.017 178.756ZM231.652 180.005C231.416 180.349 231.07 180.624 230.601 180.824L230.797 181.284C231.339 181.052 231.766 180.722 232.064 180.288L231.652 180.005ZM230.602 180.824C230.137 181.02 229.566 181.124 228.88 181.124V181.624C229.614 181.624 230.255 181.514 230.797 181.284L230.602 180.824ZM228.88 181.124C228.2 181.124 227.62 181.019 227.134 180.819L226.943 181.281C227.503 181.512 228.15 181.624 228.88 181.624V181.124ZM227.135 180.819C226.655 180.62 226.288 180.329 226.026 179.949L225.614 180.233C225.937 180.7 226.383 181.048 226.943 181.281L227.135 180.819ZM226.027 179.95C225.769 179.572 225.627 179.095 225.614 178.504L225.114 178.516C225.129 179.181 225.291 179.758 225.613 180.231L226.027 179.95ZM225.364 178.76H227.15V178.26H225.364V178.76ZM226.9 178.527C226.923 178.858 227.019 179.152 227.201 179.393L227.601 179.092C227.487 178.942 227.416 178.747 227.399 178.493L226.9 178.527ZM227.204 179.397C227.384 179.628 227.622 179.8 227.909 179.914L228.094 179.45C227.881 179.365 227.719 179.244 227.598 179.089L227.204 179.397ZM227.913 179.915C228.198 180.025 228.515 180.077 228.858 180.077V179.577C228.565 179.577 228.311 179.532 228.091 179.448L227.913 179.915ZM228.858 180.077C229.194 180.077 229.498 180.028 229.764 179.923L229.58 179.458C229.386 179.535 229.147 179.577 228.858 179.577V180.077ZM229.763 179.923C230.029 179.82 230.249 179.67 230.41 179.466L230.017 179.156C229.922 179.276 229.782 179.379 229.581 179.457L229.763 179.923ZM230.41 179.466C230.573 179.259 230.655 179.018 230.655 178.753H230.155C230.155 178.908 230.11 179.039 230.017 179.156L230.41 179.466ZM230.655 178.753C230.655 178.503 230.579 178.278 230.419 178.094L230.042 178.423C230.115 178.506 230.155 178.61 230.155 178.753H230.655ZM230.421 178.096C230.274 177.924 230.07 177.791 229.825 177.687L229.63 178.148C229.829 178.232 229.959 178.326 230.04 178.421L230.421 178.096ZM229.826 177.688C229.591 177.587 229.308 177.498 228.981 177.419L228.864 177.905C229.173 177.98 229.427 178.061 229.629 178.147L229.826 177.688ZM228.983 177.419L228.033 177.181L227.911 177.666L228.861 177.904L228.983 177.419ZM228.031 177.18C227.323 177.008 226.783 176.743 226.396 176.397L226.062 176.77C226.528 177.186 227.15 177.481 227.913 177.666L228.031 177.18ZM226.396 176.397C226.03 176.071 225.842 175.63 225.844 175.047L225.344 175.044C225.341 175.751 225.576 176.335 226.062 176.77L226.396 176.397ZM225.844 175.044C225.842 174.564 225.968 174.155 226.219 173.807L225.813 173.515C225.495 173.956 225.341 174.47 225.344 175.047L225.844 175.044ZM226.218 173.807C226.476 173.452 226.833 173.17 227.298 172.964L227.095 172.507C226.56 172.744 226.13 173.079 225.814 173.514L226.218 173.807ZM227.298 172.964C227.761 172.759 228.294 172.653 228.901 172.653V172.153C228.235 172.153 227.632 172.269 227.095 172.507L227.298 172.964ZM228.901 172.653C229.52 172.653 230.049 172.759 230.493 172.963L230.701 172.509C230.179 172.269 229.577 172.153 228.901 172.153V172.653ZM230.493 172.963C230.942 173.168 231.283 173.449 231.524 173.802L231.937 173.519C231.638 173.083 231.223 172.747 230.701 172.508L230.493 172.963ZM231.524 173.802C231.764 174.153 231.89 174.561 231.898 175.037L232.398 175.029C232.389 174.464 232.237 173.958 231.937 173.519L231.524 173.802ZM232.148 174.783H230.38V175.283H232.148V174.783Z" fill="#F4F4F4"/>
<g filter="url(#filter9_d_798_50200)">
<path d="M263.544 98.3651H253.651C252.63 98.3651 251.806 97.5403 251.806 96.5193V29.4434C251.806 28.4225 252.63 27.5977 253.651 27.5977H263.544C264.565 27.5977 265.39 28.4225 265.39 29.4434V96.5193C265.39 97.5403 264.565 98.3651 263.544 98.3651Z" fill="white"/>
<path d="M263.544 98.3651H253.651C252.63 98.3651 251.806 97.5403 251.806 96.5193V29.4434C251.806 28.4225 252.63 27.5977 253.651 27.5977H263.544C264.565 27.5977 265.39 28.4225 265.39 29.4434V96.5193C265.39 97.5403 264.565 98.3651 263.544 98.3651Z" stroke="#EFF3F8" stroke-width="0.5" stroke-miterlimit="10"/>
</g>
<path d="M258.596 32.416V92.8683" stroke="#3B82F6" stroke-width="2" stroke-miterlimit="10" stroke-linecap="round"/>
<g filter="url(#filter10_d_798_50200)">
<path d="M258.681 48.8818H258.51C256.913 48.8818 255.618 50.1766 255.618 51.7737C255.618 53.3708 256.913 54.6655 258.51 54.6655H258.681C260.278 54.6655 261.573 53.3708 261.573 51.7737C261.573 50.1766 260.278 48.8818 258.681 48.8818Z" fill="#EAEAEA"/>
</g>
<g filter="url(#filter11_d_798_50200)">
<path d="M258.681 48.8818H258.51C256.913 48.8818 255.618 50.1766 255.618 51.7737C255.618 53.3708 256.913 54.6655 258.51 54.6655H258.681C260.278 54.6655 261.573 53.3708 261.573 51.7737C261.573 50.1766 260.278 48.8818 258.681 48.8818Z" fill="#ABC9FB"/>
<path d="M258.681 48.8818H258.51C256.913 48.8818 255.618 50.1766 255.618 51.7737C255.618 53.3708 256.913 54.6655 258.51 54.6655H258.681C260.278 54.6655 261.573 53.3708 261.573 51.7737C261.573 50.1766 260.278 48.8818 258.681 48.8818Z" stroke="#EFF3F8" stroke-width="0.5" stroke-miterlimit="10"/>
</g>
<g filter="url(#filter12_d_798_50200)">
<path d="M148.992 152.722H191.077C192.022 152.722 192.792 153.492 192.792 154.437V200.259C192.792 201.21 192.022 201.979 191.072 201.979H148.987C148.036 201.979 147.267 201.21 147.267 200.259V154.442C147.267 153.492 148.036 152.722 148.987 152.722H148.992Z" fill="#D0E1FD"/>
</g>
<path d="M155.641 167.091H169.788" stroke="#4088FF" stroke-width="4" stroke-miterlimit="10" stroke-linecap="round"/>
<path d="M155.641 172.915H174.551" stroke="#4088FF" stroke-width="4" stroke-miterlimit="10" stroke-linecap="round"/>
<path d="M155.641 183.592H184.941" stroke="#4088FF" stroke-width="4" stroke-miterlimit="10" stroke-linecap="round"/>
<path d="M155.641 188.646H184.941" stroke="#4088FF" stroke-width="4" stroke-miterlimit="10" stroke-linecap="round"/>
<path d="M155.641 193.696H170.759" stroke="#4088FF" stroke-width="4" stroke-miterlimit="10" stroke-linecap="round"/>
<path d="M155.641 161H162.491" stroke="#4088FF" stroke-width="4" stroke-miterlimit="10" stroke-linecap="round"/>
<path d="M267.5 117.25H258.5V125.25H267.5V117.25Z" fill="#F7FBFE"/>
<path d="M266 119.25H260V115.674C260 114.333 261.341 113.25 263 113.25C264.659 113.25 266 114.333 266 115.674V119.25Z" stroke="#F7FBFE" stroke-width="3" stroke-miterlimit="10"/>
<path d="M266.416 157.756V153.682C266.416 151.897 265.099 150.418 263.384 150.157V149.835C263.384 149.538 263.142 149.297 262.846 149.297C262.549 149.297 262.308 149.538 262.308 149.835V150.157C260.593 150.418 259.275 151.892 259.275 153.682V157.756C258.787 158.003 258.455 158.501 258.455 159.084H267.236C267.236 158.501 266.904 158.003 266.416 157.756Z" fill="white"/>
<path d="M262.845 161.322C263.801 161.322 264.57 160.547 264.57 159.597H261.115C261.115 160.552 261.89 161.322 262.84 161.322H262.845Z" fill="white"/>
<g filter="url(#filter13_d_798_50200)">
<path d="M307.531 98.3652H281.494C276.761 98.3652 272.889 94.4927 272.889 89.7601C272.889 85.0074 276.741 81.1499 281.494 81.1499H307.531C312.283 81.1499 316.136 85.0024 316.136 89.7551C316.136 94.5078 312.283 98.3602 307.531 98.3602V98.3652Z" fill="white"/>
<path d="M307.531 98.3652H281.494C276.761 98.3652 272.889 94.4927 272.889 89.7601C272.889 85.0074 276.741 81.1499 281.494 81.1499H307.531C312.283 81.1499 316.136 85.0024 316.136 89.7551C316.136 94.5078 312.283 98.3602 307.531 98.3602V98.3652Z" stroke="#EFF3F8" stroke-width="0.5" stroke-miterlimit="10"/>
</g>
<g filter="url(#filter14_d_798_50200)">
<path d="M281.747 83.5391H281.375C277.939 83.5391 275.153 86.3233 275.153 89.7578C275.153 93.1923 277.939 95.9766 281.375 95.9766H281.747C285.183 95.9766 287.968 93.1923 287.968 89.7578C287.968 86.3233 285.183 83.5391 281.747 83.5391Z" fill="#3B82F6"/>
<path d="M281.375 84.0391H281.747C284.907 84.0391 287.468 86.5996 287.468 89.7578C287.468 92.916 284.907 95.4766 281.747 95.4766H281.375C278.215 95.4766 275.653 92.916 275.653 89.7578C275.653 86.5996 278.215 84.0391 281.375 84.0391Z" stroke="#3B82F6"/>
</g>
<path d="M262.116 195.21H308.572" stroke="#3B82F6" stroke-miterlimit="10" stroke-linecap="round"/>
<path d="M261.115 186.56H286.076" stroke="#ABC9FB" stroke-width="4" stroke-miterlimit="10" stroke-linecap="round"/>
<path d="M261.115 205.183H286.076" stroke="#ABC9FB" stroke-width="4" stroke-miterlimit="10" stroke-linecap="round"/>
<path d="M302.501 186.56H310.05" stroke="#ABC9FB" stroke-width="4" stroke-miterlimit="10" stroke-linecap="round"/>
<path d="M302.501 205.183H310.05" stroke="#ABC9FB" stroke-width="4" stroke-miterlimit="10" stroke-linecap="round"/>
<path d="M216.073 64.0405V60.6859C216.073 58.639 214.413 56.9844 212.371 56.9844H92.9253C90.5816 56.9844 88.6855 58.8855 88.6855 61.2241V66.3691" stroke="#ABC9FB" stroke-width="4" stroke-miterlimit="10" stroke-linecap="round"/>
<g filter="url(#filter15_dd_798_50200)">
<path d="M118.645 34.4326H103.431C100.218 34.4326 97.6123 37.0378 97.6123 40.2515V54.6806C97.6123 57.8943 100.218 60.4995 103.431 60.4995H118.645C121.859 60.4995 124.464 57.8943 124.464 54.6806V40.2515C124.464 37.0378 121.859 34.4326 118.645 34.4326Z" fill="white"/>
<path d="M118.645 34.4326H103.431C100.218 34.4326 97.6123 37.0378 97.6123 40.2515V54.6806C97.6123 57.8943 100.218 60.4995 103.431 60.4995H118.645C121.859 60.4995 124.464 57.8943 124.464 54.6806V40.2515C124.464 37.0378 121.859 34.4326 118.645 34.4326Z" stroke="#EFF3F8" stroke-width="0.5" stroke-miterlimit="10"/>
</g>
<path d="M115.346 47.4687C115.346 49.8475 113.419 51.7738 111.04 51.7738C108.662 51.7738 106.735 49.8475 106.735 47.4687C106.735 45.0898 108.662 43.1636 111.04 43.1636C113.419 43.1636 115.346 45.0898 115.346 47.4687Z" fill="#3B82F6"/>
<path d="M111.036 45.7134V49.2188" stroke="#F4F4F4" stroke-width="0.5" stroke-miterlimit="10"/>
<path d="M112.791 47.4688H109.285" stroke="#F4F4F4" stroke-width="0.5" stroke-miterlimit="10"/>
<g filter="url(#filter16_dd_798_50200)">
<path d="M150.869 34.4326H135.655C132.441 34.4326 129.836 37.0378 129.836 40.2515V54.6806C129.836 57.8943 132.441 60.4995 135.655 60.4995H150.869C154.082 60.4995 156.687 57.8943 156.687 54.6806V40.2515C156.687 37.0378 154.082 34.4326 150.869 34.4326Z" fill="white"/>
<path d="M150.869 34.4326H135.655C132.441 34.4326 129.836 37.0378 129.836 40.2515V54.6806C129.836 57.8943 132.441 60.4995 135.655 60.4995H150.869C154.082 60.4995 156.687 57.8943 156.687 54.6806V40.2515C156.687 37.0378 154.082 34.4326 150.869 34.4326Z" stroke="#EFF3F8" stroke-width="0.5" stroke-miterlimit="10"/>
</g>
<path d="M147.564 47.4687C147.564 49.8475 145.638 51.7738 143.259 51.7738C140.88 51.7738 138.954 49.8475 138.954 47.4687C138.954 45.0898 140.88 43.1636 143.259 43.1636C145.638 43.1636 147.564 45.0898 147.564 47.4687Z" fill="#3B82F6"/>
<path d="M141.604 47.8762L142.53 48.8368L144.828 46.2266" stroke="#F4F4F4" stroke-width="0.5" stroke-miterlimit="10"/>
<g filter="url(#filter17_dd_798_50200)">
<path d="M183.085 34.4326H167.872C164.658 34.4326 162.053 37.0378 162.053 40.2515V54.6806C162.053 57.8943 164.658 60.4995 167.872 60.4995H183.085C186.299 60.4995 188.904 57.8943 188.904 54.6806V40.2515C188.904 37.0378 186.299 34.4326 183.085 34.4326Z" fill="white"/>
<path d="M183.085 34.4326H167.872C164.658 34.4326 162.053 37.0378 162.053 40.2515V54.6806C162.053 57.8943 164.658 60.4995 167.872 60.4995H183.085C186.299 60.4995 188.904 57.8943 188.904 54.6806V40.2515C188.904 37.0378 186.299 34.4326 183.085 34.4326Z" stroke="#EFF3F8" stroke-width="0.5" stroke-miterlimit="10"/>
</g>
<path d="M179.786 47.4687C179.786 49.8475 177.86 51.7738 175.481 51.7738C173.102 51.7738 171.176 49.8475 171.176 47.4687C171.176 45.0898 173.102 43.1636 175.481 43.1636C177.86 43.1636 179.786 45.0898 179.786 47.4687Z" fill="#3B82F6"/>
<path d="M176.719 46.2266L174.244 48.706" stroke="#F4F4F4" stroke-width="0.5" stroke-miterlimit="10"/>
<path d="M176.719 48.706L174.244 46.2266" stroke="#F4F4F4" stroke-width="0.5" stroke-miterlimit="10"/>
<path d="M104.513 183.793V207.164C104.513 209.996 106.806 212.289 109.638 212.289H242.789" stroke="#ABC9FB" stroke-width="4" stroke-miterlimit="10" stroke-linecap="round"/>
</g>
<defs>
<filter id="filter0_d_798_50200" x="209.806" y="137.971" width="149.25" height="131.544" filterUnits="userSpaceOnUse" color-interpolation-filters="sRGB">
<feFlood flood-opacity="0" result="BackgroundImageFix"/>
<feColorMatrix in="SourceAlpha" type="matrix" values="0 0 0 0 0 0 0 0 0 0 0 0 0 0 0 0 0 0 127 0" result="hardAlpha"/>
<feOffset dy="52"/>
<feGaussianBlur stdDeviation="21"/>
<feColorMatrix type="matrix" values="0 0 0 0 0 0 0 0 0 0 0 0 0 0 0 0 0 0 0.03 0"/>
<feBlend mode="normal" in2="BackgroundImageFix" result="effect1_dropShadow_798_50200"/>
<feBlend mode="normal" in="SourceGraphic" in2="effect1_dropShadow_798_50200" result="shape"/>
</filter>
<filter id="filter1_d_798_50200" x="91.0469" y="47.832" width="185.284" height="135.268" filterUnits="userSpaceOnUse" color-interpolation-filters="sRGB">
<feFlood flood-opacity="0" result="BackgroundImageFix"/>
<feColorMatrix in="SourceAlpha" type="matrix" values="0 0 0 0 0 0 0 0 0 0 0 0 0 0 0 0 0 0 127 0" result="hardAlpha"/>
<feOffset dy="8"/>
<feGaussianBlur stdDeviation="16"/>
<feColorMatrix type="matrix" values="0 0 0 0 0 0 0 0 0 0 0 0 0 0 0 0 0 0 0.08 0"/>
<feBlend mode="normal" in2="BackgroundImageFix" result="effect1_dropShadow_798_50200"/>
<feBlend mode="normal" in="SourceGraphic" in2="effect1_dropShadow_798_50200" result="shape"/>
</filter>
<filter id="filter2_d_798_50200" x="57.9951" y="133.942" width="93.0308" height="38.6772" filterUnits="userSpaceOnUse" color-interpolation-filters="sRGB">
<feFlood flood-opacity="0" result="BackgroundImageFix"/>
<feColorMatrix in="SourceAlpha" type="matrix" values="0 0 0 0 0 0 0 0 0 0 0 0 0 0 0 0 0 0 127 0" result="hardAlpha"/>
<feOffset dy="12"/>
<feGaussianBlur stdDeviation="5"/>
<feColorMatrix type="matrix" values="0 0 0 0 0 0 0 0 0 0 0 0 0 0 0 0 0 0 0.08 0"/>
<feBlend mode="normal" in2="BackgroundImageFix" result="effect1_dropShadow_798_50200"/>
<feBlend mode="normal" in="SourceGraphic" in2="effect1_dropShadow_798_50200" result="shape"/>
</filter>
<filter id="filter3_d_798_50200" x="57.7451" y="157.34" width="93.5308" height="39.1772" filterUnits="userSpaceOnUse" color-interpolation-filters="sRGB">
<feFlood flood-opacity="0" result="BackgroundImageFix"/>
<feColorMatrix in="SourceAlpha" type="matrix" values="0 0 0 0 0 0 0 0 0 0 0 0 0 0 0 0 0 0 127 0" result="hardAlpha"/>
<feOffset dy="12"/>
<feGaussianBlur stdDeviation="5"/>
<feColorMatrix type="matrix" values="0 0 0 0 0 0 0 0 0 0 0 0 0 0 0 0 0 0 0.06 0"/>
<feBlend mode="normal" in2="BackgroundImageFix" result="effect1_dropShadow_798_50200"/>
<feBlend mode="normal" in="SourceGraphic" in2="effect1_dropShadow_798_50200" result="shape"/>
</filter>
<filter id="filter4_d_798_50200" x="121.415" y="70.9546" width="60.2632" height="66.3286" filterUnits="userSpaceOnUse" color-interpolation-filters="sRGB">
<feFlood flood-opacity="0" result="BackgroundImageFix"/>
<feColorMatrix in="SourceAlpha" type="matrix" values="0 0 0 0 0 0 0 0 0 0 0 0 0 0 0 0 0 0 127 0" result="hardAlpha"/>
<feOffset dx="3" dy="3"/>
<feGaussianBlur stdDeviation="7"/>
<feColorMatrix type="matrix" values="0 0 0 0 0 0 0 0 0 0 0 0 0 0 0 0 0 0 0.11 0"/>
<feBlend mode="normal" in2="BackgroundImageFix" result="effect1_dropShadow_798_50200"/>
<feBlend mode="normal" in="SourceGraphic" in2="effect1_dropShadow_798_50200" result="shape"/>
</filter>
<filter id="filter5_d_798_50200" x="117.415" y="66.9546" width="52.2632" height="58.3286" filterUnits="userSpaceOnUse" color-interpolation-filters="sRGB">
<feFlood flood-opacity="0" result="BackgroundImageFix"/>
<feColorMatrix in="SourceAlpha" type="matrix" values="0 0 0 0 0 0 0 0 0 0 0 0 0 0 0 0 0 0 127 0" result="hardAlpha"/>
<feOffset dx="-5" dy="-5"/>
<feGaussianBlur stdDeviation="5"/>
<feColorMatrix type="matrix" values="0 0 0 0 0.941176 0 0 0 0 0.941176 0 0 0 0 1 0 0 0 0.5 0"/>
<feBlend mode="normal" in2="BackgroundImageFix" result="effect1_dropShadow_798_50200"/>
<feBlend mode="normal" in="SourceGraphic" in2="effect1_dropShadow_798_50200" result="shape"/>
</filter>
<filter id="filter6_d_798_50200" x="209.806" y="105.306" width="149.25" height="131.544" filterUnits="userSpaceOnUse" color-interpolation-filters="sRGB">
<feFlood flood-opacity="0" result="BackgroundImageFix"/>
<feColorMatrix in="SourceAlpha" type="matrix" values="0 0 0 0 0 0 0 0 0 0 0 0 0 0 0 0 0 0 127 0" result="hardAlpha"/>
<feOffset dy="52"/>
<feGaussianBlur stdDeviation="21"/>
<feColorMatrix type="matrix" values="0 0 0 0 0 0 0 0 0 0 0 0 0 0 0 0 0 0 0.03 0"/>
<feBlend mode="normal" in2="BackgroundImageFix" result="effect1_dropShadow_798_50200"/>
<feBlend mode="normal" in="SourceGraphic" in2="effect1_dropShadow_798_50200" result="shape"/>
</filter>
<filter id="filter7_d_798_50200" x="57.9941" y="72.5952" width="65.5254" height="71.2573" filterUnits="userSpaceOnUse" color-interpolation-filters="sRGB">
<feFlood flood-opacity="0" result="BackgroundImageFix"/>
<feColorMatrix in="SourceAlpha" type="matrix" values="0 0 0 0 0 0 0 0 0 0 0 0 0 0 0 0 0 0 127 0" result="hardAlpha"/>
<feOffset dy="12"/>
<feGaussianBlur stdDeviation="5"/>
<feColorMatrix type="matrix" values="0 0 0 0 0 0 0 0 0 0 0 0 0 0 0 0 0 0 0.08 0"/>
<feBlend mode="normal" in2="BackgroundImageFix" result="effect1_dropShadow_798_50200"/>
<feBlend mode="normal" in="SourceGraphic" in2="effect1_dropShadow_798_50200" result="shape"/>
</filter>
<filter id="filter8_d_798_50200" x="188.52" y="152.722" width="65.5254" height="71.2573" filterUnits="userSpaceOnUse" color-interpolation-filters="sRGB">
<feFlood flood-opacity="0" result="BackgroundImageFix"/>
<feColorMatrix in="SourceAlpha" type="matrix" values="0 0 0 0 0 0 0 0 0 0 0 0 0 0 0 0 0 0 127 0" result="hardAlpha"/>
<feOffset dy="12"/>
<feGaussianBlur stdDeviation="5"/>
<feColorMatrix type="matrix" values="0 0 0 0 0 0 0 0 0 0 0 0 0 0 0 0 0 0 0.06 0"/>
<feBlend mode="normal" in2="BackgroundImageFix" result="effect1_dropShadow_798_50200"/>
<feBlend mode="normal" in="SourceGraphic" in2="effect1_dropShadow_798_50200" result="shape"/>
</filter>
<filter id="filter9_d_798_50200" x="241.556" y="17.3477" width="34.084" height="91.2676" filterUnits="userSpaceOnUse" color-interpolation-filters="sRGB">
<feFlood flood-opacity="0" result="BackgroundImageFix"/>
<feColorMatrix in="SourceAlpha" type="matrix" values="0 0 0 0 0 0 0 0 0 0 0 0 0 0 0 0 0 0 127 0" result="hardAlpha"/>
<feOffset/>
<feGaussianBlur stdDeviation="5"/>
<feColorMatrix type="matrix" values="0 0 0 0 0 0 0 0 0 0 0 0 0 0 0 0 0 0 0.06 0"/>
<feBlend mode="normal" in2="BackgroundImageFix" result="effect1_dropShadow_798_50200"/>
<feBlend mode="normal" in="SourceGraphic" in2="effect1_dropShadow_798_50200" result="shape"/>
</filter>
<filter id="filter10_d_798_50200" x="245.618" y="38.8818" width="33.9546" height="33.7837" filterUnits="userSpaceOnUse" color-interpolation-filters="sRGB">
<feFlood flood-opacity="0" result="BackgroundImageFix"/>
<feColorMatrix in="SourceAlpha" type="matrix" values="0 0 0 0 0 0 0 0 0 0 0 0 0 0 0 0 0 0 127 0" result="hardAlpha"/>
<feOffset dx="4" dy="4"/>
<feGaussianBlur stdDeviation="7"/>
<feColorMatrix type="matrix" values="0 0 0 0 0 0 0 0 0 0 0 0 0 0 0 0 0 0 0.25 0"/>
<feBlend mode="normal" in2="BackgroundImageFix" result="effect1_dropShadow_798_50200"/>
<feBlend mode="normal" in="SourceGraphic" in2="effect1_dropShadow_798_50200" result="shape"/>
</filter>
<filter id="filter11_d_798_50200" x="240.368" y="33.6318" width="26.4546" height="26.2837" filterUnits="userSpaceOnUse" color-interpolation-filters="sRGB">
<feFlood flood-opacity="0" result="BackgroundImageFix"/>
<feColorMatrix in="SourceAlpha" type="matrix" values="0 0 0 0 0 0 0 0 0 0 0 0 0 0 0 0 0 0 127 0" result="hardAlpha"/>
<feOffset dx="-5" dy="-5"/>
<feGaussianBlur stdDeviation="5"/>
<feColorMatrix type="matrix" values="0 0 0 0 0.941176 0 0 0 0 0.941176 0 0 0 0 1 0 0 0 0.5 0"/>
<feBlend mode="normal" in2="BackgroundImageFix" result="effect1_dropShadow_798_50200"/>
<feBlend mode="normal" in="SourceGraphic" in2="effect1_dropShadow_798_50200" result="shape"/>
</filter>
<filter id="filter12_d_798_50200" x="137.267" y="152.722" width="65.5254" height="71.2573" filterUnits="userSpaceOnUse" color-interpolation-filters="sRGB">
<feFlood flood-opacity="0" result="BackgroundImageFix"/>
<feColorMatrix in="SourceAlpha" type="matrix" values="0 0 0 0 0 0 0 0 0 0 0 0 0 0 0 0 0 0 127 0" result="hardAlpha"/>
<feOffset dy="12"/>
<feGaussianBlur stdDeviation="5"/>
<feColorMatrix type="matrix" values="0 0 0 0 0 0 0 0 0 0 0 0 0 0 0 0 0 0 0.06 0"/>
<feBlend mode="normal" in2="BackgroundImageFix" result="effect1_dropShadow_798_50200"/>
<feBlend mode="normal" in="SourceGraphic" in2="effect1_dropShadow_798_50200" result="shape"/>
</filter>
<filter id="filter13_d_798_50200" x="262.639" y="80.8999" width="63.7471" height="39.7153" filterUnits="userSpaceOnUse" color-interpolation-filters="sRGB">
<feFlood flood-opacity="0" result="BackgroundImageFix"/>
<feColorMatrix in="SourceAlpha" type="matrix" values="0 0 0 0 0 0 0 0 0 0 0 0 0 0 0 0 0 0 127 0" result="hardAlpha"/>
<feOffset dy="12"/>
<feGaussianBlur stdDeviation="5"/>
<feColorMatrix type="matrix" values="0 0 0 0 0 0 0 0 0 0 0 0 0 0 0 0 0 0 0.06 0"/>
<feBlend mode="normal" in2="BackgroundImageFix" result="effect1_dropShadow_798_50200"/>
<feBlend mode="normal" in="SourceGraphic" in2="effect1_dropShadow_798_50200" result="shape"/>
</filter>
<filter id="filter14_d_798_50200" x="260.153" y="68.5391" width="32.8149" height="32.4375" filterUnits="userSpaceOnUse" color-interpolation-filters="sRGB">
<feFlood flood-opacity="0" result="BackgroundImageFix"/>
<feColorMatrix in="SourceAlpha" type="matrix" values="0 0 0 0 0 0 0 0 0 0 0 0 0 0 0 0 0 0 127 0" result="hardAlpha"/>
<feOffset dx="-5" dy="-5"/>
<feGaussianBlur stdDeviation="5"/>
<feColorMatrix type="matrix" values="0 0 0 0 0.941176 0 0 0 0 0.941176 0 0 0 0 1 0 0 0 0.5 0"/>
<feBlend mode="normal" in2="BackgroundImageFix" result="effect1_dropShadow_798_50200"/>
<feBlend mode="normal" in="SourceGraphic" in2="effect1_dropShadow_798_50200" result="shape"/>
</filter>
<filter id="filter15_dd_798_50200" x="82.3623" y="19.1826" width="52.3516" height="63.5669" filterUnits="userSpaceOnUse" color-interpolation-filters="sRGB">
<feFlood flood-opacity="0" result="BackgroundImageFix"/>
<feColorMatrix in="SourceAlpha" type="matrix" values="0 0 0 0 0 0 0 0 0 0 0 0 0 0 0 0 0 0 127 0" result="hardAlpha"/>
<feOffset dx="-5" dy="-5"/>
<feGaussianBlur stdDeviation="5"/>
<feColorMatrix type="matrix" values="0 0 0 0 0.941176 0 0 0 0 0.941176 0 0 0 0 1 0 0 0 0.5 0"/>
<feBlend mode="normal" in2="BackgroundImageFix" result="effect1_dropShadow_798_50200"/>
<feColorMatrix in="SourceAlpha" type="matrix" values="0 0 0 0 0 0 0 0 0 0 0 0 0 0 0 0 0 0 127 0" result="hardAlpha"/>
<feOffset dy="12"/>
<feGaussianBlur stdDeviation="5"/>
<feColorMatrix type="matrix" values="0 0 0 0 0 0 0 0 0 0 0 0 0 0 0 0 0 0 0.06 0"/>
<feBlend mode="normal" in2="effect1_dropShadow_798_50200" result="effect2_dropShadow_798_50200"/>
<feBlend mode="normal" in="SourceGraphic" in2="effect2_dropShadow_798_50200" result="shape"/>
</filter>
<filter id="filter16_dd_798_50200" x="114.586" y="19.1826" width="52.3516" height="63.5669" filterUnits="userSpaceOnUse" color-interpolation-filters="sRGB">
<feFlood flood-opacity="0" result="BackgroundImageFix"/>
<feColorMatrix in="SourceAlpha" type="matrix" values="0 0 0 0 0 0 0 0 0 0 0 0 0 0 0 0 0 0 127 0" result="hardAlpha"/>
<feOffset dx="-5" dy="-5"/>
<feGaussianBlur stdDeviation="5"/>
<feColorMatrix type="matrix" values="0 0 0 0 0.941176 0 0 0 0 0.941176 0 0 0 0 1 0 0 0 0.5 0"/>
<feBlend mode="normal" in2="BackgroundImageFix" result="effect1_dropShadow_798_50200"/>
<feColorMatrix in="SourceAlpha" type="matrix" values="0 0 0 0 0 0 0 0 0 0 0 0 0 0 0 0 0 0 127 0" result="hardAlpha"/>
<feOffset dy="12"/>
<feGaussianBlur stdDeviation="5"/>
<feColorMatrix type="matrix" values="0 0 0 0 0 0 0 0 0 0 0 0 0 0 0 0 0 0 0.06 0"/>
<feBlend mode="normal" in2="effect1_dropShadow_798_50200" result="effect2_dropShadow_798_50200"/>
<feBlend mode="normal" in="SourceGraphic" in2="effect2_dropShadow_798_50200" result="shape"/>
</filter>
<filter id="filter17_dd_798_50200" x="146.803" y="19.1826" width="52.3516" height="63.5669" filterUnits="userSpaceOnUse" color-interpolation-filters="sRGB">
<feFlood flood-opacity="0" result="BackgroundImageFix"/>
<feColorMatrix in="SourceAlpha" type="matrix" values="0 0 0 0 0 0 0 0 0 0 0 0 0 0 0 0 0 0 127 0" result="hardAlpha"/>
<feOffset dx="-5" dy="-5"/>
<feGaussianBlur stdDeviation="5"/>
<feColorMatrix type="matrix" values="0 0 0 0 0.941176 0 0 0 0 0.941176 0 0 0 0 1 0 0 0 0.5 0"/>
<feBlend mode="normal" in2="BackgroundImageFix" result="effect1_dropShadow_798_50200"/>
<feColorMatrix in="SourceAlpha" type="matrix" values="0 0 0 0 0 0 0 0 0 0 0 0 0 0 0 0 0 0 127 0" result="hardAlpha"/>
<feOffset dy="12"/>
<feGaussianBlur stdDeviation="5"/>
<feColorMatrix type="matrix" values="0 0 0 0 0 0 0 0 0 0 0 0 0 0 0 0 0 0 0.06 0"/>
<feBlend mode="normal" in2="effect1_dropShadow_798_50200" result="effect2_dropShadow_798_50200"/>
<feBlend mode="normal" in="SourceGraphic" in2="effect2_dropShadow_798_50200" result="shape"/>
</filter>
<linearGradient id="paint0_linear_798_50200" x1="110.246" y1="223.148" x2="229.687" y2="16.2772" gradientUnits="userSpaceOnUse">
<stop stop-color="white"/>
<stop offset="0.18" stop-color="white" stop-opacity="0.96"/>
<stop offset="0.48" stop-color="white" stop-opacity="0.84"/>
<stop offset="0.89" stop-color="white" stop-opacity="0.66"/>
<stop offset="1" stop-color="white" stop-opacity="0.6"/>
</linearGradient>
<clipPath id="clip0_798_50200">
<rect y="0.25" width="370" height="242" rx="8" fill="white"/>
</clipPath>
</defs>
</svg>
